<svg id="Layer_1" data-name="Layer 1" xmlns="http://www.w3.org/2000/svg" viewBox="0 0 480.12 451.93">
    <defs>
        <style>.cls-1{fill:#fff;}</style>
    </defs>
    <path class="cls-1"
        d="M7089.77,7284.33c0-8.27,0-16.54,0-24.82,0-9.86,0-19.73.21-29.59.15-5.71,4.83-9.74,10.58-9.66a9.78,9.78,0,0,1,10,9.73c.29,15,.43,30,.56,45.05.13,15.32.19,30.63.27,45.95v.65c.21,6.31,1.44,7.91,7.77,8.32,6.57.43,13.16.32,19.75.4,2,0,3.05-1.26,3.51-3,3.21-11.9,6.35-23.82,9.56-35.73q7.59-28.11,15.26-56.21c1.21-4.38,3.14-8.39,6.94-11.27,7.61-5.76,18.48-2.19,20.48,6.47,2.33,10.1,4.8,20.16,6.89,30.31,2.65,12.84,5,25.74,7.45,38.63,2,10.55,3.76,21.12,5.65,31.68.45,2.5,1.05,5,1.48,7.47a14.05,14.05,0,0,1-1.09,8.7c-1.76,3.67-4.48,5.74-8.7,5.69-4.41-.06-8-1.79-9.52-5.93a117.52,117.52,0,0,1-4.09-14.84c-1.55-6.93-2.77-13.94-4.18-20.9a44.71,44.71,0,0,0-1.65-6.49,3.11,3.11,0,0,0-2.26-1.73,73.93,73.93,0,0,0-12.1.71c-1.45.25-3.17,2.16-3.74,3.69-1.82,4.88-3.2,9.92-4.66,14.92-2,6.82-3.81,13.68-5.84,20.48-1.88,6.29-5.32,9.14-11.95,9.55-4.69.29-9.42.18-14.13,0-9.28-.33-18.55-.78-27.83-1.28a23.77,23.77,0,0,1-5.34-1c-6.54-1.89-8.61-4.84-8.81-12.25-.44-15.88-.38-31.77-.53-47.66,0-2,0-4.07,0-6.1Zm90.72-18.64-.52-.08c-1.29,3.79-2.62,7.57-3.85,11.38a2.78,2.78,0,0,0,.1,2.11,7,7,0,0,0,2.69,2.79c.76.3,2.17-.46,3-1.09,1.57-1.15,1.39-3,1-4.59C7182.24,7272.68,7181.33,7269.19,7180.49,7265.69Z"
        transform="translate(-6947.09 -6984.58)" />
    <path class="cls-1"
        d="M7189.46,7131.33c0-10.16.22-20.33-.05-30.49-.35-12.62-1.14-25.23-1.67-37.85-.3-7.09,1.17-9.91,6.68-11.87a17.16,17.16,0,0,1,6.85-.71c11.29.85,22.59,1.77,33.51,5,10.32,3,19.45,8.05,25.94,16.93,6.8,9.3,8.22,19.69,5.33,30.65-3,11.5-9.91,20.5-19.11,27.86-1.29,1-2.39,2.32-3.65,3.4-2.75,2.33-2.78,5.13-1.7,8.28,2.09,6.12,5.59,11.44,9.25,16.67,6.38,9.08,12.9,18.07,19.14,27.24a66,66,0,0,1,5.49,10.34,9.26,9.26,0,0,1-.4,8.61A8.62,8.62,0,0,1,7262,7208a40.91,40.91,0,0,1-6.87-8c-5.66-8.17-11.34-16.34-16.58-24.78s-10.37-17-13.6-26.44a51.37,51.37,0,0,1-2.69-12.7c-.41-5.8,2.43-10.36,6.95-14a56.48,56.48,0,0,0,7.92-7.69c3.3-4,6.73-8.07,9.11-12.63,3.13-6,4-12.44.21-18.7a18.27,18.27,0,0,0-8.32-7.11,70.14,70.14,0,0,0-27.48-5.95c-3.78-.09-4.23.43-4.05,4.25,1.06,21.89,2,43.78,3.27,65.65,1,18.18,2.5,36.34,3.56,54.53a28.05,28.05,0,0,1-1.19,9.36c-1.29,4.38-5.23,5.63-9.25,6a8.7,8.7,0,0,1-8.75-6,63.79,63.79,0,0,1-2.15-13c-.8-13.77-1.37-27.55-1.86-41.33-.22-6,0-12.05,0-18.08Z"
        transform="translate(-6947.09 -6984.58)" />
    <path class="cls-1"
        d="M7141.14,7051.82c9.5.19,13.87,3.9,15.23,10.86q5.54,28.17,11.06,56.36c3.33,16.95,6.84,33.86,9.93,50.85,1.67,9.19,2.67,18.51,3.88,27.78.46,3.51,0,6.9-3.05,9.24-4.49,3.45-11.53,1.26-14.13-4.48a33.31,33.31,0,0,1-2.22-7.26c-1.7-8.68-3.14-17.41-4.89-26.08-1-5-1.78-5.31-6.79-5.25-8.35.11-16.7.05-25.05.16-2.38,0-4.76.43-7.14.68a3.88,3.88,0,0,0-3.62,3.2c-2.09,7.78-4.18,15.55-6.34,23.3-1,3.7-2,7.43-3.39,11-1.1,2.9-3.08,5.36-6.3,6.16-6.29,1.55-11.86-2-11.68-9.6a61.52,61.52,0,0,1,2.78-15.36c4.1-14.2,8.51-28.32,12.89-42.44,5.3-17.1,10.69-34.18,16-51.27,2.91-9.33,5.19-18.91,9.88-27.58C7131.52,7056,7136.24,7051.82,7141.14,7051.82Zm-.57,29.54a14.73,14.73,0,0,0-.82,1.52c-1.84,5.57-3.7,11.14-5.49,16.72q-6.15,19.26-12.24,38.54c-1.09,3.47.25,5.36,3.94,5.69a36.44,36.44,0,0,0,3.91.05c5.65-.11,11.31-.09,16.95-.41,4.86-.28,6.14-2.33,5.19-7-2.21-11-4.26-22.06-6.51-33.06C7144,7096.16,7142.29,7089,7140.57,7081.36Z"
        transform="translate(-6947.09 -6984.58)" />
    <path class="cls-1"
        d="M7281.25,7101.18c-.2-5.94-.44-13.34-.7-20.74-.16-4.47,1.09-8.29,5.49-10.14a10.6,10.6,0,0,1,5.87-.83c17.27,3.48,33.45,9.69,47.54,20.48,9.83,7.54,16.66,17.47,21.36,28.88,4.52,11,7,22.41,5.16,34.25-3.06,19.83-13,35.35-30.68,45.31a90.22,90.22,0,0,1-30.77,11,28.64,28.64,0,0,1-9.05-.21c-5.33-.94-7.89-3.62-8.46-9-1.16-10.88-2.25-21.79-2.94-32.72-1.12-17.67-1.93-35.36-2.79-53.05C7281.09,7110.49,7281.25,7106.56,7281.25,7101.18Zm66.35,46.42a56,56,0,0,0-9.22-31.32c-8.31-12.81-21-19.86-34.57-25.66-4.52-1.93-5.31-1.12-5,3.81.52,8.54,1.13,17.08,1.6,25.63.45,8.4.42,16.85,1.23,25.22,1.21,12.41,2.94,24.77,4.49,37.15.45,3.52,1.2,4,4.73,3.52,6.73-.9,12.77-3.57,18.64-6.89C7341.8,7172.11,7347.37,7161.41,7347.6,7147.6Z"
        transform="translate(-6947.09 -6984.58)" />
    <path class="cls-1"
        d="M7313.62,7271.05c7.91-1.55,15.43-3,23-4.49,1.95-.38,2.41-1.54,2.39-3.43-.13-10.53-.14-21.05-.17-31.58a10.87,10.87,0,0,1,2.58-7.66c4.32-4.74,13.07-3.2,15.32,3a35.25,35.25,0,0,1,1.65,10.86c.25,9,0,18,.18,27,.11,7.61.49,15.21.63,22.81.15,8.71.15,17.41.22,26.12,0,2.24.09,4.49.05,6.73-.09,4.55-3.48,6.74-6.64,9.06-.3.23-.84.16-1.26.2a11.1,11.1,0,0,1-12.31-11.51c0-9.5-.29-19-.45-28.51,0-2.52-.47-3-3-2.59-7.4,1.28-14.78,2.68-22.33,4.06,0,8.12.07,15.95,0,23.77-.08,6.16-.36,12.31-.57,18.47-.19,5.65-6.2,9.11-12,7.66-5.25-1.31-7.59-3.92-7.69-9.32q-.46-26.11-.7-52.24c-.11-11.32-.08-22.64-.07-33.95,0-4.65.17-9.29.18-13.93,0-6.89,2.86-9.79,10.14-10.29,5.2-.37,9.46,3.28,9.89,9.12.54,7.37.69,14.77.86,22.16.12,5.22,0,10.45-.05,15.68C7313.41,7269,7313.51,7269.68,7313.62,7271.05Z"
        transform="translate(-6947.09 -6984.58)" />
    <path class="cls-1"
        d="M7020.27,7151.54c.37-16,5-30.49,14.74-43.49,8.57-11.45,18.31-21.56,30-29.72,6.17-4.31,12.29-8.85,19.65-11,3.75-1.1,7.57-2,11.44-.18,5,2.39,6.64,7.74,3.54,12.28a16.48,16.48,0,0,1-8.25,6.48c-19,6.63-32.66,19.52-42.68,36.58-4.17,7.09-7.73,14.5-8.64,22.83-1,9.3-.56,18.41,3.79,27a28.61,28.61,0,0,0,12.73,12.39c3.84,2,7.84,3.77,11.58,6a19.7,19.7,0,0,1,5.3,4.71,7.61,7.61,0,0,1,.74,8.78c-1.83,3.43-4.76,5.45-8.51,4.79a40.3,40.3,0,0,1-10.85-3.57c-10.72-5.36-20.19-12.23-26.43-22.88C7022.82,7172.89,7019.85,7162.69,7020.27,7151.54Z"
        transform="translate(-6947.09 -6984.58)" />
    <path class="cls-1"
        d="M7240.13,7347.42c-3-.77-6.11-1.2-8.91-2.4-3.76-1.61-5-4.65-4.25-8.72s3.22-7.05,7.26-8.17c3.54-1,7.22-1.46,10.84-2.16,4.23-.82,8.57-1.57,11.18-5.5a10.91,10.91,0,0,0,1.34-10.33c-1.5-4.05-4.19-7.24-6.88-10.48-4.3-5.19-8.9-10.19-12.6-15.78-7.5-11.35-9.4-23.93-5-36.82,3-8.76,9.33-15.32,17.57-19.71a29.21,29.21,0,0,1,20.47-2.88c5,1.11,8.06,5,7.89,9.33a10.36,10.36,0,0,1-8.38,9.57c-2.89.66-5.83,1.14-8.67,2a20.78,20.78,0,0,0-5.08,2.42c-5.51,3.46-7.11,8.38-5.43,15.32s6.17,12.52,10.37,18.18c4.35,5.86,9.16,11.58,12.38,18.06,5,10.16,4.44,20.84-.55,31.07-2.1,4.29-5.8,7.18-9.85,9.59A59.44,59.44,0,0,1,7240.13,7347.42Z"
        transform="translate(-6947.09 -6984.58)" />
    <path class="cls-1"
        d="M7015.77,7283.22c.67-16.3,5.65-30.76,16.62-42.85a59.67,59.67,0,0,1,25.84-16.71,17.18,17.18,0,0,1,10.91-.44c4.92,1.59,7.26,4.6,7.72,8.92.44,4.13-2.44,8-6.78,9.91-4.56,2-9.35,3.69-13.52,6.35-16,10.18-23.14,27.13-19.49,45.34,1.89,9.47,7.44,17.16,15.32,23.05,5.25,3.92,11.14,6.45,17.19,8.71,4.59,1.72,7.29,4.86,7.33,9.94,0,4.77-3.08,8.31-7.78,7.92a46.09,46.09,0,0,1-12.45-2.59,61.1,61.1,0,0,1-18.3-10.28c-9.79-8.38-17.43-18.27-20.11-31.23C7017.18,7294,7016.59,7288.57,7015.77,7283.22Z"
        transform="translate(-6947.09 -6984.58)" />
    <path class="cls-1"
        d="M7220.52,7400c-4.86-1.37-9.79-2.52-14.55-4.16-8-2.76-15.93-5.79-23.85-8.8a32,32,0,0,1-5.21-2.66c-3.82-2.32-4.36-5.64-1.58-9.13s6.66-4.6,10.77-4.88c12-.82,22.94,2.62,32.86,9.23a53.65,53.65,0,0,1,8.49,7.31,7.5,7.5,0,0,1,1.39,9.22c-1.74,3.28-5,3.29-8.14,3.34Z"
        transform="translate(-6947.09 -6984.58)" />
    <path class="cls-1"
        d="M7427.21,7267.92a106,106,0,0,1-2.49,22,101,101,0,0,1-8.88,26.26c-3.11,6-6.79,11.66-12.31,15.82-3.47,2.61-7.37,4.08-11.8,3.34-5.74-1-9.73-6.11-8.89-12.51a133.86,133.86,0,0,1,4-19.33c3.06-10.74,6-21.5,4.62-32.74a77.3,77.3,0,0,0-4.42-17.86c-4-10.41-8.84-20.48-13.12-30.79-2.48-5.95-4.88-12-4.8-18.63a31.72,31.72,0,0,1,1-7.71c1.73-6.46,7.55-8.58,12.75-7.12a39,39,0,0,1,11.29,5.31c12.92,8.79,20.78,21.5,26.07,35.84A111,111,0,0,1,7427.21,7267.92Zm-2.5-1.17c-.57-5.56-.81-11.17-1.79-16.66-3.31-18.56-9.92-35.61-23.94-48.95-4.55-4.33-9.54-8-15.81-9.63-5.78-1.46-10.08,1.29-11.18,7.14-1.34,7.1.53,13.75,3.15,20.16,4.82,11.8,10.11,23.41,14.92,35.21,3.81,9.37,5.4,19.24,3.71,29.24-1.46,8.62-4,17.07-5.79,25.64a95.9,95.9,0,0,0-2.36,15c-.34,6.69,5.09,10.35,11.42,8.25s10.18-7.23,13.59-12.58a78.13,78.13,0,0,0,9-20.65C7422.64,7288.41,7424.82,7277.79,7424.71,7266.75Z"
        transform="translate(-6947.09 -6984.58)" />
    <path class="cls-1"
        d="M7237.09,7385a30.24,30.24,0,0,0,4.19,2.08c2.51.83,5.11,2,7.67,2,8.34-.08,16.71-.55,24.76-3,7.55-2.29,14.9-4.86,21.34-9.87,4.88-3.8,10.52-6.66,15.89-9.82s10.76-6.61,16.44-9.25c11.09-5.15,23-7.16,35.12-7.14a156.77,156.77,0,0,1,21.67,1.38,43.44,43.44,0,0,1,13.78,4.43c5.37,2.79,8.06,10.66,3.9,17.06s-10.68,8.5-17.9,9.13c-9.46.83-18.49-1.23-27.33-4.18-11.05-3.68-22.34-3.6-33.6-2.11-8.53,1.13-16.86,3.69-25.39,4.82-6.43.86-11.9,3.95-17.82,6-10.71,3.68-21.76,4.91-33,4.87-3.75,0-6.73-2.08-9.49-4.38-.38-.32-.48-1-.71-1.47Zm60.76-7.57.21.7c1.53-.28,3.07-.54,4.6-.84,6.89-1.33,13.74-3,20.69-3.93a82.44,82.44,0,0,1,34.28,2.18,117.1,117.1,0,0,0,18.24,3.83c7.07.88,14.05.13,20.16-4.27,7.11-5.12,6.34-14.59-1.62-18.18a31.09,31.09,0,0,0-7.82-2.53c-5.57-.9-11.19-1.63-16.82-2a96.54,96.54,0,0,0-35.82,4.8C7320.56,7361.48,7309.83,7370.54,7297.85,7377.39Z"
        transform="translate(-6947.09 -6984.58)" />
    <path class="cls-1"
        d="M6975.42,7123.42a63.15,63.15,0,0,1,6.11-25.2c8.65-18.71,21.45-34.13,37.45-47a73.72,73.72,0,0,1,19.68-11.79,23.41,23.41,0,0,1,8-1.39c4.49,0,6.88,3.25,6.07,7.74-.72,4-3.25,6.88-5.77,9.8-9,10.5-20,18.89-30.34,28-13.14,11.61-23,25.41-29.05,41.92-1.12,3.06-2.34,6.09-3.51,9.13-.55,1.44-1.42,3-3,2.58a5.76,5.76,0,0,1-3.36-2.6C6975.83,7131,6975.36,7127.81,6975.42,7123.42Zm5.43,11.11c3.15-7.26,6-14.12,9.1-20.91,6.08-13.53,15.75-24.22,27-33.59,9.71-8.07,19.45-16.1,27.77-25.66,2.42-2.77,5.12-5.42,5.23-9.49.06-2.46-.94-3.86-3.37-3.83a21.53,21.53,0,0,0-6.4.9c-9.54,3.21-17.48,9.15-24.8,15.78-13.56,12.28-24.63,26.52-32.09,43.39a59.08,59.08,0,0,0-5.16,22.32A21.5,21.5,0,0,0,6980.85,7134.53Z"
        transform="translate(-6947.09 -6984.58)" />
    <path class="cls-1"
        d="M7393.07,7100.69c0,3.92-1.51,5.62-4.43,5.81a8.4,8.4,0,0,1-6.63-2.19c-5.38-5.27-10.68-10.61-16-16-2.75-2.77-5.49-5.57-8.13-8.45a20.06,20.06,0,0,1-3.19-4.34c-2.29-4.51.31-8.4,5.36-8.21a17.43,17.43,0,0,1,11.31,5,191.68,191.68,0,0,1,13.88,14.62,61.3,61.3,0,0,1,6.24,9.37A20.85,20.85,0,0,1,7393.07,7100.69Z"
        transform="translate(-6947.09 -6984.58)" />
    <path class="cls-1"
        d="M6978.79,7225.72a22.52,22.52,0,0,1,5.18-13.55,36,36,0,0,1,8.35-7.45,10.21,10.21,0,0,1,12,.34c4,3.42,5.13,7.85,3.35,12.58-1.22,3.23-3.42,6.12-5.33,9.07a19.52,19.52,0,0,1-9.81,7.92c-5.21,1.94-12-.85-13.33-5.65A21,21,0,0,1,6978.79,7225.72Z"
        transform="translate(-6947.09 -6984.58)" />
    <path class="cls-1"
        d="M6995.11,7305.45a59.44,59.44,0,0,1-1.87,7.88c-1.12,2.94-4.46,3.36-6.8,1.21-2.68-2.47-3.87-5.81-4.86-9.09a58.85,58.85,0,0,1-1.16-31.26c.52-2.16,1.1-4.53,3.66-5.54,1.86-.74,3.2-.21,4,1.42a24.56,24.56,0,0,1,2.19,5.84c1.33,7,2.49,14.11,3.6,21.19.43,2.72.57,5.48.84,8.22Z"
        transform="translate(-6947.09 -6984.58)" />
    <path class="cls-1"
        d="M7202,7436.51c-9.9-.64-18.93-3.79-27.68-7.78a140.43,140.43,0,0,1-37.33-24.82,68.05,68.05,0,0,1-9.27-11.39c-1.24-1.79-2.75-4.53-.37-6.54s4.56.08,6.49,1.26c4.21,2.55,8.29,5.33,12.39,8.07a99.39,99.39,0,0,0,36,15.34c8.83,1.77,17.52,4.3,25.4,8.81a29.37,29.37,0,0,1,7.29,6.35,5.18,5.18,0,0,1-2.37,8.34A100.3,100.3,0,0,1,7202,7436.51Zm-72.36-48.94-.57.36a11.79,11.79,0,0,0,.48,2.32,36.35,36.35,0,0,0,9.14,12,131.26,131.26,0,0,0,27.71,19.77c9.16,4.73,18.29,9.51,28.7,11,4.79.7,9.57.91,14.24-.4a6.72,6.72,0,0,0,3.93-3c.83-1.72-.82-3.13-2.13-4.36-4.67-4.4-10.4-6.85-16.39-8.64-8.41-2.52-16.94-4.61-25.36-7.07-9.8-2.87-18.26-8.44-26.82-13.74C7138.16,7393.18,7133.89,7390.35,7129.59,7387.57Z"
        transform="translate(-6947.09 -6984.58)" />
    <path class="cls-1"
        d="M7153,7032.44c-4.17-.5-8.34-1-12.5-1.54a9.24,9.24,0,0,1-3.05-1.1,4.61,4.61,0,0,1-1.58-6.88c1.7-2.53,4.29-3.67,7.05-4.36a35.47,35.47,0,0,1,17.43-.09,13.12,13.12,0,0,1,5.43,2.95,5.15,5.15,0,0,1,1.34,6.19,8.32,8.32,0,0,1-7.14,4.65c-2.3.2-4.63,0-6.95,0Z"
        transform="translate(-6947.09 -6984.58)" />
    <path class="cls-1"
        d="M7258.07,7398.24c1.37.13,2.75.17,4.1.39a6.79,6.79,0,0,1,5.6,4.85,7,7,0,0,1-1.64,7.42,16.58,16.58,0,0,1-18.8,3.42,7.21,7.21,0,0,1-1.85-11.13A16.75,16.75,0,0,1,7258.07,7398.24Z"
        transform="translate(-6947.09 -6984.58)" />
    <path class="cls-1"
        d="M7016.91,7389.79c.16,5.92-2.51,10.52-6.95,14.1-4.12,3.33-9.95.93-11.11-4.66a16.84,16.84,0,0,1,4.2-15.1c2.51-2.82,5.89-3.34,9.35-1.93S7016.89,7385.5,7016.91,7389.79Z"
        transform="translate(-6947.09 -6984.58)" />
    <path class="cls-1"
        d="M7121.36,7004.68c3,.1,5.32.77,6.59,3.11a6.79,6.79,0,0,1-.68,7.8,27.44,27.44,0,0,1-15.34,9.27c-2.59.58-4.65-.74-6.18-2.81s-1.92-4.3-.48-6.67C7109.06,7009.1,7114.81,7005.93,7121.36,7004.68Z"
        transform="translate(-6947.09 -6984.58)" />
    <path class="cls-1"
        d="M7363.25,7023.9c6.89,1,13.36,2.6,18.67,7.19a15.43,15.43,0,0,1,3,3.69,4.29,4.29,0,0,1-3.5,6.66,18.09,18.09,0,0,1-6.33-1.12,132,132,0,0,1-13.08-5.22,17,17,0,0,1-5.11-4.28c-2.15-2.45-1.47-4.8,1.59-5.93A29.64,29.64,0,0,1,7363.25,7023.9Z"
        transform="translate(-6947.09 -6984.58)" />
    <path class="cls-1"
        d="M7089.69,7375.84a6.3,6.3,0,0,1-2.35-.58,81.57,81.57,0,0,0-18.66-11.08c-5.91-2.51-12.17-4.2-18.27-6.28-5.35-1.81-10.66-3.74-16-5.43a12,12,0,0,0-5-.36c-3,.41-5.94.75-8.45-1.4-3.77-3.23-2.89-9.68,1.58-11.52a5.66,5.66,0,0,1,3-.36,10,10,0,0,1,8,8.95c.09.88,1.36,2,2.33,2.36,4.23,1.7,8.52,3.23,12.82,4.74,7.86,2.75,15.88,5.08,23.54,8.29a49.89,49.89,0,0,1,17.27,11.49,5.31,5.31,0,0,1,.48.66Z"
        transform="translate(-6947.09 -6984.58)" />
    <path class="cls-1"
        d="M7322.79,7030.24c3.89.66,7.26,1.63,10.22,3.79,4.66,3.41,9.33,6.8,14,10.25,1.13.85,2.21,2,1.21,3.48s-2.28,3.07-4.38,2.55a44.09,44.09,0,0,1-8.36-2.69c-4.55-2.19-8.94-4.73-13.3-7.27a11.44,11.44,0,0,1-3.07-3,3.71,3.71,0,0,1-.29-4.66C7319.73,7031.57,7321.43,7031,7322.79,7030.24Z"
        transform="translate(-6947.09 -6984.58)" />
    <path class="cls-1"
        d="M7332.62,7062.17c-3.66-2.49-6.83-4.74-10.09-6.85a84.86,84.86,0,0,0-25.22-10.87c-7.64-1.95-15.47-3.52-22.77-6.39-6.54-2.57-12.46-6.71-18.69-10.08a4.76,4.76,0,0,0-2.87-.57c-1.9.33-3.73.33-5.12-1a39.05,39.05,0,0,1-5.42-6.09c-1.48-2.21-.19-4.31,2.46-4.66,3.58-.46,7.44,1,8.44,4.36,1.94,6.49,7.46,8.58,12.45,11.56,11.17,6.67,23.82,8.77,36.13,12,11.16,2.95,21.3,7.91,29.43,16.39.35.37.68.76,1,1.15A7,7,0,0,1,7332.62,7062.17Z"
        transform="translate(-6947.09 -6984.58)" />
    <path class="cls-1"
        d="M7043.69,7417.25c-3.47-.54-5.73-2.47-8.24-3.89a26.82,26.82,0,0,1-9.52-9.32c-1.63-2.63-1.3-5.12.81-7.08,2.46-2.27,5.34-2.73,7.63-.54,4.39,4.19,8.52,8.65,12.64,13.11a3.85,3.85,0,0,1,.44,5C7046.56,7415.73,7045,7416.37,7043.69,7417.25Z"
        transform="translate(-6947.09 -6984.58)" />
    <path class="cls-1"
        d="M7371.3,7256.55c4.37,3,5.77,7.1,6.37,11.45,1.17,8.43,1.68,16.9-.12,25.33a39.48,39.48,0,0,1-1.78,5.82,2.4,2.4,0,0,1-1.68,1.38,2.19,2.19,0,0,1-1.56-1.43,98.32,98.32,0,0,1-1.34-11.2c-.31-8.92-.38-17.84-.48-26.77A34.88,34.88,0,0,1,7371.3,7256.55Z"
        transform="translate(-6947.09 -6984.58)" />
    <path class="cls-1"
        d="M7273,7410.69l-.89-1.6c.15-.22.21-.38.32-.44,8.48-4.42,16.66-9.66,26.16-11.62a150.91,150.91,0,0,1,22.12-3.26c11.37-.64,22.78-.41,34.18-.62,2.13,0,4.26-.39,6.4-.59l.32-.75a37.24,37.24,0,0,0-3.23-3.18c-2.06-1.6-4.3-3-6.35-4.55a3.23,3.23,0,0,1-1-4.45c.29-.52.93-.84,1.6-1.41.38,4.45.49,4.29,4.26,6.78a32.74,32.74,0,0,1,6.27,5.55c1.39,1.55.86,3.13-1.22,3.58a42.83,42.83,0,0,1-8.39.89c-11.75.22-23.52,0-35.25.54a74.58,74.58,0,0,0-26.26,5.62c-5.59,2.39-10.93,5.37-16.37,8.09C7274.91,7409.68,7274.09,7410.14,7273,7410.69Z"
        transform="translate(-6947.09 -6984.58)" />
    <path class="cls-1"
        d="M7147.69,7371.29a21.11,21.11,0,0,1,13.12,7.23c1,1.15,1.36,3.18,1.44,4.84a3.19,3.19,0,0,1-3.87,3.35c-5.63-1.24-11-3.14-15.18-7.37a6.08,6.08,0,0,1-1.36-1.94C7140.22,7373.48,7142,7371.29,7147.69,7371.29Z"
        transform="translate(-6947.09 -6984.58)" />
    <path class="cls-1"
        d="M7129.58,7258.1c1.12.39,2.09.42,2.54.93a31.24,31.24,0,0,1,4.79,6.05c1.91,3.7,1.42,5.2-1.69,8a28.46,28.46,0,0,1-3.63,2.73c-1.87,1.2-5,.22-6.58-2.16a48.07,48.07,0,0,1-3.19-5.64,2.29,2.29,0,0,1,.14-2,66.29,66.29,0,0,1,4.77-6.17A11.29,11.29,0,0,1,7129.58,7258.1Z"
        transform="translate(-6947.09 -6984.58)" />
    <path class="cls-1"
        d="M7097.27,7374.58c.34-5.39,4.43-8.95,8.72-7.27a5.62,5.62,0,0,1,2.24,1.61,15.63,15.63,0,0,1,3.8,10.54,6,6,0,0,1-4.42,5.35,7.17,7.17,0,0,1-7.92-3.63A59,59,0,0,1,7097.27,7374.58Z"
        transform="translate(-6947.09 -6984.58)" />
    <path class="cls-1"
        d="M6981.35,7155c2.1,2.34,3.88,4.23,5.54,6.21,2.72,3.26,2.65,6.18-.19,9.24a23.88,23.88,0,0,1-3.33,3.11,4.06,4.06,0,0,1-5.68-.57,39.89,39.89,0,0,1-2.85-3c-2-2.57-2.19-5.46-.13-8S6979.08,7157.36,6981.35,7155Z"
        transform="translate(-6947.09 -6984.58)" />
    <path class="cls-1"
        d="M7138.07,7247.06c-.66,2.94-3.66,4-6,5.64a3.7,3.7,0,0,1-4.63-.37c-1.36-1.07-2.58-2.29-3.9-3.4a3.81,3.81,0,0,1-.89-5.28,80.83,80.83,0,0,1,6.2-7.89,1.94,1.94,0,0,1,1.88-.23c3.46,2.82,6.4,6.06,7.31,10.66C7138,7246.33,7138,7246.48,7138.07,7247.06Z"
        transform="translate(-6947.09 -6984.58)" />
    <path class="cls-1"
        d="M6971.55,7190.73c-.05-3.22,4.48-9.42,7.17-10.06,1.87-.45,3.19.49,4.2,2,1.21,1.79,2.4,3.6,3.65,5.36,1.05,1.47,1.3,3.15.11,4.38a65.38,65.38,0,0,1-6.91,6.07,2.47,2.47,0,0,1-2.39-.08c-1.95-2-3.72-4.19-5.48-6.36A2.9,2.9,0,0,1,6971.55,7190.73Z"
        transform="translate(-6947.09 -6984.58)" />
    <path class="cls-1"
        d="M6970.31,7326.27a40.53,40.53,0,0,1,2.22-5.24c1.41-2.39,2.73-2.51,4.67-.54,3.74,3.78,5.67,8.46,6.64,13.64.46,2.43.42,4.66-1.85,5.93-1.06.59-3.18.85-3.92.22C6973.88,7336.69,6971.6,7331.9,6970.31,7326.27Z"
        transform="translate(-6947.09 -6984.58)" />
    <path class="cls-1"
        d="M7107.86,7048.06a4,4,0,0,1-3.45-6c2-4,5.48-6.36,9.39-8.05a28.92,28.92,0,0,1,7.46-2,3.42,3.42,0,0,1,2.81,1.72,4.05,4.05,0,0,1-.51,3.53c-3.86,4.26-8.17,8-13.6,10.22A13.78,13.78,0,0,1,7107.86,7048.06Z"
        transform="translate(-6947.09 -6984.58)" />
    <path class="cls-1"
        d="M7183.85,7013.47c-2.7-.69-6-1.5-9.27-2.39a39.8,39.8,0,0,1-4.74-1.56c-1.78-.73-3.1-2.06-3-4.1s1.63-2.83,3.39-3.08a25.34,25.34,0,0,1,18.76,4.88,5,5,0,0,1,1.51,4c-.18,1.76-2,2-3.62,2C7186.08,7013.24,7185.29,7013.34,7183.85,7013.47Z"
        transform="translate(-6947.09 -6984.58)" />
    <path class="cls-1"
        d="M7337.34,7021.94c-.05,2.59-2.08,4.26-4,3.34-4.26-2.05-8.77-3.85-11.7-7.88-.8-1.1-1.4-2.36-2.14-3.51s-1.46-2.57-.25-4c1.69-1.93,4.16-3,5.7-2.07a21.73,21.73,0,0,1,5,4c2.46,2.8,4.64,5.85,6.9,8.83A3.81,3.81,0,0,1,7337.34,7021.94Z"
        transform="translate(-6947.09 -6984.58)" />
    <path class="cls-1"
        d="M7394.91,7154.54a12.64,12.64,0,0,1,1.13-2.77,47.75,47.75,0,0,1,3.47-4.44c1.67-2,3.34-2.16,5.13-.24a66.5,66.5,0,0,1,4.82,6.12,3.63,3.63,0,0,1-.26,4.8,56.44,56.44,0,0,1-4.26,4.62,3.32,3.32,0,0,1-2.16.77C7399.63,7163.39,7394.94,7158.42,7394.91,7154.54Z"
        transform="translate(-6947.09 -6984.58)" />
    <path class="cls-1"
        d="M7410.3,7128.3c0,3.44-4.51,8-7.33,8.59a1.72,1.72,0,0,1-.64,0c-3-.58-6.94-5.21-6.89-8.23a5.6,5.6,0,0,1,.91-3c1.7-2.33,3.57-4.55,5.49-6.71a1.8,1.8,0,0,1,1.74.06c2.16,2.54,4.23,5.15,6.24,7.8A3.73,3.73,0,0,1,7410.3,7128.3Z"
        transform="translate(-6947.09 -6984.58)" />
    <path class="cls-1"
        d="M7102.35,7092.74c-6.45,4.79-12.88,9.6-19.36,14.35-1.24.91-2.45,1.65-2.74,3.4a6.07,6.07,0,0,1-1.46,2.64c-3.39,4.06-6.78,8.14-10.32,12.07-1.92,2.14-4.29,2.18-5.59.35a4.05,4.05,0,0,1,.3-5.07,35.73,35.73,0,0,1,15.91-12,9.35,9.35,0,0,0,2.23-1.24c4.41-3.3,8.78-6.65,13.18-9.95,2.4-1.8,4.84-3.55,7.26-5.32Z"
        transform="translate(-6947.09 -6984.58)" />
    <path class="cls-1"
        d="M6995.25,7329.21a13.43,13.43,0,0,1,6.35-9.37c2-1.31,6-.69,7.61,1.11a2.5,2.5,0,0,1,.44,2.13,52.1,52.1,0,0,1-4.09,8.75,10.41,10.41,0,0,1-4.73,3.5C6998.21,7336.4,6995.15,7333.38,6995.25,7329.21Z"
        transform="translate(-6947.09 -6984.58)" />
    <path class="cls-1"
        d="M6970.31,7270.86c-.72,2.26-1.34,4.78-2.32,7.15-1.15,2.8-4.12,3.26-6.39,1.3-4.94-4.26-2.35-13.18,1-15.73,2.16-1.64,5.42-.55,6.57,2.31A32.56,32.56,0,0,1,6970.31,7270.86Z"
        transform="translate(-6947.09 -6984.58)" />
    <path class="cls-1"
        d="M6992.75,7251.35c.23-2.29.74-5.07,3.52-6.68a6.31,6.31,0,0,1,6.91.56,7.54,7.54,0,0,1,2.23,7.72,7.82,7.82,0,0,1-4.51,5C6996.22,7259.74,6992.8,7257.16,6992.75,7251.35Z"
        transform="translate(-6947.09 -6984.58)" />
    <path class="cls-1"
        d="M7230.93,7026.46c5.26-.61,11.42,5.76,12.24,9.45.22,1-.21,2.83-.92,3.22-1.33.72-3.37,1.34-4.61.81a23.66,23.66,0,0,1-10.35-7.92,4.27,4.27,0,0,1-.09-3.77c.63-1.07,2.21-1.57,3.38-2.32Z"
        transform="translate(-6947.09 -6984.58)" />
    <path class="cls-1"
        d="M7397.06,7051.58a8.16,8.16,0,0,1,8.21,8.34c.07,3.8-2.84,6.19-6.46,5.1-3-.91-5.74-2.43-7.14-5.51A5.43,5.43,0,0,1,7397.06,7051.58Z"
        transform="translate(-6947.09 -6984.58)" />
    <path class="cls-1"
        d="M6972.38,7246.47a11.14,11.14,0,0,1,5.52-8.71,3.44,3.44,0,0,1,3,.25,5.34,5.34,0,0,1,1.92,2.53c1.28,3.17-1.71,9.86-4.89,11.19C6975,7252.93,6972.43,7250.75,6972.38,7246.47Z"
        transform="translate(-6947.09 -6984.58)" />
    <path class="cls-1"
        d="M6968.59,7234.77c-.8,1.88-1.46,3.84-2.43,5.62a31.47,31.47,0,0,1-3.53,5.17,3.29,3.29,0,0,1-2.57,1,2.79,2.79,0,0,1-1.6-2c-.67-5,1.21-9.19,4.32-13a4,4,0,0,1,1.29-.78c2.7-1.35,3.87-.66,4,2.39,0,.43,0,.87,0,1.3Z"
        transform="translate(-6947.09 -6984.58)" />
    <path class="cls-1"
        d="M7075.57,7046.51a6.12,6.12,0,0,1,3-5.28,11.65,11.65,0,0,1,8.71-1.89c2.35.36,3.06,2,1.41,3.68-2.48,2.47-5.06,5.08-8.09,6.67S7075.25,7049.81,7075.57,7046.51Z"
        transform="translate(-6947.09 -6984.58)" />
    <path class="cls-1"
        d="M6963.62,7298.44a49.33,49.33,0,0,1-2.45,7.05c-1.19,2.28-2.94,2.29-4.42.22-2.2-3.08-3.24-6.47-1.85-10.21.62-1.68,1.48-3.24,3.65-3.13a4.38,4.38,0,0,1,4.29,3.36,21.75,21.75,0,0,1,.44,2.54Z"
        transform="translate(-6947.09 -6984.58)" />
    <path class="cls-1"
        d="M6955.2,7332.74a23.68,23.68,0,0,1-.5,3.72c-.65,2.07-3.86,2.79-5.1,1a13.13,13.13,0,0,1-2.34-5.2,28.1,28.1,0,0,1,.14-6.91c.2-2.24,1.82-3.07,3.65-1.71a9.12,9.12,0,0,1,2.83,3.67A30.78,30.78,0,0,1,6955.2,7332.74Z"
        transform="translate(-6947.09 -6984.58)" />
    <path class="cls-1"
        d="M7128,7292.23a5.23,5.23,0,0,1-4.91-4.88c0-2,3-4.94,4.88-4.9,1.48,0,4.54,3.83,4.54,5.63A4.54,4.54,0,0,1,7128,7292.23Z"
        transform="translate(-6947.09 -6984.58)" />
    <path class="cls-1"
        d="M7002.29,7367.33c-.13.21-.41,1.22-1,1.49a2.91,2.91,0,0,1-2.32-.37c-3-1.92-5.18-4.48-5.06-8.3,0-.85.34-2.14.91-2.41a3.51,3.51,0,0,1,2.82.24C7000,7359.29,7002.34,7363.86,7002.29,7367.33Z"
        transform="translate(-6947.09 -6984.58)" />
    <path class="cls-1"
        d="M7150,6999.23a22.45,22.45,0,0,1-1.31,3.3c-1.54,2.6-3.58,4.75-6.57,5.61a3.26,3.26,0,0,1-2.59-.49c-.37-.31-.17-1.62.11-2.35C7141,7001.67,7145.52,6998.91,7150,6999.23Z"
        transform="translate(-6947.09 -6984.58)" />
    <path class="cls-1"
        d="M7215.8,7275.58a3.5,3.5,0,0,1-3.36-3.53,3.69,3.69,0,0,1,3.7-3.94c2.63,0,4.33,1.36,4.34,3.5C7220.49,7274,7218.62,7275.59,7215.8,7275.58Z"
        transform="translate(-6947.09 -6984.58)" />
    <path class="cls-1"
        d="M7050.57,7266.84c.5-.91,1.24-2.47,2.19-3.88.27-.4,1.17-.55,1.77-.52a10.59,10.59,0,0,1,3.38.55,6.26,6.26,0,0,1,2.34,1.88c.12.14-.74,1.41-1.37,1.76a60.7,60.7,0,0,1-5.81,2.79C7051.36,7270.15,7050.53,7269.49,7050.57,7266.84Z"
        transform="translate(-6947.09 -6984.58)" />
    <path class="cls-1"
        d="M7188,6994.25c8.05.74,15.85.59,23.08-4a16.3,16.3,0,0,1-2.35,2c-5.3,3-11.14,3.48-17.06,3.34a27.84,27.84,0,0,1-7.54-.85,23.71,23.71,0,0,1-7.41-3.77c-2.5-1.93-1.27-5.36,2-6.35,0,.13.05.31,0,.38-3.19,3.23-3.12,5.18.92,7.1,2.16,1,4.86.93,7.33,1.22.75.09,1.54-.26,2.46-.12Z"
        transform="translate(-6947.09 -6984.58)" />
    <path class="cls-1"
        d="M7078.35,7312c-.09,2.56-1.16,3.84-3.16,3.78a4.16,4.16,0,0,1-3.84-4.39c.09-1.89,2.62-4.28,4.4-4.15C7077.13,7307.33,7078.44,7309.72,7078.35,7312Z"
        transform="translate(-6947.09 -6984.58)" />
    <path class="cls-1"
        d="M7202.49,7019.91c.16-.24.5-1.3,1.1-1.47,1.2-.35,2.77-.68,3.77-.18,1.35.68,2.32,2.13,3.39,3.31a1,1,0,0,1-.22,1,17.31,17.31,0,0,1-4.11,2.48C7204.32,7025.68,7202.54,7023.5,7202.49,7019.91Z"
        transform="translate(-6947.09 -6984.58)" />
    <path class="cls-1"
        d="M7216.69,7016.59c-4.25-.26-6.28-2.72-8.15-5.33-.1-.14.74-1.37,1.08-1.35,2.89.23,5.82.63,8,2.81a3.16,3.16,0,0,1,.84,2.58C7218.21,7016,7217,7016.37,7216.69,7016.59Z"
        transform="translate(-6947.09 -6984.58)" />
    <path class="cls-1"
        d="M7176.77,7087.05c0,2-1.33,3.61-3,3.59a3.76,3.76,0,0,1-3.68-4,3.05,3.05,0,0,1,3-3.27A4.11,4.11,0,0,1,7176.77,7087.05Z"
        transform="translate(-6947.09 -6984.58)" />
    <path class="cls-1"
        d="M7067.35,7036.29c10-6.48,21.65-7.71,32.68-10.93l.23.69c-2.66.8-5.29,1.68-8,2.38-2.88.75-5.82,1.23-8.68,2s-5.53,1.74-8.25,2.72S7070,7035.24,7067.35,7036.29Z"
        transform="translate(-6947.09 -6984.58)" />
    <path class="cls-1" d="M7168.25,6987,7157.94,7002c-.22-2.07,6.13-11.77,9.85-15.28Z"
        transform="translate(-6947.09 -6984.58)" />
    <path class="cls-1"
        d="M7274,7271.14c1,1,2.05,1.66,2,2.11-.35,1.88-2.14,1.91-3.57,2-.54,0-1.14-.9-1.71-1.39Z"
        transform="translate(-6947.09 -6984.58)" />
    <path class="cls-1"
        d="M7069,7263.53c.38.31,1,.6,1.23,1.08.12.32-.35,1-.71,1.35a2,2,0,0,1-1.28.72,23,23,0,0,1-3-.67,18.62,18.62,0,0,1,1.89-1.88A6.89,6.89,0,0,1,7069,7263.53Z"
        transform="translate(-6947.09 -6984.58)" />
    <path class="cls-1" d="M7151.75,7002.43l7-10.08.66.46-7,10.08Z"
        transform="translate(-6947.09 -6984.58)" />
    <path class="cls-1"
        d="M7320.77,7131.77c-3,3-5.56,5.77-7.15,9.23a4.07,4.07,0,0,0,1.19,5.08c1.48,1.29,2.87,2.67,4.29,4a2.71,2.71,0,0,0,3.76.26,29.47,29.47,0,0,0,4.07-3.58c1.8-1.91,2.18-5.6.55-7.67C7325.5,7136.58,7323.15,7134.33,7320.77,7131.77Zm-1.61-21.29a4.3,4.3,0,0,0-1.45.91c-1.42,1.81-2.8,3.67-4,5.61q-2.35,3.69.86,6.63a64.33,64.33,0,0,0,5.09,4.07,2,2,0,0,0,1.57.29,11.67,11.67,0,0,0,6.68-6.74C7329.05,7118.55,7322.59,7110.53,7319.16,7110.48Z"
        transform="translate(-6947.09 -6984.58)" />
    <path class="cls-1"
        d="M7320.77,7131.77c2.38,2.56,4.73,4.81,6.71,7.33,1.63,2.07,1.25,5.76-.55,7.67a29.47,29.47,0,0,1-4.07,3.58,2.71,2.71,0,0,1-3.76-.26c-1.42-1.34-2.81-2.72-4.29-4a4.07,4.07,0,0,1-1.19-5.08C7315.21,7137.54,7317.74,7134.77,7320.77,7131.77Z"
        transform="translate(-6947.09 -6984.58)" />
    <path class="cls-1"
        d="M7319.16,7110.48c3.43.05,9.89,8.07,8.71,10.77a11.67,11.67,0,0,1-6.68,6.74,2,2,0,0,1-1.57-.29,64.33,64.33,0,0,1-5.09-4.07q-3.21-2.94-.86-6.63c1.24-1.94,2.62-3.8,4-5.61A4.3,4.3,0,0,1,7319.16,7110.48Z"
        transform="translate(-6947.09 -6984.58)" />
</svg>