<svg id="Layer_1" data-name="Layer 1" xmlns="http://www.w3.org/2000/svg" viewBox="0 0 111.86 107.76">
    <defs>
        <style>.cls-1{fill:#25d366;}</style>
    </defs>
    <path class="cls-1"
        d="M187.78,238h-1.71c0,.27,0,.52,0,.78a.7.7,0,0,1-.76.75q-1.8,0-3.6,0c-.42,0-.55-.15-.72-.75h-1.81v.44c0,3,0,3.46,0,6.48,0,.15,0,.31,0,.46a.61.61,0,0,1-.61.62.65.65,0,0,1-.64-.64c0-.65,0-1.29,0-1.94,0-2.75,0-2.92,0-5.67,0-.76.32-1.09,1.07-1.09H181v-.65a.63.63,0,0,1,.66-.7c1.24,0,2.48,0,3.72,0a.91.91,0,0,1,.58.36.5.5,0,0,0,.47.24h1.67a.83.83,0,0,1,.9.77,4.9,4.9,0,0,1,.06.77q0,6.24,0,12.47v.08c0,.47-.27.79-.66.79s-.64-.32-.64-.81v-2q0-5.17,0-10.34A3.24,3.24,0,0,1,187.78,238Zm-5.41.19h2.36v-.77h-2.36Z"
        transform="translate(-83.58 -196.12)" />
    <path class="cls-1"
        d="M185.1,241.79h1.2a.65.65,0,0,1,.7.62.64.64,0,0,1-.65.63c-.86,0-1.73,0-2.59,0a.62.62,0,0,1-.62-.65.6.6,0,0,1,.64-.58h1.32Z"
        transform="translate(-83.58 -196.12)" />
    <path class="cls-1"
        d="M185,249h-1.24a.63.63,0,0,1-.69-.66c0-.36.28-.58.71-.58h2.47c.45,0,.73.23.73.61s-.29.63-.75.64H185Z"
        transform="translate(-83.58 -196.12)" />
    <path class="cls-1"
        d="M185,244.76h1.27a.64.64,0,0,1,.69.59.62.62,0,0,1-.63.65c-.89,0-1.77,0-2.66,0a.59.59,0,0,1-.59-.67.6.6,0,0,1,.65-.57Z"
        transform="translate(-83.58 -196.12)" />
    <path class="cls-1"
        d="M180.91,247.75l.75-.69a.54.54,0,0,1,.79,0,.55.55,0,0,1,.05.85c-.33.38-.66.75-1,1.12a.58.58,0,0,1-1,0,5,5,0,0,1-.46-.46.57.57,0,0,1,0-.83c.24-.3.51-.24.78-.06A.24.24,0,0,0,180.91,247.75Z"
        transform="translate(-83.58 -196.12)" />
    <path class="cls-1"
        d="M181,241.92c.25-.25.46-.49.7-.7a.57.57,0,0,1,.83,0,.56.56,0,0,1,0,.83c-.34.39-.69.77-1.05,1.13a.56.56,0,0,1-.93,0c-.14-.13-.29-.26-.42-.4A.58.58,0,0,1,180,242a.55.55,0,0,1,.82-.1A.58.58,0,0,1,181,241.92Z"
        transform="translate(-83.58 -196.12)" />
    <path class="cls-1"
        d="M182.69,244.56a2.24,2.24,0,0,1-.2.41c-.37.41-.74.82-1.14,1.2s-.52.28-.84,0a5,5,0,0,1-.51-.52.54.54,0,0,1,0-.77.51.51,0,0,1,.72-.11c.2.14.31.08.45-.08a2.33,2.33,0,0,1,.53-.51.79.79,0,0,1,.59-.1C182.45,244.15,182.56,244.39,182.69,244.56Z"
        transform="translate(-83.58 -196.12)" />
    <path class="cls-1"
        d="M117.66,218.54l-.65.05a1.92,1.92,0,0,0-1.92,1.87,2.53,2.53,0,0,0,.7,1.2c.44.52.19.86-.2,1.21s-.72.78-1.38.32a1.69,1.69,0,0,0-2.87,1.13.68.68,0,0,1-.86.65c-.42-.06-1.13-.16-1.18-.38-.22-.87-.41-1.59-1.46-1.81-.73-.16-.71-.25-2.26.77-.22-.19-.44-.4-.69-.59-.6-.47-.68-1-.09-1.51.91-.75.29-1.46,0-2.22s-.86-.62-1.42-.65l-.75-.05c-.05-.39-.09-.76-.14-1.13-.1-.78.28-1.2,1-1.13,1.12.11,1.22-.78,1.62-1.44s-.19-.93-.46-1.3c-.72-1-.7-1.09.81-2.21a2.73,2.73,0,0,1,.71.44c.81.9,1.63.31,2.43,0,.16-.06.29-.33.34-.53.38-1.48.37-1.48,2.08-1.28a7.15,7.15,0,0,1,.21.7c.33,1.52,1.59,2,2.81,1.06.6-.48,1-.27,1.37.16.24.25.47.52.73.81a4.15,4.15,0,0,1-.55.71,1.27,1.27,0,0,0-.27,1.9c.27.44.42.86,1.06.92,1.4.13,1.42.2,1.3,1.64A4.79,4.79,0,0,1,117.66,218.54Zm-7.44-4.64a3.46,3.46,0,0,0-3.49,3.55,3.58,3.58,0,0,0,3.42,3.57,3.8,3.8,0,0,0,3.62-3.66A3.63,3.63,0,0,0,110.22,213.9Z"
        transform="translate(-83.58 -196.12)" />
    <path class="cls-1"
        d="M177.88,216.72A7.75,7.75,0,1,1,170.3,209,7.66,7.66,0,0,1,177.88,216.72Zm-9.66,1c-.57-.65-1-1.18-1.47-1.64a1,1,0,0,0-1.49,0,1,1,0,0,0-.07,1.54c.79.83,1.6,1.65,2.43,2.43a.9.9,0,0,0,1.43,0c.37-.35.7-.73,1.06-1.09,1.46-1.46,2.94-2.9,4.39-4.37a1.07,1.07,0,0,0,0-1.58,1.18,1.18,0,0,0-1.67-.08,8.21,8.21,0,0,0-.6.58C171,214.89,169.67,216.25,168.22,217.76Z"
        transform="translate(-83.58 -196.12)" />
    <path class="cls-1"
        d="M155.59,229.78c0-1.27,0-2.32,0-3.37s.43-1.76,1.66-1.71a33.47,33.47,0,0,0,3.47,0c1.11-.07,1.42.45,1.41,1.45,0,2.44,0,4.89,0,7.33a3.23,3.23,0,0,0,1.46,2.9c2.19,1.65,4.29,3.41,6.4,5.17a4.26,4.26,0,0,1,1.23,1.45,1.88,1.88,0,0,1-.62,2.31,2,2,0,0,1-2.5.22c-1.35-1-2.62-2.06-3.91-3.12q-11.4-9.32-22.79-18.63c-1.4-1.15-1.78-1.2-3.21,0q-12.06,10-24.09,20.1a15.3,15.3,0,0,1-2,1.56,2.28,2.28,0,0,1-2.91-.46,2.17,2.17,0,0,1,.32-3c1.26-1.15,2.62-2.2,3.94-3.3l24-19.84c2-1.65,2.93-1.58,4.94.1,4,3.35,8.05,6.67,12.09,10C154.71,229.19,155.07,229.41,155.59,229.78Z"
        transform="translate(-83.58 -196.12)" />
    <path class="cls-1"
        d="M138.54,295.63c-3.3-.22-5.84-.28-8.34-.58a2.2,2.2,0,0,1-2.15-2.75c.19-1.26,1.18-1.9,2.82-1.76a68,68,0,0,0,18.19-.65c14.83-2.71,27.15-9.89,37.4-20.82a8.14,8.14,0,0,1,1.21-1.14,2,2,0,0,1,2.89.29,2.06,2.06,0,0,1,0,3,73,73,0,0,1-13.3,12.07,67.34,67.34,0,0,1-26.86,11.06C146.25,295.09,142,295.28,138.54,295.63Z"
        transform="translate(-83.58 -196.12)" />
    <path class="cls-1"
        d="M142.34,266.81c-12.21-.05-21.32-2.14-29.67-7.12a9.25,9.25,0,0,1-1.93-1.46,2,2,0,0,1-.19-2.9,2.32,2.32,0,0,1,3-.73c2.68,1.34,5.24,3,8,4q22.54,8.55,43.47-3.58c.26-.15.52-.31.78-.44a2.49,2.49,0,0,1,3.3.73,2.23,2.23,0,0,1-.83,3.32,53.11,53.11,0,0,1-5.95,3.29C155.17,265.19,147.68,267,142.34,266.81Z"
        transform="translate(-83.58 -196.12)" />
    <path class="cls-1"
        d="M139,303.88a61.65,61.65,0,0,1-23.27-4.72,6,6,0,0,1-.93-.43,2.14,2.14,0,0,1-1.06-2.72,2,2,0,0,1,2.63-.94c1.59.49,3.16,1.06,4.76,1.54,18.1,5.45,35.2,3,51.39-6.53.4-.24.88-.6,1.27-.54a2.59,2.59,0,0,1,1.69.81,2.06,2.06,0,0,1-.09,1.84,6.1,6.1,0,0,1-1.87,1.52,63.49,63.49,0,0,1-25.19,9.39C145.29,303.56,142.15,303.64,139,303.88Z"
        transform="translate(-83.58 -196.12)" />
    <path class="cls-1"
        d="M135.51,274.29c-14.71-.93-27.68-6-38.4-16.28a8.39,8.39,0,0,1-1.19-1.34,2.32,2.32,0,0,1,3.46-3.07c2.17,1.81,4.25,3.74,6.5,5.44a53.15,53.15,0,0,0,23.1,9.7c2.23.39,4.5.56,6.75.78,1.67.17,2.83,1.24,2.73,2.64S137.22,274.38,135.51,274.29Z"
        transform="translate(-83.58 -196.12)" />
    <path class="cls-1"
        d="M90.21,267.27a16.25,16.25,0,0,1,2,1.61A71.39,71.39,0,0,0,103.3,279a70,70,0,0,0,15.48,8.26c.4.16.8.3,1.19.48,1.46.68,2,1.74,1.54,2.95A2.41,2.41,0,0,1,118.3,292c-2-.73-4.08-1.53-6.06-2.43A67.43,67.43,0,0,1,88.65,271.9c-1.43-1.68-1.45-3.1,0-4A10.58,10.58,0,0,1,90.21,267.27Z"
        transform="translate(-83.58 -196.12)" />
    <path class="cls-1"
        d="M195.44,255.13a17.32,17.32,0,0,1-1,1.8,68.38,68.38,0,0,1-16.77,15.19c-1.64,1.09-3.26.75-4-.64-.6-1.19-.21-2.31,1.13-3.28a78.25,78.25,0,0,0,6.7-4.95c2.92-2.63,5.59-5.53,8.36-8.32.45-.46.86-1,1.31-1.41a1.85,1.85,0,0,1,2.45-.42A11,11,0,0,1,195.44,255.13Z"
        transform="translate(-83.58 -196.12)" />
    <path class="cls-1"
        d="M145.18,277.16a2.86,2.86,0,0,1-2.57-2.32,2.28,2.28,0,0,1,2-2.55c4.18-.87,8.38-1.66,12.53-2.63,1.74-.4,3.37-1.23,5.08-1.77a2.29,2.29,0,0,1,3,1.67c.28,1.2-.26,2.21-1.72,2.77a63.24,63.24,0,0,1-6.9,2.39C152.81,275.67,149,276.36,145.18,277.16Z"
        transform="translate(-83.58 -196.12)" />
    <path class="cls-1"
        d="M99.17,266.34c-.53.68-.88,1.55-1.51,1.82a3,3,0,0,1-2.38,0,12.75,12.75,0,0,1-3-2.45q-4-4.25-7.88-8.61a2.37,2.37,0,0,1-.56-2.94c1-1.64,2.64-1.73,4-.2,2.27,2.5,4.5,5.05,6.8,7.53,1,1.1,2.18,2.06,3.23,3.13A15.44,15.44,0,0,1,99.17,266.34Z"
        transform="translate(-83.58 -196.12)" />
    <path class="cls-1"
        d="M183.49,255.16a12.49,12.49,0,0,1-1.11,2,56.11,56.11,0,0,1-10.69,8.8c-2.2,1.5-4,.06-4.18-1.45-.16-1.29.71-1.93,1.56-2.6,2.59-2,5.19-4.07,7.76-6.13.9-.72,1.71-1.56,2.58-2.32a1.82,1.82,0,0,1,2.37-.27A12.6,12.6,0,0,1,183.49,255.16Z"
        transform="translate(-83.58 -196.12)" />
    <path class="cls-1"
        d="M107.59,291.74c0,1.5-1.13,2.37-2.09,1.74q-3.73-2.46-7.29-5.18a1.59,1.59,0,0,1-.25-2.49c.77-.83,1.51-.36,2.25.19,2,1.5,4.1,2.93,6.11,4.44A10,10,0,0,1,107.59,291.74Z"
        transform="translate(-83.58 -196.12)" />
    <path class="cls-1"
        d="M157.84,243.53a5.28,5.28,0,0,1,4,4.79c0,.94,0,1.88-.05,2.82a2,2,0,0,1-1.89,1.91,1.65,1.65,0,0,1-2-1.36C157.73,249,157.84,246.28,157.84,243.53Z"
        transform="translate(-83.58 -196.12)" />
    <path class="cls-1"
        d="M122,248.06c0,1,0,2,0,2.95a1.8,1.8,0,0,1-1.68,2.05,1.87,1.87,0,0,1-2.26-1.44,10.55,10.55,0,0,1,0-4.91c.44-1.18,2-1.94,3.11-2.89.26.3.71.59.74.91.1,1.1,0,2.22,0,3.33Z"
        transform="translate(-83.58 -196.12)" />
    <path class="cls-1"
        d="M139.1,256.22c-3.33-4.24-6.23-8.15-7.38-13a7.07,7.07,0,0,1,2.95-7.65,7.19,7.19,0,0,1,8.09-.23,7.41,7.41,0,0,1,3.4,7.5,17.91,17.91,0,0,1-1.81,5C142.81,250.63,141,253.26,139.1,256.22Zm-.3-10.67a3.34,3.34,0,0,0,3.17-3.09,3.06,3.06,0,0,0-6.12,0A3.15,3.15,0,0,0,138.8,245.55Z"
        transform="translate(-83.58 -196.12)" />
    <path class="cls-1"
        d="M144.51,285.62c-14.72.73-28.17-2.82-40-11.86a8.44,8.44,0,0,1-1.33-1.2,2.33,2.33,0,0,1,3.09-3.45c2.36,1.55,4.64,3.24,7.07,4.67a53,53,0,0,0,24,7c2.26.14,4.53.05,6.8,0,1.68,0,2.95.92,3,2.32S146.22,285.51,144.51,285.62Z"
        transform="translate(-83.58 -196.12)" />
    <path class="cls-1"
        d="M164.3,276.44c1.32.71,1.48,2.18.45,2.68q-4,2-8.15,3.68a1.6,1.6,0,0,1-2.28-1c-.33-1.08.45-1.49,1.3-1.85,2.31-1,4.59-2.06,6.91-3A9.82,9.82,0,0,1,164.3,276.44Z"
        transform="translate(-83.58 -196.12)" />
    <path class="cls-1"
        d="M137.74,197.27l-.93.34a5.67,5.67,0,0,0-2.53,1.87l-.63.83a.18.18,0,0,1-.26-.08,3,3,0,0,1,.58-3.5,2.79,2.79,0,0,1,3.75.25A.19.19,0,0,1,137.74,197.27Z"
        transform="translate(-83.58 -196.12)" />
    <path class="cls-1"
        d="M146.22,201.69c-.9-.66-1.69-1.26-2.49-1.83a6.23,6.23,0,0,0-7.38.42,6.7,6.7,0,0,0-2.52,7.1,6.53,6.53,0,0,0,4.66,4.89,6.29,6.29,0,0,0,6.41-1.49,7.35,7.35,0,0,0,.72-.85.64.64,0,0,1,1,.75,7.09,7.09,0,0,1-3.5,2.75,8.13,8.13,0,0,1-10.83-6.6,8.59,8.59,0,0,1,5.88-9.11,7.64,7.64,0,0,1,4-.1.65.65,0,0,0,.7-.18,2.64,2.64,0,0,1,3.37-.21,2.44,2.44,0,0,1,.74,3.09A9.11,9.11,0,0,1,146.22,201.69Z"
        transform="translate(-83.58 -196.12)" />
    <path class="cls-1"
        d="M143.68,206.07c-.37,0-.75,0-1.12,0a1.56,1.56,0,0,0-1.38.45,1.06,1.06,0,0,1-1.56-.16,1,1,0,0,1,.1-1.48.91.91,0,0,1,1.48,0,1.4,1.4,0,0,0,1.05.39l2.71,0a1.39,1.39,0,0,1,.58,0c.18.09.31.31.46.47-.15.13-.3.35-.46.37C144.92,206.1,144.3,206.07,143.68,206.07Z"
        transform="translate(-83.58 -196.12)" />
    <path class="cls-1"
        d="M144.25,210.29a.62.62,0,0,1-.65.68.67.67,0,0,1-.71-.69.68.68,0,0,1,1.36,0Z"
        transform="translate(-83.58 -196.12)" />
    <path class="cls-1"
        d="M139.17,210.64a.62.62,0,0,1-.65.68.67.67,0,0,1-.71-.69.63.63,0,0,1,.67-.65A.64.64,0,0,1,139.17,210.64Z"
        transform="translate(-83.58 -196.12)" />
    <path class="cls-1"
        d="M141.15,200a.62.62,0,0,1-.65.68.67.67,0,0,1-.71-.69.63.63,0,0,1,.67-.65A.64.64,0,0,1,141.15,200Z"
        transform="translate(-83.58 -196.12)" />
    <path class="cls-1"
        d="M138.49,201.27a.62.62,0,0,1-.65.68.67.67,0,0,1-.71-.69.63.63,0,0,1,.67-.65A.64.64,0,0,1,138.49,201.27Z"
        transform="translate(-83.58 -196.12)" />
    <path class="cls-1"
        d="M136.11,206.31a.62.62,0,0,1-.65.68.67.67,0,0,1-.71-.69.68.68,0,0,1,1.36,0Z"
        transform="translate(-83.58 -196.12)" />
    <path class="cls-1"
        d="M136.51,203.46a.62.62,0,0,1-.65.68.67.67,0,0,1-.71-.69.63.63,0,0,1,.67-.65A.64.64,0,0,1,136.51,203.46Z"
        transform="translate(-83.58 -196.12)" />
    <path class="cls-1" d="M141.7,211a.62.62,0,0,1-.65.68.67.67,0,0,1-.71-.69.68.68,0,0,1,1.36,0Z"
        transform="translate(-83.58 -196.12)" />
    <path class="cls-1"
        d="M137.19,208.94a.62.62,0,0,1-.65.68.67.67,0,0,1-.71-.69.63.63,0,0,1,.67-.65A.64.64,0,0,1,137.19,208.94Z"
        transform="translate(-83.58 -196.12)" />
    <path class="cls-1"
        d="M104.62,238.79a2.39,2.39,0,0,0-2.49-2.43v2.13c0,.66-.29,1.14-1,1.15s-1-.49-1-1.14v-2c-1.71-.43-1.8-.36-1.8,1.16v.81c0,.68-.22,1.22-1,1.21s-.93-.55-1-1.17,0-1.37,0-2.12c-1.73,0-2.6.65-2.66,2.35-.1,2.82-.11,5.65,0,8.47a2.73,2.73,0,0,0,3,2.81c1.74,0,3.48,0,5.23,0a2.53,2.53,0,0,0,2.69-2.57C104.66,244.56,104.66,241.67,104.62,238.79Zm-1.49,3.72L101,244.82l-2.53,2.7a1,1,0,0,1-1.57.08A16.88,16.88,0,0,1,95,245.48a1.18,1.18,0,0,1,.09-1.16,1.23,1.23,0,0,1,1.15-.16,8.21,8.21,0,0,1,1.45,1.24l3.56-3.75c.19-.2.36-.51.58-.54a2.14,2.14,0,0,1,1.36.07C103.62,241.49,103.55,242.06,103.13,242.51Z"
        transform="translate(-83.58 -196.12)" />
</svg>