<?xml version="1.0" encoding="utf-8"?>
<svg version="1.1" id="Layer_1" xmlns="http://www.w3.org/2000/svg" xmlns:xlink="http://www.w3.org/1999/xlink" x="0px" y="0px"
	 viewBox="0 0 500 500" style="enable-background:new 0 0 500 500;" xml:space="preserve">
<style type="text/css">
	.st0{fill:#6DBD90;}
</style>
<g>
	<g>
		<path class="st0" d="M331.1,269.7c0-7.6,0-14.9,0-22.2c2.1,0,4.2,0,6.4,0c0,11.3,0,22.6,0,34.1c-1.7,0-3.4,0.1-5-0.1
			c-0.5,0-1-0.7-1.4-1.2c-5.1-6.8-10.3-13.5-15.4-20.3c-0.2-0.3-0.5-0.6-1-1.2c0,7.7,0,15.1,0,22.6c-2.3,0-4.4,0-6.6,0
			c0-11.3,0-22.6,0-34.1c1.9,0,3.7-0.1,5.5,0c0.4,0,0.9,0.5,1.1,0.9c5.2,6.8,10.4,13.7,15.6,20.6
			C330.6,269.1,330.8,269.2,331.1,269.7z"/>
		<path class="st0" d="M206.1,264.5c0.1-10.4,7.7-17.9,18.2-17.8c10.2,0.1,17.5,7.8,17.4,18.3c-0.1,9.9-7.8,17.3-17.9,17.2
			C213.4,282.1,206,274.7,206.1,264.5z M223.8,276.1c6.2,0.1,11-4.7,11.1-11.4c0.1-6.8-4.4-11.8-10.8-11.9
			c-6.3-0.1-11.1,4.7-11.2,11.2C212.7,271,217.3,276,223.8,276.1z"/>
		<path class="st0" d="M370.1,270.5c-6.6,0-12.9,0-19.3,0c0.8,6.3,8.9,8.3,14.4,3.6c1.1,1.2,2.2,2.4,3.4,3.6c-2,2.1-4.6,3.4-7.6,4
			c-5.8,1.1-11.3-1-14.5-5.6c-3.1-4.5-2.9-11.4,0.5-15.9c3.3-4.4,9.2-6.4,14.6-4.5c4.9,1.7,7.5,5.4,8.3,10.4
			C370,267.5,370,268.9,370.1,270.5z M363.6,266.3c-0.3-3.4-3-5.9-6.3-5.9c-3.2,0-6.2,2.7-6.5,5.9
			C355,266.3,359.3,266.3,363.6,266.3z"/>
		<path class="st0" d="M282.8,270.5c0.7,6,8.3,8.8,14.5,3.6c1.2,1.1,2.3,2.1,3.6,3.3c-2.2,2.3-4.6,3.9-7.6,4.4c-6,1-11-0.3-14.7-5.5
			c-3.6-5.1-2.8-13.1,1.8-17.6c4.6-4.4,12-4.8,16.9-0.9c3.3,2.7,4.5,6.3,4.7,10.4c0,0.7,0,1.4,0,2.2
			C295.7,270.5,289.3,270.5,282.8,270.5z M295.6,266.3c-0.6-3.8-3.4-6.2-6.7-6c-3.1,0.2-6,3-6.1,6
			C287.1,266.3,291.3,266.3,295.6,266.3z"/>
		<path class="st0" d="M254,281.5c-2.2,0-4.3,0-6.4,0c0-8.6,0-17.1,0-25.8c2,0,4,0,6.1,0c0.1,1,0.1,2,0.2,3.3c1.7-2,3.4-3.2,5.7-3.6
			c5.7-1.1,10.6,2.2,11,7.9c0.4,6,0.1,12.1,0.1,18.2c-2.1,0-4.1,0-6.4,0c0-0.4,0-0.9,0-1.3c0-4.3,0-8.6,0-12.9
			c0-0.8-0.1-1.6-0.3-2.4c-0.7-2.7-2.8-4.1-5.5-3.8c-2.5,0.3-4.5,2.4-4.5,5c0,4.7,0,9.4,0,14.1C254,280.6,254,281,254,281.5z"/>
		<path class="st0" d="M394.6,258.6c-1,1.5-1.9,2.9-2.8,4.1c-1.9-0.8-3.7-1.5-5.6-2.1c-0.8-0.3-1.7-0.2-2.5-0.2
			c-1.6,0-2.7,0.8-2.9,1.9c-0.2,1.2,0.4,2,2.1,2.6c1.7,0.5,3.4,0.9,5.1,1.4c1,0.3,2,0.7,3,1.1c4.9,2.6,5.5,8.9,1.2,12.4
			c-1.8,1.5-3.9,2.1-6.2,2.2c-4.2,0.2-8.1-0.8-11.6-3.1c-0.4-0.3-0.8-0.6-1.2-1c1-1.5,2-3,3-4.4c1,0.6,2,1.2,3,1.8
			c2.2,1.1,4.6,1.8,7.1,1.4c1.7-0.3,2.6-1.1,2.7-2.1c0.1-1.1-0.7-2.1-2.3-2.6c-1.9-0.7-3.9-1.2-5.9-1.9c-0.9-0.3-1.8-0.7-2.6-1.1
			c-5.4-2.5-4.4-9.5-0.9-11.9C382,254,390.7,254.6,394.6,258.6z"/>
		<path class="st0" d="M402.2,261.1c-1.4,0-2.7,0-4,0c0-1.8,0-3.4,0-5.2c1.3,0,2.6,0,4,0c0-2.2,0-4.3,0-6.5c2.2,0,4.2,0,6.5,0
			c0,2.1,0,4.2,0,6.5c2.2,0,4.3,0,6.4,0c0,1.8,0,3.4,0,5.2c-2.1,0-4.2,0-6.4,0c0,2.5,0,4.9,0,7.3c0,1.5,0,3,0,4.5
			c0.1,2.9,1.8,4.1,4.5,3.3c0.6-0.2,1.1-0.4,1.7-0.7c0.5,1.6,1,3.1,1.5,4.6c-2.7,2.2-8.3,2.5-11.1,0.5c-2.2-1.6-3-3.8-3-6.4
			c-0.1-3.9,0-7.8-0.1-11.7C402.2,262.1,402.2,261.7,402.2,261.1z"/>
	</g>
	<g>
		<g>
			<path class="st0" d="M187.8,238c-0.6,0-1.1,0-1.7,0c0,0.3,0,0.5,0,0.8c0,0.5-0.3,0.7-0.8,0.8c-1.2,0-2.4,0-3.6,0
				c-0.4,0-0.6-0.1-0.7-0.8c-0.6,0-1.2,0-1.8,0c0,0.1,0,0.3,0,0.4c0,3,0,3.5,0,6.5c0,0.1,0,0.3,0,0.5c0,0.4-0.3,0.6-0.6,0.6
				c-0.3,0-0.6-0.3-0.6-0.6c0-0.6,0-1.3,0-1.9c0-2.8,0-2.9,0-5.7c0-0.8,0.3-1.1,1.1-1.1c0.7,0,1.3,0,2.1,0c0-0.2,0-0.4,0-0.6
				c0-0.4,0.2-0.7,0.7-0.7c1.2,0,2.5,0,3.7,0c0.2,0,0.5,0.2,0.6,0.4c0.1,0.2,0.3,0.2,0.5,0.2c0.6,0,1.1,0,1.7,0
				c0.5,0,0.8,0.2,0.9,0.8c0,0.2,0.1,0.5,0.1,0.8c0,4.2,0,8.3,0,12.5c0,0,0,0.1,0,0.1c0,0.5-0.3,0.8-0.7,0.8c-0.4,0-0.6-0.3-0.6-0.8
				c0-0.7,0-1.3,0-2c0-3.4,0-6.9,0-10.3C187.8,238.3,187.8,238.2,187.8,238z M182.4,238.2c0.8,0,1.6,0,2.4,0c0-0.3,0-0.5,0-0.8
				c-0.8,0-1.6,0-2.4,0C182.4,237.7,182.4,237.9,182.4,238.2z"/>
			<path class="st0" d="M185.1,241.8c0.4,0,0.8,0,1.2,0c0.4,0,0.7,0.3,0.7,0.6c0,0.3-0.3,0.6-0.6,0.6c-0.9,0-1.7,0-2.6,0
				c-0.4,0-0.6-0.3-0.6-0.6c0-0.3,0.3-0.6,0.6-0.6C184.2,241.8,184.7,241.8,185.1,241.8C185.1,241.8,185.1,241.8,185.1,241.8z"/>
			<path class="st0" d="M185,249c-0.4,0-0.8,0-1.2,0c-0.4,0-0.7-0.3-0.7-0.7c0-0.4,0.3-0.6,0.7-0.6c0.8,0,1.6,0,2.5,0
				c0.4,0,0.7,0.2,0.7,0.6c0,0.4-0.3,0.6-0.8,0.6c-0.2,0-0.4,0-0.6,0C185.4,249,185.2,249,185,249L185,249z"/>
			<path class="st0" d="M185,244.8c0.4,0,0.9,0,1.3,0c0.4,0,0.7,0.2,0.7,0.6c0,0.3-0.2,0.6-0.6,0.6c-0.9,0-1.8,0-2.7,0
				c-0.4,0-0.6-0.3-0.6-0.7c0-0.3,0.3-0.6,0.6-0.6C184.2,244.8,184.6,244.8,185,244.8L185,244.8z"/>
			<path class="st0" d="M180.9,247.8c0.3-0.2,0.5-0.5,0.8-0.7c0.3-0.2,0.6-0.2,0.8,0c0.3,0.2,0.3,0.6,0.1,0.9
				c-0.3,0.4-0.7,0.8-1,1.1c-0.3,0.4-0.6,0.4-1,0c-0.2-0.1-0.3-0.3-0.5-0.5c-0.2-0.3-0.3-0.5,0-0.8
				C180.3,247.4,180.5,247.5,180.9,247.8C180.8,247.7,180.9,247.7,180.9,247.8z"/>
			<path class="st0" d="M180.9,241.9c0.2-0.2,0.5-0.5,0.7-0.7c0.3-0.2,0.6-0.2,0.8,0c0.2,0.2,0.3,0.6,0,0.8
				c-0.3,0.4-0.7,0.8-1.1,1.1c-0.3,0.3-0.6,0.3-0.9,0c-0.1-0.1-0.3-0.3-0.4-0.4c-0.2-0.2-0.3-0.5-0.1-0.8c0.2-0.3,0.5-0.3,0.8-0.1
				C180.9,241.9,180.9,241.9,180.9,241.9z"/>
			<path class="st0" d="M182.7,244.6c-0.1,0.2-0.1,0.3-0.2,0.4c-0.4,0.4-0.7,0.8-1.1,1.2c-0.3,0.3-0.5,0.3-0.8,0
				c-0.2-0.2-0.4-0.3-0.5-0.5c-0.2-0.2-0.2-0.5,0-0.8c0.2-0.2,0.5-0.3,0.7-0.1c0.2,0.1,0.3,0.1,0.4-0.1c0.2-0.2,0.3-0.4,0.5-0.5
				c0.2-0.1,0.4-0.2,0.6-0.1C182.4,244.1,182.6,244.4,182.7,244.6z"/>
		</g>
		<path class="st0" d="M117.7,218.5c-0.3,0-0.5,0-0.7,0.1c-1.1,0.1-2,0.9-1.9,1.9c0,0.4,0.4,0.8,0.7,1.2c0.4,0.5,0.2,0.9-0.2,1.2
			c-0.4,0.4-0.7,0.8-1.4,0.3c-1.3-0.9-2.6-0.4-2.9,1.1c-0.1,0.5-0.4,0.7-0.9,0.6c-0.4-0.1-1.1-0.2-1.2-0.4c-0.2-0.9-0.4-1.6-1.5-1.8
			c-0.7-0.2-0.7-0.2-2.3,0.8c-0.2-0.2-0.4-0.4-0.7-0.6c-0.6-0.5-0.7-1-0.1-1.5c0.9-0.8,0.3-1.5,0.1-2.2c-0.2-0.8-0.9-0.6-1.4-0.6
			c-0.2,0-0.4,0-0.8-0.1c-0.1-0.4-0.1-0.8-0.1-1.1c-0.1-0.8,0.3-1.2,1-1.1c1.1,0.1,1.2-0.8,1.6-1.4c0.4-0.7-0.2-0.9-0.5-1.3
			c-0.7-1-0.7-1.1,0.8-2.2c0.2,0.1,0.5,0.2,0.7,0.4c0.8,0.9,1.6,0.3,2.4,0c0.2-0.1,0.3-0.3,0.3-0.5c0.4-1.5,0.4-1.5,2.1-1.3
			c0.1,0.2,0.2,0.5,0.2,0.7c0.3,1.5,1.6,2,2.8,1.1c0.6-0.5,1-0.3,1.4,0.2c0.2,0.2,0.5,0.5,0.7,0.8c-0.2,0.3-0.3,0.5-0.6,0.7
			c-0.7,0.6-0.7,1.1-0.3,1.9c0.3,0.4,0.4,0.9,1.1,0.9c1.4,0.1,1.4,0.2,1.3,1.6C117.8,218.1,117.7,218.3,117.7,218.5z M110.2,213.9
			c-2,0-3.5,1.5-3.5,3.6c0,1.9,1.6,3.6,3.4,3.6c1.9,0,3.6-1.8,3.6-3.7C113.8,215.5,112.1,213.9,110.2,213.9z"/>
		<path class="st0" d="M177.9,216.7c0,4.3-3.5,7.6-7.9,7.6c-4.3,0-7.7-3.5-7.6-7.8c0.1-4.3,3.5-7.6,7.9-7.6
			C174.6,209,177.9,212.4,177.9,216.7z M168.2,217.8c-0.6-0.6-1-1.2-1.5-1.6c-0.5-0.4-1.1-0.4-1.5,0c-0.4,0.4-0.5,1.1-0.1,1.5
			c0.8,0.8,1.6,1.6,2.4,2.4c0.5,0.5,0.9,0.4,1.4,0c0.4-0.4,0.7-0.7,1.1-1.1c1.5-1.5,2.9-2.9,4.4-4.4c0.5-0.5,0.5-1.1,0-1.6
			c-0.4-0.5-1.2-0.5-1.7-0.1c-0.2,0.2-0.4,0.4-0.6,0.6C171,214.9,169.7,216.2,168.2,217.8z"/>
		<g>
			<path class="st0" d="M155.6,229.8c0-1.3,0-2.3,0-3.4c0-1.2,0.4-1.8,1.7-1.7c1.2,0.1,2.3,0.1,3.5,0c1.1-0.1,1.4,0.4,1.4,1.4
				c0,2.4,0,4.9,0,7.3c0,1.3,0.4,2.1,1.5,2.9c2.2,1.6,4.3,3.4,6.4,5.2c0.5,0.4,1,0.9,1.2,1.4c0.4,0.9,0.1,1.7-0.6,2.3
				c-0.8,0.6-1.7,0.8-2.5,0.2c-1.4-1-2.6-2.1-3.9-3.1c-7.6-6.2-15.2-12.4-22.8-18.6c-1.4-1.1-1.8-1.2-3.2,0
				c-8,6.7-16.1,13.4-24.1,20.1c-0.7,0.6-1.3,1.1-2,1.6c-1,0.6-2.3,0.3-2.9-0.5c-0.7-0.9-0.6-2.1,0.3-3c1.3-1.1,2.6-2.2,3.9-3.3
				c8-6.6,16-13.2,24-19.8c2-1.6,2.9-1.6,4.9,0.1c4,3.4,8.1,6.7,12.1,10C154.7,229.2,155.1,229.4,155.6,229.8z"/>
			<path class="st0" d="M138.5,295.6c-3.3-0.2-5.8-0.3-8.3-0.6c-1.7-0.2-2.4-1.3-2.1-2.8c0.2-1.3,1.2-1.9,2.8-1.8
				c6.1,0.5,12.1,0.5,18.2-0.6c14.8-2.7,27.1-9.9,37.4-20.8c0.4-0.4,0.8-0.8,1.2-1.1c1-0.7,2.1-0.6,2.9,0.3s0.9,2,0,3
				c-4,4.5-8.3,8.6-13.3,12.1c-8.2,5.6-17.1,9.4-26.9,11.1C146.2,295.1,142,295.3,138.5,295.6z"/>
			<path class="st0" d="M142.3,266.8c-12.2,0-21.3-2.1-29.7-7.1c-0.7-0.4-1.4-0.9-1.9-1.5c-0.9-0.9-0.9-2-0.2-2.9
				c0.8-1,1.9-1.3,3-0.7c2.7,1.3,5.2,3,8,4c15,5.7,29.6,4.5,43.5-3.6c0.3-0.1,0.5-0.3,0.8-0.4c1.2-0.6,2.6-0.3,3.3,0.7
				c0.8,1.2,0.5,2.5-0.8,3.3c-1.9,1.2-3.9,2.4-5.9,3.3C155.2,265.2,147.7,267,142.3,266.8z"/>
			<path class="st0" d="M139,303.9c-8.1-0.1-15.8-1.6-23.3-4.7c-0.3-0.1-0.6-0.2-0.9-0.4c-1.1-0.6-1.5-1.8-1.1-2.7s1.4-1.3,2.6-0.9
				c1.6,0.5,3.2,1.1,4.8,1.5c18.1,5.5,35.2,3,51.4-6.5c0.4-0.2,0.9-0.6,1.3-0.5c0.6,0.1,1.4,0.4,1.7,0.8c0.3,0.5,0.2,1.4-0.1,1.8
				c-0.4,0.6-1.2,1.1-1.9,1.5c-7.7,4.9-16.1,8.1-25.2,9.4C145.3,303.6,142.1,303.6,139,303.9z"/>
			<path class="st0" d="M135.5,274.3c-14.7-0.9-27.7-6-38.4-16.3c-0.4-0.4-0.9-0.9-1.2-1.3c-0.8-1.1-0.6-2.3,0.3-3.1
				c1-0.9,2.1-0.9,3.1,0c2.2,1.8,4.2,3.7,6.5,5.4c6.9,5.2,14.7,8.2,23.1,9.7c2.2,0.4,4.5,0.6,6.8,0.8c1.7,0.2,2.8,1.2,2.7,2.6
				C138.4,273.5,137.2,274.4,135.5,274.3z"/>
			<path class="st0" d="M90.2,267.3c0.6,0.5,1.4,1,2,1.6c3.4,3.7,7,7.1,11.1,10.1c4.8,3.5,10,6.1,15.5,8.3c0.4,0.2,0.8,0.3,1.2,0.5
				c1.5,0.7,2,1.7,1.5,3c-0.5,1.2-1.8,1.8-3.2,1.3c-2.1-0.7-4.1-1.5-6.1-2.4c-9.1-4.2-17.1-10-23.6-17.6c-1.4-1.7-1.4-3.1,0-4
				C89.1,267.6,89.5,267.5,90.2,267.3z"/>
			<path class="st0" d="M195.4,255.1c-0.4,0.8-0.6,1.3-1,1.8c-4.7,6.1-10.4,11-16.8,15.2c-1.6,1.1-3.3,0.8-4-0.6
				c-0.6-1.2-0.2-2.3,1.1-3.3c2.2-1.6,4.6-3.1,6.7-5c2.9-2.6,5.6-5.5,8.4-8.3c0.4-0.5,0.9-0.9,1.3-1.4c0.7-0.7,1.6-1,2.4-0.4
				C194.4,253.6,194.9,254.4,195.4,255.1z"/>
			<path class="st0" d="M145.2,277.2c-1.4-0.2-2.4-1.1-2.6-2.3c-0.1-1.3,0.6-2.3,2-2.5c4.2-0.9,8.4-1.7,12.5-2.6
				c1.7-0.4,3.4-1.2,5.1-1.8c1.4-0.4,2.7,0.4,3,1.7c0.3,1.2-0.3,2.2-1.7,2.8c-2.3,0.9-4.6,1.8-6.9,2.4
				C152.8,275.7,149,276.4,145.2,277.2z"/>
			<path class="st0" d="M99.2,266.3c-0.5,0.7-0.9,1.5-1.5,1.8c-0.7,0.3-1.8,0.3-2.4,0c-1.1-0.6-2.1-1.5-2.9-2.5
				c-2.7-2.8-5.3-5.7-7.9-8.6c-0.7-0.8-1.2-1.8-0.6-2.9c1-1.6,2.6-1.7,4-0.2c2.3,2.5,4.5,5.1,6.8,7.5c1,1.1,2.2,2.1,3.2,3.1
				C98.4,265,98.7,265.6,99.2,266.3z"/>
			<path class="st0" d="M183.5,255.2c-0.5,0.8-0.7,1.5-1.1,2c-3.1,3.5-6.9,6.2-10.7,8.8c-2.2,1.5-4,0.1-4.2-1.5
				c-0.2-1.3,0.7-1.9,1.6-2.6c2.6-2,5.2-4.1,7.8-6.1c0.9-0.7,1.7-1.6,2.6-2.3c0.7-0.6,1.6-0.8,2.4-0.3
				C182.4,253.7,182.9,254.4,183.5,255.2z"/>
			<path class="st0" d="M107.6,291.7c0.1,1.5-1.1,2.4-2.1,1.7c-2.5-1.6-4.9-3.4-7.3-5.2c-0.8-0.6-1.1-1.6-0.2-2.5
				c0.8-0.8,1.5-0.4,2.2,0.2c2,1.5,4.1,2.9,6.1,4.4C106.9,290.9,107.3,291.4,107.6,291.7z"/>
			<path class="st0" d="M157.8,243.5c2.4,0.7,4,2.7,4,4.8c0,0.9,0,1.9-0.1,2.8c-0.1,1.2-0.8,1.8-1.9,1.9c-1.1,0.2-2-0.5-2-1.4
				C157.7,249,157.8,246.3,157.8,243.5z"/>
			<path class="st0" d="M122,248.1c0,1,0,2,0,2.9c0,1.1-0.5,1.9-1.7,2.1c-1.1,0.1-2.1-0.4-2.3-1.4c-0.2-1.6-0.5-3.5,0.1-4.9
				c0.4-1.2,2-1.9,3.1-2.9c0.3,0.3,0.7,0.6,0.7,0.9C122,245.8,122,246.9,122,248.1L122,248.1z"/>
			<path class="st0" d="M139.1,256.2c-3.3-4.2-6.2-8.1-7.4-13c-0.7-3.1,0.4-5.7,2.9-7.6c2.3-1.8,5.6-1.8,8.1-0.2
				c2.4,1.5,4,4.6,3.4,7.5c-0.4,1.7-0.9,3.5-1.8,5C142.8,250.6,141,253.3,139.1,256.2z M138.8,245.6c1.6,0,3.1-1.5,3.2-3.1
				c0-1.6-1.4-3-3.1-3c-1.6,0-3.1,1.4-3.1,3C135.9,244.1,137.3,245.6,138.8,245.6z"/>
			<path class="st0" d="M144.5,285.6c-14.7,0.7-28.2-2.8-40-11.9c-0.5-0.4-0.9-0.8-1.3-1.2c-0.9-1-0.9-2.2,0-3.1
				c0.9-1,1.9-1.1,3.1-0.3c2.4,1.5,4.6,3.2,7.1,4.7c7.4,4.4,15.5,6.5,24.1,7c2.3,0.1,4.5,0,6.8,0c1.7,0,2.9,0.9,3,2.3
				C147.3,284.5,146.2,285.5,144.5,285.6z"/>
			<path class="st0" d="M164.3,276.4c1.3,0.7,1.5,2.2,0.4,2.7c-2.7,1.3-5.4,2.5-8.1,3.7c-0.9,0.4-1.9,0.1-2.3-1
				c-0.3-1.1,0.4-1.5,1.3-1.9c2.3-1,4.6-2.1,6.9-3C163.2,276.6,163.9,276.5,164.3,276.4z"/>
		</g>
		<g>
			<path class="st0" d="M137.7,197.3l-0.9,0.3c-1,0.4-1.9,1-2.5,1.9l-0.6,0.8c-0.1,0.1-0.2,0-0.3-0.1c-0.6-1.1-0.4-2.7,0.6-3.5
				c1-0.9,2.6-0.8,3.8,0.2C137.8,197.1,137.8,197.2,137.7,197.3z"/>
			<path class="st0" d="M146.2,201.7c-0.9-0.7-1.7-1.3-2.5-1.8c-2.3-1.6-5.5-1.2-7.4,0.4c-2.2,1.9-3.2,4.2-2.5,7.1
				c0.6,2.5,2.2,4.1,4.7,4.9c2.4,0.7,4.6,0.2,6.4-1.5c0.3-0.2,0.5-0.6,0.7-0.9c0.3-0.3,0.5-0.4,0.9-0.1c0.3,0.2,0.4,0.5,0.2,0.9
				c-0.9,1.3-2.1,2.2-3.5,2.8c-4.8,1.9-10.2-1.5-10.8-6.6c-0.5-4.3,2.3-8,5.9-9.1c1.3-0.4,2.7-0.4,4-0.1c0.3,0.1,0.5,0.1,0.7-0.2
				c0.9-0.9,2.3-0.9,3.4-0.2c1,0.7,1.2,1.8,0.7,3.1C146.9,200.8,146.5,201.2,146.2,201.7z"/>
			<path class="st0" d="M143.7,206.1c-0.4,0-0.8,0-1.1,0c-0.5,0-1,0-1.4,0.4c-0.4,0.4-1.1,0.3-1.6-0.2c-0.4-0.4-0.4-1,0.1-1.5
				c0.5-0.5,1-0.6,1.5-0.1c0.3,0.3,0.6,0.4,1.1,0.4c0.9,0,1.8,0,2.7,0c0.2,0,0.4-0.1,0.6,0c0.2,0.1,0.3,0.3,0.5,0.5
				c-0.1,0.1-0.3,0.4-0.5,0.4C144.9,206.1,144.3,206.1,143.7,206.1z"/>
			<path class="st0" d="M144.2,210.3c0,0.4-0.2,0.7-0.6,0.7c-0.4,0-0.7-0.3-0.7-0.7c0-0.4,0.3-0.7,0.7-0.6
				C144,209.6,144.2,209.9,144.2,210.3z"/>
			<path class="st0" d="M139.2,210.6c0,0.4-0.2,0.7-0.6,0.7c-0.4,0-0.7-0.3-0.7-0.7c0-0.4,0.3-0.7,0.7-0.6
				C138.9,210,139.2,210.2,139.2,210.6z"/>
			<path class="st0" d="M141.1,200c0,0.4-0.2,0.7-0.6,0.7c-0.4,0-0.7-0.3-0.7-0.7c0-0.4,0.3-0.7,0.7-0.6
				C140.9,199.4,141.1,199.6,141.1,200z"/>
			<path class="st0" d="M138.5,201.3c0,0.4-0.2,0.7-0.6,0.7c-0.4,0-0.7-0.3-0.7-0.7c0-0.4,0.3-0.7,0.7-0.6
				C138.2,200.6,138.5,200.9,138.5,201.3z"/>
			<path class="st0" d="M136.1,206.3c0,0.4-0.2,0.7-0.6,0.7c-0.4,0-0.7-0.3-0.7-0.7c0-0.4,0.3-0.7,0.7-0.6
				C135.8,205.6,136.1,205.9,136.1,206.3z"/>
			<path class="st0" d="M136.5,203.5c0,0.4-0.2,0.7-0.6,0.7c-0.4,0-0.7-0.3-0.7-0.7c0-0.4,0.3-0.7,0.7-0.6
				C136.2,202.8,136.5,203.1,136.5,203.5z"/>
			<path class="st0" d="M141.7,211c0,0.4-0.2,0.7-0.6,0.7c-0.4,0-0.7-0.3-0.7-0.7c0-0.4,0.3-0.7,0.7-0.6
				C141.4,210.3,141.7,210.6,141.7,211z"/>
			<path class="st0" d="M137.2,208.9c0,0.4-0.2,0.7-0.6,0.7c-0.4,0-0.7-0.3-0.7-0.7c0-0.4,0.3-0.7,0.7-0.6
				C136.9,208.3,137.2,208.5,137.2,208.9z"/>
		</g>
		<path class="st0" d="M104.6,238.8c0-1.4-1-2.4-2.5-2.4c0,0.7,0,1.4,0,2.1c0,0.7-0.3,1.1-1,1.1c-0.7,0-1-0.5-1-1.1c0-0.7,0-1.4,0-2
			c-1.7-0.4-1.8-0.4-1.8,1.2c0,0.3,0,0.5,0,0.8c0,0.7-0.2,1.2-1,1.2c-0.7,0-0.9-0.6-0.9-1.2c0-0.7,0-1.4,0-2.1
			c-1.7-0.1-2.6,0.6-2.7,2.4c-0.1,2.8-0.1,5.6,0,8.5c0.1,1.8,1.2,2.8,3,2.8c1.7,0,3.5,0,5.2,0c1.6,0,2.7-1,2.7-2.6
			C104.7,244.6,104.7,241.7,104.6,238.8z M103.1,242.5c-0.7,0.8-1.4,1.5-2.1,2.3c-0.8,0.9-1.7,1.8-2.5,2.7c-0.5,0.5-1.1,0.6-1.6,0.1
			c-0.7-0.7-1.4-1.4-1.9-2.1c-0.2-0.2-0.1-0.9,0.1-1.2c0.2-0.2,0.8-0.3,1.2-0.2c0.5,0.3,0.9,0.8,1.4,1.2c1.2-1.3,2.4-2.5,3.6-3.8
			c0.2-0.2,0.4-0.5,0.6-0.5c0.4-0.1,1-0.1,1.4,0.1C103.6,241.5,103.6,242.1,103.1,242.5z"/>
	</g>
</g>
</svg>
