<svg id="Layer_1" data-name="Layer 1" xmlns="http://www.w3.org/2000/svg" viewBox="0 0 234.96 257.19">
    <defs>
        <style>path{fill:#fff;}</style>
    </defs>
    <path
        d="M7200.05,7082.31h63.63a37.09,37.09,0,0,1,14.68,3.36c.35.15.69.36,1.05.5,3.14,1.27,3.11,1.26,2.54,4.53-.24,1.39-.16,2.85-.49,4.21-.21.87-1.05,1.58-1.35,2.45-.93,2.68-2.55,2.13-4.62,1.41-6.26-2.18-12.79-2.46-19.38-2.44-25.36.08-50.73,0-76.09,0-13.56,0-27.12.08-40.67,0-11-.06-20.48,3.46-28.32,11.19a39.4,39.4,0,0,0-12,28.29c-.31,22.31-.1,44.63-.11,66.94,0,18-.38,36.08.12,54.1.46,16.56,8.48,28.79,23.63,35.92,5.36,2.52,11.19,3,17.1,3,40.61-.07,81.22.06,121.82-.21,11.71-.08,21.09-5.73,28.27-14.88,6.78-8.64,8.67-18.66,8.55-29.43-.22-20.1-.08-40.22-.06-60.32,0-17.78.13-35.55.14-53.33,0-2.51-.55-5-.47-7.55a27.58,27.58,0,0,1,1.14-5.76,1.39,1.39,0,0,1,1.07-.77c2.52-.08,5.05-.11,7.56,0a2.21,2.21,0,0,1,1.67,1.06,16.75,16.75,0,0,1,1.26,5.21c.07,42.43.22,84.85,0,127.28-.11,16.56-6.39,30.73-19.34,41.45-9.35,7.74-20.23,11.23-32.4,11.19-30.1-.09-60.2,0-90.3,0-11.15,0-22.31.07-33.47-.07a45.47,45.47,0,0,1-28.22-10.14c-13.41-10.61-20.09-24.77-20.51-41.67-.42-16.66-.15-33.33-.18-50,0-14-.08-28-.06-42,0-10.44-.09-20.89.26-31.33a54.67,54.67,0,0,1,16.46-38,46.3,46.3,0,0,1,33.7-14.1c21.14-.07,42.29,0,63.44,0Z"
        transform="translate(-7086.18 -7052.61)" />
    <path
        d="M7117.27,7256.83v-49.05h25.85c0-5.09,0-10,0-14.9,0-7.78,0-15.56.12-23.35a60,60,0,0,1,12.61-36.46,47,47,0,0,1,18.77-14.73,57.81,57.81,0,0,1,45.21-1.18,48.79,48.79,0,0,1,19.49,13.81,56.36,56.36,0,0,1,14.26,35.17c.48,9.64.13,19.32.14,29,0,4.08,0,8.15,0,12.5h25.91c0,2.15,0,4,0,5.88q0,20.13-.07,40.27c0,2.77-.25,3-3,3q-21.19,0-42.4-.05c-4.43,0-4.34,0-6.27,3.87-5,10.07-12.47,17.43-23.72,19.87-12.45,2.69-22.63-1.68-30.45-11.42a62.32,62.32,0,0,1-6.41-10.81,2.47,2.47,0,0,0-2.68-1.51q-16.74.06-33.47.07C7126.61,7256.84,7122,7256.83,7117.27,7256.83Zm149.8-35c-1.14-.07-2-.17-2.79-.17-6.94,0-13.88,0-20.81.09-1.42,0-2-.22-2-1.89,0-13.88,0-27.76-.07-41.64,0-6.74.14-13.47-1.8-20.07-3.52-11.95-10.59-21-21.82-26.45-9.29-4.49-19.17-5.08-29.24-3.11a39,39,0,0,0-22.64,13.36c-7,8.23-9.88,18-10,28.57-.21,16.22-.12,32.44-.14,48.65,0,2.54,0,2.55-2.51,2.55l-20.82-.06c-2.61,0-2.62,0-2.64,2.51q-.06,8.07-.1,16.15c0,.68,0,1.36,0,2.17h2.24q18.59,0,37.17-.06l80,0,16.15,0c1,0,1.93.07,1.92-1.44C7267,7234.7,7267.07,7228.42,7267.07,7221.84Zm-85.76,35c3.17,6.87,11.52,10.95,19.61,9.78,5.33-.78,12.95-5.17,13.95-9.78Z"
        transform="translate(-7086.18 -7052.61)" />
    <path
        d="M7297.4,7093.77c.08-7.1,2.4-12.89,7.21-17.64.69-.67,1.2-1.53,1.86-2.24,2.26-2.43,3-5.24,1.52-8.22s-4.49-3-7.17-2.65a20.37,20.37,0,0,0-6.29,2.33c-1.47.76-2.28.86-3-.79s-1.7-3.21-2.37-4.89a2.07,2.07,0,0,1,.35-1.9,23.17,23.17,0,0,1,20.49-4.44c11.2,2.63,13.73,14,8.58,21.8a65.79,65.79,0,0,1-6.31,8.09,13.26,13.26,0,0,0-3.76,8.69c-.06,1.54-.77,1.94-2.22,1.89C7303.34,7093.71,7300.37,7093.77,7297.4,7093.77Z"
        transform="translate(-7086.18 -7052.61)" />
    <path
        d="M7310.41,7107c0,4.87-3.22,8.3-7.92,8.35-3.64,0-6.89-3.47-6.92-7.46,0-4.6,3.13-7.72,7.85-7.73C7307.69,7100.13,7310.37,7102.75,7310.41,7107Z"
        transform="translate(-7086.18 -7052.61)" />
</svg>