<svg id="Layer_1" data-name="Layer 1" xmlns="http://www.w3.org/2000/svg" viewBox="0 0 519.37 526.81">
    <defs>
        <style>.cls-1{fill:#fff;}</style>
    </defs>
    <path class="cls-1"
        d="M7331.18,7462.91a48,48,0,0,1-10.56-12.42,58.21,58.21,0,0,1-6.05-16.28c-.16-.76-.18-1.54-.29-2.53,2.13,3.92,4,7.69,6.18,11.26,3.1,5.05,7.18,9.13,12.79,11.43a30.74,30.74,0,0,0,19.79,1.46,43.57,43.57,0,0,0,13.46-6.51,67,67,0,0,0,12.8-11.73,9.17,9.17,0,0,0,.72-1.11l.48.4c-1.06,1.69-2.11,3.38-3.2,5.05a70.33,70.33,0,0,1-10.89,13.35c-2.29,2.12-4.95,3.83-7.44,5.74-.81.62-1.61,1.26-2.41,1.89Z"
        transform="translate(-6946.38 -6936.09)" />
    <path class="cls-1"
        d="M7047.86,6936.09c6.8,5.67,12.11,12.36,14.68,21.46a90.89,90.89,0,0,0-7.26-6c-4.58-3.06-9.16-6.3-14.73-7.31a11.23,11.23,0,0,0-9.08,2.09c-4.46,3.43-8.93,6.85-13.29,10.4a46.83,46.83,0,0,0-4,4.2,3.38,3.38,0,0,1-1.68,1,5.46,5.46,0,0,1,.27-1.54c3.12-6.54,6.16-13.15,10.89-18.72,1.82-2.14,4.23-3.77,6.36-5.63Z"
        transform="translate(-6946.38 -6936.09)" />
    <path class="cls-1"
        d="M7465.75,7226.72c-5.65-2.55-12.09-2.13-17.39-.38a69.11,69.11,0,0,0-16.66,8.28c-6.16,4.1-12,8.68-18,13.05-.63.46-1.25.94-1.87,1.41l-.34-.34,3.53-3.91c4.69-5.23,9.54-10.33,15.23-14.47a153.36,153.36,0,0,1,15.24-10.09,23.16,23.16,0,0,1,16.7-2.73h0c.76.16,2.31,3.09,2.31,3.88Z"
        transform="translate(-6946.38 -6936.09)" />
    <path class="cls-1"
        d="M7133.94,7063.73c-4.12,0-8.1.05-12.08,0-4.79-.08-9.59-.19-14.38-.42a9.46,9.46,0,0,1-3.38-1.07c-.57-.27-.93-1-1.38-1.47l.27-.41,1.67.17c.12-1.35.32-2.51-.63-3.89-1.86-2.71-.43-5.86,2.71-6.8a9.58,9.58,0,0,0,1.78-1c2.13.89,2.23.86,3.73-1.4.64-1,1.3-.65,1.93,0a9,9,0,0,1,.79,1.07c1.71-2.1,1.71-2.1,4,0l2.11-1.46c.47.53.84.93,1.28,1.41a3.06,3.06,0,0,0,.67-.49c1.93-2.7,4.67-2.57,7.5-2.18a3.89,3.89,0,0,0,1.12-.09,7.72,7.72,0,0,1,2.24-.32c1.33.23,1.62-.23,1.74-1.49.49-5.28,1.1-10.55,1.69-15.82a11.05,11.05,0,0,1,.45-1.54l1.34,2.09,1.89-1.74a23.06,23.06,0,0,1,.14-2.47c.15-1-.3-2.34,1.12-2.95.17-.08.17-.62.21-.95.79-6,1.53-12,2.38-18a43.52,43.52,0,0,1,1.16-4.56h.44c.35.73.74,1.44,1.05,2.18,1.44,3.47,2.92,6.93,4.28,10.44,1.41,3.67,1.22,7.5.8,11.32a11.7,11.7,0,0,0-.13,1.19q-.31,10.1-.62,20.2c0,.61,0,1.23,0,1.66,5,0,9.91.08,14.78,0,5.65-.12,11.29-.53,16.93-.6,7.88-.11,15.76,0,23.64,0,5.42,0,10.84-.09,16.25-.07,1.94,0,3.87.31,5.81.31,7.07,0,14.15-.24,21.22-.11,10.11.18,20.21.58,30.31.95,1.14,0,1.21-.56,1.32-1.32.88-5.81,1.77-11.62,2.61-17.45.15-1,.29-1.75,1.62-1.57.83.12,1.35-.27,1.35-1.29s-.08-2.4.5-2.92c2.51-2.23,1.48-5.33,2.2-8a66.72,66.72,0,0,0,1.28-8.63,17.16,17.16,0,0,1,2.61-7.7c.44-.63.65-1.41,1.21-2.11v4.07c1.67-.31,2.11.38,2.09,1.91a24.34,24.34,0,0,0,.71,4.4l1.23.22.4-1.28.49,0a18.19,18.19,0,0,1,.36,3.09c-.28,5.76-.59,11.52-1,17.27-.47,6.89-1.05,13.77-1.58,20.65,0,.33,0,.67,0,1.17l9.79.6c8.89.54,17.79.95,26.68,1.62,9.62.73,19.22,1.67,28.83,2.56,4.37.41,8.73.91,13.1,1.4,2.64.29,5.29.58,7.91,1a4.25,4.25,0,0,1,2.52,1.2,6.62,6.62,0,0,0,4.9,2.41c4.25.48,8.52.73,12.77,1.19.86.1,1.62.85,2.48,1.12,2.22.69,4.44,1.37,6.69,1.88,2.67.6,5.39,1,8.07,1.55a9.71,9.71,0,0,1,2,.94l-.21.68-14.49,1c3.2,1.61,5.91,3.17,7.55,6.18a3.86,3.86,0,0,1-1.05.44c-3,.19-6,.48-8.95.47s-6-.29-9.06-.48c-12.71-.81-25.43-1.65-38.14-2.45-12.14-.76-24.28-1.57-36.43-2.2-7.19-.37-14.4-.41-21.59-.62-2-.06-4-.2-6.11-.31-.19,3.36-.35,6.59-.56,9.82-.61,9.46-1.16,18.93-1.88,28.38-.88,11.56-1.9,23.1-2.87,34.65-.68,8.19-1.47,16.36-2,24.55-.42,6.09-.52,12.21-.86,18.31-.24,4.32-.65,8.63-1,12.95a1.82,1.82,0,0,0,.13.51c33.51,1.46,66.91,4.21,100.25,7.62l.08.45-2.07.74,0,.35c3.17.64,6.33,1.36,9.51,1.91,6.42,1.09,12.87,2,19.26,3.2,2.33.45,4.51,1.68,6.75,2.55l-.1.91-14.78,1.78-.11.43,4,2c-.38.41-.59.83-.88.89-2.22.49-4.46,1.32-6.67,1.27-13.13-.27-26.25-.78-39.38-1.14-4.78-.13-9.57.1-14.34-.11-8.95-.37-17.89-1-26.83-1.42-10.73-.5-21.46-.86-32.19-1.3-.9,0-1.79-.21-2.68-.32-1.14,2.64-5.5,107.89-4.63,113.54,5.1,0,10.28,0,15.46,0,2.4,0,4.8,0,7.19.12a1.45,1.45,0,0,0,1.66-1c5.06-10.63,10.35-21.15,17.87-30.29,5.5-6.69,11.07-13.38,18.54-18.1-24.31,25.43-37.13,56-41.23,90.73,0-2.68,0-5.36,0-8,.05-4.15.17-8.3.17-12.45,0-.43-.65-1.22-1-1.24-3.69-.24-7.4-.36-11.1-.48-2.45-.08-4.9-.1-7.36-.19-1.65-.05-2.19.41-2.22,2,0,2.51.08,5-.15,7.54-.29,3.09-.87,6.15-1.31,9.22a3.55,3.55,0,0,1-.39,1.48l-.48-2.56-.52.08c0,2.75-1.86,5.55,1,8.34-1.59-.32-1.59-.32-3-3.62-.31,2.43-.58,4.66-.86,6.89l-.66.05c-.47-2.38-.93-4.76-1.43-7.31l-1.37,1.49c-1.06-1.59-1.71-1.73-2.37-.59l-.71-.81-.4.08v5.81l-.36.05c-.13-.32-.27-.64-.38-1-.61-1.81-1.34-3.6-1.8-5.45a31.83,31.83,0,0,1-1-5.72c-.28-4.56-.37-9.13-.57-13.7-.13-2.89-.19-3-3.07-3q-24.69,0-49.37,0c-12,0-24,.08-36,.12l-34.27.1c-.57,0-1.13-.07-1.85-.12-.46,14.4,1,28.77-.86,43l-.7.15c-.2-.64-.44-1.28-.59-1.94a6.67,6.67,0,0,0-.77-2.35c-.24,1-.47,2-.7,3l-.56.12c-1.51-2.95-1.38-6.45-2.93-9.51-.07,1.13-.11,2.26-.2,3.39-.18,2.26-.32,4.52-.63,6.76-.08.61-.68,1.14-1.28,2.07l-.77-2.33-.37.06-.1,1.42c-.17,0-.43.06-.47,0a6,6,0,0,1-1.17-2c-.38-2-.54-4-.83-5.93a17.67,17.67,0,0,0-.64-3c-.12-.37-.67-.61-1-.9-.34.4-.91.77-1,1.21-.14,1.06,0,2.16-.06,3.23a44.25,44.25,0,0,1-.67,5.4,245.72,245.72,0,0,1-2.32-41.15c-4.47,0-8.57-.08-12.67,0-11.59.27-23.19.53-34.78.94-13.7.47-27.4,1.1-41.1,1.64q-8.73.36-17.47.64c-1.19,0-1.64.37-1.72,1.68-.5,8.09-1.13,16.17-1.69,24.26-.08,1.13.09,2.28,0,3.4-.05.5-.53.95-.81,1.43-.34-.33-.82-.6-1-1-.64-1.38-1.16-2.81-1.75-4.2a14,14,0,0,0-.75-1.37l-.53.11a29.59,29.59,0,0,1-.05,3.65c-.06.5-.69.91-1,1.39a5.36,5.36,0,0,0-.89,1.68c-.24,1.23-.26,2.5-.44,3.74a3.21,3.21,0,0,1-.92,1.8l-1.18-3.76-.57,0a12.12,12.12,0,0,1-.34,1.91,6.18,6.18,0,0,1-.77,1.3c-.31-.41-.81-.78-.89-1.22-.23-1.35-.24-2.73-.45-4.08a1.82,1.82,0,0,0-1.11-1.24q-.43,2.6-.86,5.19l-.62,0a9.28,9.28,0,0,1-.4-2c.12-9.59.28-19.18.42-28.78,0-1.13,0-2.27,0-3.82-2.61,0-5.15,0-7.7,0-3.82,0-7.67.19-11.47-.17-1.52-.15-2.91-1.55-4.33-2.43,0,0,.36-1.06.68-1.14,3-.74,6-1.39,9-2,1-.21,2-.36,3-.54l0-.47h-4.59V7344l12-3.14c-1.24-.58-2.08-.92-2.85-1.37-.29-.16-.41-.6-.61-.91a4.29,4.29,0,0,1,1-.51c2.22-.46,4.45-.89,6.93-1.37.22-6.49.38-13,.67-19.48.3-6.89.8-13.76,1.08-20.65s.37-13.58.53-20.37q.24-9.22.45-18.46.47-19.18,1-38.35c.09-4.14.07-4.17-4-4.46-1.81-.13-3.64,0-5.46-.14-4.13-.25-8.27-.51-12.38-.92-.72-.07-1.35-.94-2-1.44.74-.69,1.4-1.82,2.25-2,4.8-.93,9.64-1.65,14.48-2.4,1.69-.26,3.4-.39,5.1-.54a10.28,10.28,0,0,1,1.62.12c.74-10.95-.06-22.05,3.53-32.45-13.44-7.83-23.31-18.44-28.78-33,.93,1,1.85,2,2.79,3a124.63,124.63,0,0,0,23.32,19.53,61.42,61.42,0,0,0,31.9,9.56,76.76,76.76,0,0,0,18.9-1.7,67.63,67.63,0,0,0,19-7.6c11.48-6.68,19.8-16.28,26.41-27.65,2.81-4.83,4.59-10,6.61-15.15a1.53,1.53,0,0,1,.71-.85,5.22,5.22,0,0,1,.15,1.4c-.5,3.16-.89,6.34-1.61,9.44a50.65,50.65,0,0,1-6.82,16,127.93,127.93,0,0,1-9.2,12.74c-5.41,6.49-12.25,11.19-19.76,15a62.72,62.72,0,0,1-22,6.67,71.39,71.39,0,0,1-25-1.51c-1.61-.4-3.21-.83-4.84-1.09a1.52,1.52,0,0,0-1.28.73,4.51,4.51,0,0,0-.09,2.36,14.49,14.49,0,0,1-.11,8.5,4,4,0,0,1,2.58,3.94c.06,1.58.22,3.15.35,4.86a46.14,46.14,0,0,1,6.34-1.14c8.78-.39,17.58-.53,26.36-.92,2.76-.13,5.48-.81,8.24-1.12s5.66-.6,8.5-.74c11.52-.55,23-1.09,34.55-1.54,6.79-.26,13.58-.34,20.37-.52.84,0,1.68-.15,2.6-.23.24-3.65.47-7.17.72-10.69.65-9.34,1.33-18.68,2-28,.2-3.08.26-6.17.46-9.25.54-8.6,1-17.21,1.71-25.8.78-10.13,1.63-20.25,2.63-30.35.8-8.17,1.87-16.31,2.84-24.46C7133.63,7065,7133.79,7064.46,7133.94,7063.73Zm6.53,148.72c-.81,7.12-3.07,108.67-2.56,114.48a7.92,7.92,0,0,0,.17.85c41.43-1.42,82.72-.72,123.66-.11q1.89-56.78,3.78-113.14ZM7118.79,7329c.71-38.79,1.64-77.44,4.29-116.26l-107.6,1.92c.09,40.19-.74,80.31-2.7,120.33C7048.35,7333.09,7083.61,7329.56,7118.79,7329Zm31.29-265.24c-.22,2.34-.5,4.49-.63,6.65-.78,13-.64,26.1-2,39.11-.77,7.25-1,14.55-1.43,21.83-.38,6.38-.68,12.77-1,19.15q-.69,12.26-1.4,24.53c-.29,5.18-.6,10.37-.9,15.55-.13,2.18,1,3.31,3.15,3.29,6.11-.06,12.22-.15,18.33-.14q37,.11,74,.26c6.73,0,13.46.25,20.2.35,3.05.05,6.1,0,9.21,0,2.88-43,4.83-86.1,11.4-129.09C7236,7063.91,7193.16,7063.79,7150.08,7063.76Zm-145.17,116.83,1.13-4C7004.67,7177.13,7004.26,7178.25,7004.91,7180.59Z"
        transform="translate(-6946.38 -6936.09)" />
    <path class="cls-1"
        d="M7393.74,7122.34c-.11,11-.82,19.34-4.46,27-3.88,8.17-9.78,14.44-18.33,18.1a50,50,0,0,1-19.49,3.9c-7.05.06-14-1-20.34-4.49a36.27,36.27,0,0,1-10.86-9.23c-6.82-8.5-9-18.4-9.09-29-.06-5.89.15-11.75,1.78-17.49,2.16-7.6,5.44-14.55,11.33-20,6.94-6.43,15.34-9.25,24.66-9.62,7.19-.29,14.28.21,21,3a35.59,35.59,0,0,1,20.51,21.27C7392.79,7112,7393.94,7118.36,7393.74,7122.34Zm-67.33,2.31c.45,4.59.49,9.26,1.45,13.74,2.15,10.11,7.22,17.93,18.13,20.42a13.4,13.4,0,0,0,2.41.76,65,65,0,0,0,6.83-.27,23.91,23.91,0,0,0,13.33-5.18c4.84-4,6.79-9.59,8.25-15.4a62.29,62.29,0,0,0,1.4-18,34.46,34.46,0,0,0-2.74-12.8,25.48,25.48,0,0,0-9.35-11.47c-5.17-3.29-11-3.78-17-3.27-8,.69-14.06,4.33-17.86,11.48A43.68,43.68,0,0,0,7326.41,7124.65Z"
        transform="translate(-6946.38 -6936.09)" />
    <path class="cls-1"
        d="M7318.44,7386.41c.83-7.44,3.79-13.61,10.18-17.77a10,10,0,0,1,8-1.52c2,.47,4,1,5.93,1.61a2.77,2.77,0,0,1,1.45,1.15c-2,0-4,0-6.05,0-1.22,0-1.55.8-1.25,1.89a6,6,0,0,0,.44,1.48c2.53,4.51,2,9.79,3.68,14.5,2.05,5.92,4.2,11.76,9.2,16.13,5.26,4.59,12.42,3.74,17.43.54,8.25-5.27,13.77-13,19.39-20.73,1.64-2.25,3-4.68,4.49-7.06a15.7,15.7,0,0,0,.9-2.13l-7.13-.4a10,10,0,0,1,1.28-1.35,12.15,12.15,0,0,1,15.41,1.33,14.89,14.89,0,0,1,3.9,9.93,28.67,28.67,0,0,1,0,3.59,9.45,9.45,0,0,1-.53,1.9l-.43-.1c-.35-1.41-.7-2.83-1.06-4.24a5.52,5.52,0,0,0-.35-1c-1.51-3.26-3.4-3.74-5.88-1.17-6.25,6.46-12.48,12.95-18.52,19.61-4.67,5.15-9.1,10.52-13.48,15.91-2.95,3.63-5.54,7.54-8.45,11.2-2.28,2.87-4.22,6.1-7.76,7.77-5.39,2.55-10.53,2.64-15.73-.67-5.44-3.46-7.69-8.68-8.81-14.63-1.88-10.1-.88-20.13,1.05-30.11,1-5.2,2.15-10.38,3.18-15.58a5.61,5.61,0,0,0-.13-1.56c-.58.11-1.31,0-1.73.34-3.12,2.36-5.84,5.08-7.31,8.83A18.14,18.14,0,0,1,7318.44,7386.41Zm24.25,31.57-.58,0c-.09-.13-.26-.26-.26-.4a20,20,0,0,0-4.92-12.62c-1.73-2.09-3.32-4.53-6.47-4.92-1.16-.15-1.45.16-1.67,1.22a47.17,47.17,0,0,0-.32,18c1,5.84,3.35,11.07,8.25,14.85,3,2.32,8.11,3.27,10.61,1.58,5.26-3.55,6.31-7.17,4.44-12.94-1.71-5.29-5.57-9.06-9.5-12.74,0,0-.19.07-.05,0C7342.38,7412.76,7342.53,7415.37,7342.69,7418Z"
        transform="translate(-6946.38 -6936.09)" />
    <path class="cls-1"
        d="M6981,7130.05c.34,2.27,0,3.72-1.85,4.37-2.13-5.21-.44-10.05,8.31-14.69a37.38,37.38,0,0,1-2.2,3.18c-.67.78-.78,1.3.12,1.91,9,6.23,18.58,11,29.63,12.63a96.52,96.52,0,0,0,33.05-.42c7.72-1.53,14.64-5,21.29-9.09a47.51,47.51,0,0,0,12.4-10.88,15.83,15.83,0,0,0,2.41-5.33,2.74,2.74,0,0,0-1.42-3.19c-1.43-.78-1-1.35.14-2a7.38,7.38,0,0,1,8.74,1.5c2.7,3,3.45,6.87,1.88,11.39a24.5,24.5,0,0,0-1.22-2.36c-.64-.94-1.21-2.28-2.11-2.59-.75-.25-2.17.5-2.86,1.22-1.19,1.27-1.95,2.93-3.07,4.29-7.53,9.1-16.63,16.16-27.85,20.07-7.8,2.71-16,3.52-24.27,3.75a97.75,97.75,0,0,1-22.26-2,59,59,0,0,1-17.25-5.93,1.65,1.65,0,0,0-1.31-.16l1.24,1.09c.47.42,1,.82,1.4,1.26,5.77,5.74,12,10.86,19.31,14.56,11.92,6,24.18,6.49,36.69,2.36a63.72,63.72,0,0,0,11.07-4.54c4.75-2.64,9.17-5.87,13.67-8.81a5.46,5.46,0,0,1-.2.69c-1.73,4.67-5.21,7.76-9.25,10.4a56.48,56.48,0,0,1-26.61,9.56,53.3,53.3,0,0,1-39.07-12,78.8,78.8,0,0,1-16.89-18C6982.25,7131.62,6981.78,7131.08,6981,7130.05Z"
        transform="translate(-6946.38 -6936.09)" />
    <path class="cls-1"
        d="M7049.73,7104.12c1-3.3,1.69-6.73,3.07-9.87,2.12-4.83,2.31-9.77,1.9-14.87a24.11,24.11,0,0,1,1.39-11.44c.91-2.14,2.67-3.92,4-5.89a8.59,8.59,0,0,0,.66-1.62c1.14-2.93,1.35-6.05,2-9.08a24.32,24.32,0,0,0,.91-4.69,7.38,7.38,0,0,1,.23-1.29,20.58,20.58,0,0,1-4.07-2.4,12.38,12.38,0,0,1-2.2-3.65,6.24,6.24,0,0,1-.4-2,9.62,9.62,0,0,1-.2-2.71,133.07,133.07,0,0,1,4.13-16.29c1-3.21,0-6.5-1.17-9.52a51.5,51.5,0,0,0-4-7.51,9,9,0,0,0-6.64-4.37,5,5,0,0,0-3.31.89,30.11,30.11,0,0,0-9.25,11.49c-5.17,10.46-7.46,21.73-9.05,33.19a156.59,156.59,0,0,0,.79,47.1c.37,2.31.71,4.63,1.17,6.92a2.11,2.11,0,0,0,1.07,1.32,20.64,20.64,0,0,1,10.77,9.44,9,9,0,0,1-2.15-.94c-4.64-3.6-10-4.15-15.44-3.12-1.7.32-3.19,1.81-4.74,2.83a17.78,17.78,0,0,0-1.82,1.63c0-.66-.1-1,0-1.19a63,63,0,0,1,3.95-6.51c.76-1,2.18-1.51,3.33-2.2a6.06,6.06,0,0,1,1.08-.42c-1-5.52-2.16-10.79-2.79-16.12a155.59,155.59,0,0,1-.07-31,160.63,160.63,0,0,1,6.9-36.27,42.26,42.26,0,0,1,9.73-15.94c2.6-2.77,5.85-4.73,9.83-4.47,4.49.28,7.85,2.77,10.07,6.52a52.29,52.29,0,0,1,7,20.4c1.58,12.87.69,25.62-1.11,38.4-1.55,11-4.62,21.63-7.73,32.24-1.17,4-2.29,8.17-5.21,11.44-.6.68-1.31,1.28-2,1.91Z"
        transform="translate(-6946.38 -6936.09)" />
    <path class="cls-1"
        d="M7308.9,7369.46c1.83-6.29,3.07-12.67,8-17.44,4-4,8.57-6.74,14.33-7.14,1-.07,1.26-.51,1.15-1.46-1-9.19.75-18,4.22-26.42a73.56,73.56,0,0,1,21.81-29.75c4.13-3.33,8.75-6.14,14.07-7.19,4.59-.91,9.12-.58,13.06,2.41a10.9,10.9,0,0,1,4.21,6.83,59.32,59.32,0,0,1,.56,15.18,84.54,84.54,0,0,1-3.81,18.68c-2.06,6.76-4.49,13.44-8.22,19.5a111.91,111.91,0,0,1-8.31,12,37.23,37.23,0,0,1-17.17,11.68,25.35,25.35,0,0,1-4.18.63c0-1.47.06-2.7,0-3.91a15.13,15.13,0,0,0-5-10.55c-2.72-2.51-6.22-2.36-9.59-2.08-7.7.64-13.71,4.49-18.79,10.13-2.21,2.45-4.39,4.87-5.71,7.95A6,6,0,0,1,7308.9,7369.46Zm42.67-6.41a51.84,51.84,0,0,0,6.69-3.59,65.11,65.11,0,0,0,16.24-17.9,67,67,0,0,0,7.71-18.53c2.59-9.49,4.15-19.05,2.42-28.9-1-5.65-4.65-8.58-10.38-8.54s-10.36,2.74-14.7,6.14c-5.07,4-8.66,9.18-12.24,14.42a67.57,67.57,0,0,0-9,18.33,64,64,0,0,0-2,9.81c-.42,3-.45,6.14-.57,9.22,0,.69,0,1.41,1.18,1.48,6.73.4,10.91,4.14,13,10.33A77.9,77.9,0,0,1,7351.57,7363.05Z"
        transform="translate(-6946.38 -6936.09)" />
    <path class="cls-1"
        d="M7422.18,7389.3c-.23-2.64-.27-5.32-.75-7.91a130.75,130.75,0,0,0-3.08-14.16c-1.57-5.29-5.25-8.89-10.38-11.13-6.23-2.71-12.45-2.21-18.75-.51-.32.09-.63.24-1,.34-.09,0-.21,0-.33-.07s-.13-.25-.1-.28c1.67-1.5,1.72-3.12,1.1-5.29-1.32-4.7-.49-9.48.15-14.24a86.77,86.77,0,0,1,6.87-24.61c2.71-6,5.75-11.83,10.6-16.45,2.5-2.38,5.29-4.21,9-3.82,4.51.47,6.8,3.53,8.44,7.3,3.34,7.68,3.11,15.7,2.1,23.76a60.06,60.06,0,0,1-7.74,22.17c-2.1,3.73-4.63,7.34-9.17,9.55C7425.26,7361.59,7428.07,7373.94,7422.18,7389.3Zm-29-39c.41-.05.74-.06,1.06-.12,4.12-.76,8.22-1.39,12.3.26a2.12,2.12,0,0,0,1.77-.27c1.33-1.08,2.52-2.32,3.76-3.5-2.62,0-3.89-1.59-4.91-3.34a5.38,5.38,0,0,1-.77-2.76,48.7,48.7,0,0,1,.82-8.46,9.81,9.81,0,0,1,2.65-4.64c2.82-2.76,5.71-1.9,6.88,1.84.54,1.74.86,3.54,1.28,5.32,1.19-3.21,2.62-6.43,2.92-9.75a71.19,71.19,0,0,0-.15-14.3,25.75,25.75,0,0,0-3-8.44c-1.53-3-4-3.59-7.11-2.24a16.71,16.71,0,0,0-7.39,6.67,76.16,76.16,0,0,0-10.9,29.8A36.77,36.77,0,0,0,7393.22,7350.34Z"
        transform="translate(-6946.38 -6936.09)" />
    <path class="cls-1"
        d="M7077.15,7097.34a9,9,0,0,1,1.16-2.09c5.06-5.13,6.79-11.85,8.47-18.45a243.38,243.38,0,0,0,5.13-24.59,119,119,0,0,0,.67-30.4c-.79-7-1.78-13.93-3-20.84-.67-3.8-2-7.49-3-11.22-.21-.79-.45-1.56-.67-2.34l.53-.22c1.06,2.23,2.18,4.43,3.17,6.68,4.57,10.37,6.94,21.36,8.53,32.49,1.19,8.39.61,16.87-.14,25.29a162.53,162.53,0,0,1-5.05,28.79c-.53,1.9-.74,3.89-1.13,6,1.36.13,2.69.23,4,.41a14.54,14.54,0,0,1,11.06,7.29c1.69,2.95,2.72,6.28,4.05,9.44l-.56.35c-.37-.42-.74-.83-1.1-1.26-2.06-2.41-4-4.92-6.19-7.22-3.14-3.33-7.11-3.69-11.21-2.38-2.86.91-5.54,2.39-8.38,3.36a49.25,49.25,0,0,1-6.07,1.31Z"
        transform="translate(-6946.38 -6936.09)" />
    <path class="cls-1"
        d="M6949.71,7006a15.87,15.87,0,0,1,.33,2.44,217.56,217.56,0,0,0,2.08,37.57,122,122,0,0,0,9.17,32c3,6.6,6,13.17,9.2,19.67a31.94,31.94,0,0,0,8.13,10c.31.27.61.52.89.81a2.41,2.41,0,0,1,.23.57c-7.47.9-12.38,5.44-16.08,11.45-3.85,6.23-4.34,12.75-.81,19.4-2.5-1-5.31-7.47-5.52-12.24-.45-10,4.91-16.29,13.26-21-1.53-2.19-3.16-4.41-4.67-6.72a132.21,132.21,0,0,1-11-21.46,110,110,0,0,1-8.24-35.33,159.25,159.25,0,0,1-.15-18.28c.2-4.11,1.28-8.18,1.94-12.27.36-2.19.66-4.38,1-6.58Z"
        transform="translate(-6946.38 -6936.09)" />
    <path class="cls-1"
        d="M7011.39,7112.75c-3.24-2.36-4.36-3.1-3.71-7a10.06,10.06,0,0,0-.23-3.22c-.18-1.18-.54-2.33-.74-3.51a11.69,11.69,0,0,0-.77-3.23v2c-.12-2.11-2-3.07-3-4.58-1.76-2.71-2.68-5.64-1.83-8.9a2.58,2.58,0,0,1,.74-1.46c2.64-1.67,2.71-4.3,2.66-6.94a18.65,18.65,0,0,0-.45-3.73,7.11,7.11,0,0,0-4-5.23c-3.36-1.61-4.75-4.44-4.36-8.13.44-4.07,1-8.13,1.28-12.22a20.69,20.69,0,0,0-.53-6.71,53.81,53.81,0,0,0-8.37-16.72,32.06,32.06,0,0,0-8-7.8,4.37,4.37,0,0,1-.59-.55l.19-.5c1.6.51,3.22,1,4.81,1.54,3.43,1.25,5.55,4.05,7.82,6.68,4.77,5.55,7,12.32,9.15,19.12a176.56,176.56,0,0,1,5.94,28.26c1.16,8.3,2.46,16.6,3.34,24.93.61,5.72.6,11.5.85,17.25C7011.65,7112.31,7011.52,7112.46,7011.39,7112.75Z"
        transform="translate(-6946.38 -6936.09)" />
    <path class="cls-1"
        d="M7343.93,7278.08a33.7,33.7,0,0,1,1.89-12.4,81.68,81.68,0,0,1,10.66-21.54c6-8.41,13.21-15.56,22.9-19.77a22.28,22.28,0,0,1,13.21-1.57,10.4,10.4,0,0,0,2.54-.12l11.42-.8a1.08,1.08,0,0,1,1,.51c-.61.1-1.22.24-1.83.29-2.73.22-5.47.34-8.19.64-6.22.67-11.43,3.8-16.49,7.11-10.22,6.7-18,15.77-24.89,25.74-4.54,6.55-7.64,13.85-11.5,20.75C7344.39,7277.31,7344.16,7277.69,7343.93,7278.08Z"
        transform="translate(-6946.38 -6936.09)" />
    <path class="cls-1"
        d="M6963,7043.07c-.3-1.24-.68-2.46-.89-3.71a78.19,78.19,0,0,1-.44-22.86c.81-6.21,2.6-12,6.33-17.15,6.79-9.3,17.68-10.06,25.92-2,6,5.89,8.79,13.33,10.59,21.26.77,3.39,1.18,6.86,1.73,10.3a2.61,2.61,0,0,1-.35,1.68,9.35,9.35,0,0,1-.69-1.38c-2.17-7.17-4.75-14.17-8.76-20.55a29.88,29.88,0,0,0-7.16-8c-4.7-3.58-10.48-3.23-15.41.78-4,3.24-5.73,7.76-7.29,12.35a74.83,74.83,0,0,0-3.57,23.58,43.65,43.65,0,0,0,.63,5.55Z"
        transform="translate(-6946.38 -6936.09)" />
    <path class="cls-1"
        d="M7031.57,6989.22a62.08,62.08,0,0,1,4.13-5.53c4-4.34,8.57-8,14.26-10,8.92-3.18,16.13-.35,20.92,7.83,5.13,8.77,7.29,18.25,7.5,28.27.11,5.29.05,10.6.06,15.9a1.21,1.21,0,0,1-.16.42l-.5.05c-.25-1.8-.56-3.6-.75-5.42-1.12-10.8-2.82-21.47-7.26-31.51a24.59,24.59,0,0,0-5.56-8.13c-4.14-3.87-9.14-3.71-14.2-2.7a27.82,27.82,0,0,0-12.84,6.09c-1.84,1.56-3.46,3.4-5.17,5.11Z"
        transform="translate(-6946.38 -6936.09)" />
    <path class="cls-1"
        d="M7391.59,7274.54c-1.08-1.88-2-3.86-3.27-5.62a10.62,10.62,0,0,0-7.51-4.32c-7.61-1.07-14.91-.42-21.41,4.23a10.77,10.77,0,0,1-1.18.7c-.07,0-.19,0-.53-.42,3.46-2,6.89-4.1,10.37-6.09a19.43,19.43,0,0,1,10.22-2.4c5.41.1,9.88,2.2,12.28,7.22,1,2,.95,4.47,1.38,6.72Z"
        transform="translate(-6946.38 -6936.09)" />
    <path class="cls-1"
        d="M7422.6,7280.72c-2.67-2.79-5.9-1.55-8.87-1a14.92,14.92,0,0,0-9.71,6.24c-2,2.77-3.64,5.77-5.45,8.66-.14.22-.32.43-.65.87a3.37,3.37,0,0,1-.09-.85c1.25-4.47,2.5-9,5.55-12.59,4.58-5.37,10.68-6.83,16.95-4.09a12.23,12.23,0,0,1,2.68,2.3Z"
        transform="translate(-6946.38 -6936.09)" />
    <path class="cls-1"
        d="M7012.56,7110c7.65,2.49,15.32,4.38,23.38,4.44-1.86,1.84-8.87,2.89-12,2.35C7019.25,7116,7016.37,7112.29,7012.56,7110Z"
        transform="translate(-6946.38 -6936.09)" />
    <path class="cls-1"
        d="M6989.86,7106.44l-3.89-4.26-.67,1.77c-1.65-.27-3.08-2.11-3.21-4.46a38.71,38.71,0,0,1,.09-4.44c0-.39.28-1,.55-1.09a1.49,1.49,0,0,1,1.31.34,55.29,55.29,0,0,1,3.5,5.4c1,1.83,1.77,3.79,2.61,5.71a2.53,2.53,0,0,1,.08.79Z"
        transform="translate(-6946.38 -6936.09)" />
    <path class="cls-1"
        d="M7025.36,7238.41l33.58,34.13c-.42.5-.82,1.06-1.3,1.53q-6.41,6.27-12.84,12.52c-6.15,6-12.33,11.94-18.41,18a6.85,6.85,0,0,0-1.94,3.52,3.81,3.81,0,0,0,1.27,3.5c2,1.72,4.06,3.45,6.16,5.08a1.56,1.56,0,0,0,1.48-.28c3.09-4,6-8.18,9.17-12.06,2.32-2.79,5.07-5.23,7.65-7.8q4.13-4.1,8.3-8.12c2.86-2.76,5.75-5.5,8.49-8.12l35.1,34.27a6.19,6.19,0,0,1,3-5.4c2.3-1.46,2.54-3.55.6-5.54-.71-.73-1.53-1.35-2.24-2.08q-9.26-9.48-18.49-19c-3.4-3.51-6.76-7.06-10.58-11l35.29-34.56c-2-2.26-3.95-4.46-5.86-6.71-1.65-2-3.12-2.18-4.86-.94.08,2.84-1.23,4.14-3.64,4.78l.87.72-28.63,29.24-31.87-34.39Z"
        transform="translate(-6946.38 -6936.09)" />
    <path class="cls-1" d="M7004.91,7180.59c-.65-2.34-.24-3.46,1.13-4Z"
        transform="translate(-6946.38 -6936.09)" />
    <path class="cls-1"
        d="M7343.5,7416.33l-.42.08c.26,1.52.52,3,.83,4.9l1.35-1.08-.17-.28-1,.09C7343.86,7418.7,7343.68,7417.52,7343.5,7416.33Z"
        transform="translate(-6946.38 -6936.09)" />
    <path class="cls-1"
        d="M7366.73,7338.38c-.28-1.85-.45-3.73-.89-5.55a5,5,0,0,0-3.73-3.86c-1.87-.46-3.15.69-4.2,2.05a6.14,6.14,0,0,0-1.26,2.17,93,93,0,0,0-2,10,8.9,8.9,0,0,0,1.41,6.55c1.25,1.65,2.8,2.25,4.26,1.34a13.54,13.54,0,0,0,3.3-2.87C7366,7345.4,7366.42,7341.94,7366.73,7338.38Z"
        transform="translate(-6946.38 -6936.09)" />
    <path class="cls-1"
        d="M7167.63,7317.5c-1.93-1.55-3.91-3.06-5.81-4.67a3.68,3.68,0,0,1-.14-5.5c3.28-3.49,6.73-6.82,10-10.34,4.46-4.81,8.78-9.75,13.19-14.6,2-2.15,4-4.24,6-6.33s2.21-2.67.25-4.81c-2.79-3.07-5.81-5.95-8.74-8.9-2.53-2.55-5.1-5.07-7.63-7.62-4.89-5-9.78-9.91-14.63-14.9a7,7,0,0,1-1.81-2.66c-.26-.87.15-1.93.29-3.07l2.51.66-.73-1.94,2.53-.83-.11-.79a9,9,0,0,1,1.73-1.81,1.64,1.64,0,0,1,1.51.31c2.65,2.49,5.22,5.08,7.83,7.61,6.73,6.5,13.51,12.95,20.19,19.5,2.31,2.27,4.42,4.75,6.85,7.38l32.69-37.07.4,1.26c1,.21,2.91-1.22,2.79,1.1,1.23.67,2.88,1,3.32,2s-.44,2.36-.77,3.69l2.33-1.48.33.33a12.09,12.09,0,0,1-.76,1.11c-5.12,6.13-10.18,12.31-15.39,18.35-3.76,4.36-7.76,8.52-11.61,12.8-1.63,1.81-3.15,3.73-4.73,5.58-1,1.2-.48,2.18.4,3.1,4.67,4.84,9.41,9.62,14,14.52,5,5.35,10,10.75,14.9,16.25,1.95,2.21,3.54,4.74,5.6,7.55a25.85,25.85,0,0,0-3.37,2.12c-1.24,1.08-2.28,2.38-3.44,3.56a4.32,4.32,0,0,1-1,.56l-.56-1a11.73,11.73,0,0,0-1.17-2c-1.06-1.25-2.2-2.45-3.36-3.61-3.68-3.67-7.39-7.31-11.09-10.95-4.85-4.75-9.73-9.45-14.53-14.24-1.89-1.88-3.58-3.95-5.51-6.1-1.72,1.9-3.51,3.87-5.28,5.85-3.23,3.59-6.49,7.16-9.67,10.79-2.69,3.08-5.29,6.24-7.93,9.37s-5,6.48-8.69,8.54C7168.39,7316.39,7168.11,7317,7167.63,7317.5Z"
        transform="translate(-6946.38 -6936.09)" />
    <path class="cls-1"
        d="M7025.36,7238.41l10.3-8.75,31.87,34.39,28.63-29.24-.87-.72c2.41-.64,3.72-1.94,3.64-4.78,1.74-1.24,3.21-1,4.86.94,1.91,2.25,3.89,4.45,5.86,6.71l-35.29,34.56c3.82,4,7.18,7.54,10.58,11q9.23,9.51,18.49,19c.71.73,1.53,1.35,2.24,2.08,1.94,2,1.7,4.08-.6,5.54a6.19,6.19,0,0,0-3,5.4l-35.1-34.27c-2.74,2.62-5.63,5.36-8.49,8.12s-5.55,5.39-8.3,8.12c-2.58,2.57-5.33,5-7.65,7.8-3.22,3.88-6.08,8.06-9.17,12.06a1.56,1.56,0,0,1-1.48.28c-2.1-1.63-4.13-3.36-6.16-5.08a3.81,3.81,0,0,1-1.27-3.5,6.85,6.85,0,0,1,1.94-3.52c6.08-6.06,12.26-12,18.41-18q6.42-6.26,12.84-12.52c.48-.47.88-1,1.3-1.53Z"
        transform="translate(-6946.38 -6936.09)" />
    <path class="cls-1"
        d="M7211.33,7081.48a49.61,49.61,0,0,1,20.75,4.18,32.76,32.76,0,0,1,14.8,13.54,52.7,52.7,0,0,1,7,24.08c.59,10.35-1.08,20.14-6.21,29.2-3.6,6.37-8.05,12-14.35,16-8.63,5.5-18,7.22-28,5.82a41.2,41.2,0,0,1-14.46-4.55c-7.59-4.21-12.93-10.55-16.63-18.32-4.71-9.91-5.49-20.38-4.5-31.12a46.82,46.82,0,0,1,8.23-23.08,33,33,0,0,1,11.25-10.08C7196,7083.43,7203.21,7081.16,7211.33,7081.48Zm-24.25,44.91a54.76,54.76,0,0,0,3.36,18.57c3.58,9.86,12.12,15.6,22.51,14.65s16.52-6.54,19.2-15a54.56,54.56,0,0,0,.38-33.16,21.21,21.21,0,0,0-12.72-14.08c-5.37-2.19-10.91-1.93-16.31-.44-5.71,1.57-9.75,5.31-12.35,10.72A41.18,41.18,0,0,0,7187.08,7126.39Z"
        transform="translate(-6946.38 -6936.09)" />
    <path class="cls-1"
        d="M7343.5,7416.33c.18,1.19.36,2.37.57,3.71l1-.09.17.28-1.35,1.08c-.31-1.86-.57-3.38-.83-4.9Z"
        transform="translate(-6946.38 -6936.09)" />
    <path class="cls-1"
        d="M7366.73,7338.38c-.31,3.56-.76,7-3.07,9.86a13.54,13.54,0,0,1-3.3,2.87c-1.46.91-3,.31-4.26-1.34a8.9,8.9,0,0,1-1.41-6.55,93,93,0,0,1,2-10,6.14,6.14,0,0,1,1.26-2.17c1.05-1.36,2.33-2.51,4.2-2.05a5,5,0,0,1,3.73,3.86C7366.28,7334.65,7366.45,7336.53,7366.73,7338.38Z"
        transform="translate(-6946.38 -6936.09)" />
</svg>