<svg id="Layer_1" data-name="Layer 1" xmlns="http://www.w3.org/2000/svg" viewBox="0 0 5776.89 9543.62"><defs><style>.cls-1,.cls-3{opacity:0.5;}.cls-2,.cls-3{fill:#fff;}.cls-2,.cls-3,.cls-4{stroke:#000;stroke-miterlimit:10;stroke-width:15px;}</style></defs><g class="cls-1"><path class="cls-2" d="M12811.89,10676.77c-3.18-17-6.68-34-9.47-51-3.9-23.81-8.17-47.62-10.65-71.6-4.2-40.53-4.46-81.07,3-121.45,6.19-33.23,19.38-63.18,40.46-89.42,15.08-18.76,34-31.67,59-33.3,23.35-1.53,40.5,9.83,54.39,27.06,20.82,25.82,32.36,56,41.65,87.52,9.46,32.07,11.8,64.7,10.54,97.73a298.5,298.5,0,0,1-15.78,85.47,352.18,352.18,0,0,1-43.89,86.94c-21,30.41-46.15,57.27-73.56,81.95-26.59,24-53.83,47.19-80.52,71-27.62,24.68-54.1,50.64-74.9,81.43-27.58,40.81-43.34,85.72-39.85,135.71,3.42,49.06,22.83,90.69,60.05,123.57,23.89,21.11,51.25,35.74,82.16,43.08,19.17,4.55,39,6.06,58.56,3.41,29.27-4,52.85-19,73.92-39.29,15.48-14.86,27.53-31.46,33.76-52.07,5.24-17.33,5.53-35.11,4.16-53a118,118,0,0,0-16.69-52.78c-18.1-29.81-44.1-49-79-53.09-30.53-3.59-55,9.81-74.66,32.38-23.72,27.19-31.78,59.12-28.27,94.61,2.74,27.74,14.7,50.74,34.28,70.13a6.26,6.26,0,0,1,2.05,3.67c-5.09-3.69-10.12-7.46-15.28-11-32.71-22.74-52.63-54.26-61.36-92.57-5.89-25.85-2.67-51.63,6.14-76.6,10-28.31,26.93-51.74,50.22-70.58,12.37-10,26.34-17.26,40.9-23.6,29.65-12.91,59.8-12,89.77-2.56,70.28,22,110.57,71.18,124,142.42,7.61,40.33,1.6,79.84-16.24,116.82-25.53,52.93-67,88-122.93,106.07-.29.09-.52.39-1.27,1,3.3,21.86,7.11,44,9.89,66.23,3.89,31,7.93,62.06,10.16,93.22,1.81,25.34-4.26,49.55-19.94,70.15-18.37,24.15-42.76,38.24-73.34,41.45-26.66,2.8-52.67.28-77.5-9.66-25.37-10.15-45.46-27.32-61-49.83-13.18-19.11-20.84-40.16-21.54-63.38-1.63-54.37,43.41-88.13,91.21-77.91,30.67,6.55,52.93,32.33,57.9,63.79,5.44,34.39-14.76,59.86-39,70.93-11.94,5.44-24.91,7.13-38,6.75-3.85-.12-7.4-1.16-9.74-5-1-1.68-3.32-2.64-5.15-3.75-5-3-10.15-6-15.23-9-.31.33-.61.67-.92,1,6.79,6.41,13.32,13.14,20.44,19.16a116.36,116.36,0,0,0,52.16,25c20.22,4.2,40.66,4.17,60.12-2.87,27.49-9.95,43.12-34.12,43.82-64.22.5-21.42-1.87-42.58-4.93-63.69q-5.34-36.82-11.05-73.58c-.79-5.08-2.27-10-3.5-15.06a9.11,9.11,0,0,0-8-7.19c-6.73-1-13.48-2.25-20.26-2.48-59.24-2-113.19-19.62-160.77-55.17-23-17.17-41.72-38.54-57.31-62.72a251.94,251.94,0,0,1-35.49-87.26c-8-39.29-6.57-78.42,2.85-117.38,10.15-42,30-79.06,56.19-113.06,19.73-25.59,43.5-47.2,67.34-68.7,33.38-30.1,67.46-59.42,100.48-89.89,27.84-25.67,52.72-54.21,73.41-86,15.06-23.12,28.55-47.3,35.09-74.5,5.36-22.31,6.78-44.73-.85-67-3.54-10.33-9.25-19.28-18.06-25.73-14-10.28-21.32-10.6-36.54-1.16-14.75,9.13-24.23,22.87-31.47,38.45-13.11,28.19-17.29,58-15.12,88.56,1.77,24.88,5.1,49.66,7.71,74.48.72,6.84-.17,13-5.69,18.14-7.4,6.85-14.4,14.16-21.56,21.27Zm139.44-235.79c.66,1.3,1.32,2.59,2,3.89,9.66,19.29,15.32,39.66,15.55,61.27.38,36.84-9.21,71.42-25.79,104-15.35,30.11-36,56.66-58.36,81.88-28.63,32.36-60.9,61-93.25,89.48-30.49,26.86-60.77,53.94-86.85,85.27-22.9,27.51-42.09,57.17-54,91.34-17.4,50-17.76,100.25-2.83,150.56,10.75,36.19,31.09,66.72,59.44,91.75,5.36,4.74,11.22,8.91,16.85,13.35.39-1.25.14-1.66-.2-2-.74-.67-1.51-1.31-2.29-1.93a206.76,206.76,0,0,1-66.11-92.57c-15.2-42.07-18.31-85-7.14-128.46a248.16,248.16,0,0,1,37.47-81.47,454.62,454.62,0,0,1,66.53-75.51c30.8-28,62.34-55.13,93.1-83.14,31.1-28.31,59.07-59.53,82.85-94.3a263.28,263.28,0,0,0,37.79-81.34c8.91-33.42,11.14-66.78,2-100.42C12964.92,10460.9,12960.37,10449.72,12951.33,10441Zm13.85,767.12.38.29c.85-.77,1.72-1.51,2.54-2.3,17.91-17,31.29-37,39.24-60.44,12.33-36.37,12.59-72.76-.5-109-13.52-37.42-38.58-64.37-74.78-80.81-21.95-10-45.09-14.14-68.58-8.08-44.5,11.48-76.52,36.74-86.83,84-.6,2.75-1.09,5.52-1.59,8.3-.46,2.6-.94,5.21-1.26,7.84s-.45,5.22-.66,7.83a10.38,10.38,0,0,0,2.05-4.72c3.2-13.73,6.51-27.36,13.55-39.85,26.53-47.08,86.44-69.39,140.23-46.07,48.71,21.12,75.9,59.48,82.84,111.4,5.19,38.81-4.55,74.93-26.9,107.23C12979,11192.29,12971.79,11200,12965.18,11208.1ZM12854.73,10383c23.18-15.43,47.66-17.69,73.49-8.44-3.45-5.32-10.28-9.66-17.53-11-13-2.37-25.4-.53-37.4,4.81C12865.88,10371.66,12859.42,10376.11,12854.73,10383Zm-74.52,998.73-1.36,1,10,14.13,1.43-1Q12785.26,11388.77,12780.21,11381.7Z" transform="translate(-7651.65 -2694.13)"/><path class="cls-2" d="M12849.88,11041.91a15.25,15.25,0,0,1,1.1-3.39c4.46-8.23,21.61-16.69,30.86-14.88,1.66.32,4,2.62,4.17,4.23,2.25,18.5,4.07,37.06,6.17,55.58,2.09,18.34,4.21,36.68,6.61,55,3.29,25.23,7,50.41,10.2,75.65.78,6.19-5.07,8.39-9.22,10.24-6.61,3-13.82,4.53-20.77,6.69-2.54.78-3.57-.14-3.94-2.79-4.92-35.09-10-70.15-14.88-105.25-2.87-20.59-5.51-41.22-8.18-61.84C12851.2,11055,12850.64,11048.9,12849.88,11041.91Z" transform="translate(-7651.65 -2694.13)"/><path class="cls-2" d="M12665.34,11550.27c7.23-6.76,16.72-5.67,25.09-8.29,8-2.5,15.92-.23,23.78-1.65a142,142,0,0,1,16.09-1.87c1.6-.1,3.43.88,4.9,1.78a153.46,153.46,0,0,0,49.4,19.36c24.92,5.21,49.88,5.61,75,2.27a3.35,3.35,0,0,1,2.81.94c-4.49.93-8.94,2.16-13.47,2.73-29.2,3.61-58.49,2.14-87.77,1.32-15.19-.43-30.4-.56-45.58-1.32-5.09-.26-10.07-2.26-15.17-3.1-3.13-.51-6.46.1-9.55-.56a168.58,168.58,0,0,1-20.71-5.44C12668.07,11555.7,12666.88,11552.35,12665.34,11550.27Z" transform="translate(-7651.65 -2694.13)"/><path class="cls-2" d="M12872.35,10885c1.13,3.06-1.26,4.37-4.55,5.15-8.86,2.12-17.73,4.21-26.55,6.49-2.83.73-4-.15-4.43-2.89-2.42-14.88-5.23-29.71-7.11-44.65-.34-2.78,2.27-7,4.79-8.83,5.36-3.81,11.43-6.72,17.44-9.49,7.06-3.26,12.39-.78,14.24,6.85,1.4,5.77,1.78,11.8,2.54,17.72C12869.93,10864.94,12871.07,10874.5,12872.35,10885Z" transform="translate(-7651.65 -2694.13)"/></g><path class="cls-3" d="M11460.43,9699.1c4.56,1.44,9,3.4,13.7,4.24q53.58,9.68,107.23,19,115.93,19.83,231.93,39.39,69,11.67,138,23.11c8.7,1.45,17.4,2.9,26.12,4.25,11.15,1.72,14.87,5.13,17,16.37q5.15,26.76,10.08,53.56,32.93,178,65.83,355.94c8.79,47.52,17.54,95,26.54,142.53a17.56,17.56,0,0,0,4.78,8.74c12.14,11.82,22.14,25,26.58,41.57,7.52,28.17.33,53.43-16.32,76.39-19.66,27.12-46.61,44.4-77.77,55.32-33.12,11.61-67.1,15.52-101.86,8.91-28.4-5.39-54.14-16.22-74.64-37.5-23.32-24.19-29.43-61-14.94-91.33,14.78-30.9,39.64-51.34,69.55-66.26a192.56,192.56,0,0,1,78.82-20.22c14.23-.56,28.54.78,43.25,1.27a21.91,21.91,0,0,0-.21-3.24q-40-216.06-80.1-432.11c-.43-2.29-1.43-4.55-1.44-6.83,0-8.87-5.21-11.06-13.09-12.37-62.42-10.36-124.77-21.13-187.13-31.85-44-7.55-87.92-15.29-131.9-22.83-34.13-5.86-68.28-11.54-102.43-17.26a42.2,42.2,0,0,0-4.84-.24c.81,4.36,1.54,8.27,2.26,12.17q28.62,154.36,57.24,308.72c3.71,20,7.55,40,11,60,.71,4.1,3.19,4,6,4.27,20.79,2,40.66,7.27,59.12,17.1,19.22,10.24,35.58,23.84,45,43.92,13.18,28,9.48,55.36-6.45,81-22.42,36.07-56.59,56.06-96.41,67.3-36.13,10.19-72.46,10.21-108.38-1.08-23-7.22-43.06-19.34-58.32-38.54-21.26-26.75-23.26-62.2-5-93.65,13.9-23.9,34.27-41,58.28-54,13.66-7.39,28-13.33,43.25-16.57,5-1.07,6.23-2.83,5.26-7.93q-15.41-81.29-30.4-162.66-27.9-150.69-55.57-301.4c-1.05-5.74-.18-11.83-.34-17.74a39.1,39.1,0,0,0-.88-5.43Z" transform="translate(-7651.65 -2694.13)"/><g class="cls-1"><path class="cls-4" d="M12259.33,11949.08c-18,7.29-36.13,14-55.68,15.88-21.36,2-41.95-.22-59.76-13.17-22.35-16.26-28.73-39.57-25.64-65.72,4.51-38.25,22-70.78,48.13-98.25,12.76-13.4,28.16-24.27,42.78-36.64-1.35-1.84-2.5-3.63-3.87-5.24q-111.72-132-223.47-264c-4.07-4.82-8.24-9.58-12-14.65-2.55-3.45-4.84-3.47-8.56-1.69q-94.49,45.23-189.12,90.16c-40.74,19.3-81.65,38.28-122.47,57.41-1.3.6-2.53,1.34-4.43,2.35L11844.4,11851c16.86-4.91,32.85-10.73,49.34-14.06,18.61-3.75,37.49-2.23,54.68,6.7,26.27,13.65,37.09,36.41,36.19,65.35-.71,22.69-9.05,43-19.88,62.49-26.4,47.51-65.26,80.14-117.07,96.65-21.24,6.76-43.07,7.36-64.43-.21-26.16-9.27-39.56-28.54-41.79-55.76-2.47-30,6.87-57.27,22.48-82.14,9.72-15.5,22-29.37,33.2-44,1-1.32,2-2.66,2.94-3.9l-159.07-188q-42.8-50.59-85.58-101.19a68.08,68.08,0,0,1-5.75-7.5c-8.69-13.67-5.83-24.54,8.66-31.38,68.64-32.39,137.44-64.44,206-97,58.69-27.9,117.13-56.36,175.64-84.65,9.23-4.46,15.8-3.68,22.62,4.28q49.51,57.76,98.76,115.76,86.13,101.67,172,203.54c8.3,9.82,16.71,19.56,24.79,29.56,2.66,3.28,5.27,4,9.39,3.27,19.19-3.58,38.28-3.54,56.32,5,26.59,12.6,39.86,37.13,37.59,68.67-2.11,29.24-14.55,54.53-30.45,78.43-4.14,6.2-8.48,12.27-12.73,18.4Zm-26.33-204.5a23.46,23.46,0,0,1-4,2.69c-19.55,8.68-36.32,21.34-51.55,36.12-23.58,22.9-40.47,49.42-44.68,82.84-4.05,32.24,11.74,60.63,40.39,71.35,18.15,6.79,36.81,6,55.18,1.21,30.35-8,57.29-22.66,79.94-44.41,25.86-24.83,44.08-54,48-90.62,3.33-31.47-12-57.19-40.93-67.79-12.63-4.62-25.73-4.42-38.83-3-8.57.93-17.08,2.45-27.19,3.93l6.49-5.48c-6.5-7.68-12.89-15.26-19.31-22.82q-107.39-126.56-214.77-253.14-28.24-33.32-56.11-67c-3-3.67-5.59-4.73-9.64-1.74a66.74,66.74,0,0,1-10.43,6.4c-36.89,17.84-73.76,35.72-110.77,53.3q-117.6,55.88-235.31,111.48l-31.18,14.8,252.91,299a35.56,35.56,0,0,1-3.38,3.12c-14.88,10.79-27.13,24.16-37.86,39-16,22-25.28,46.15-23.91,73.92,1.64,33.15,22.93,58,55.86,61.48a120.35,120.35,0,0,0,41.73-2.92c39.91-10.24,71.53-33.75,97.08-65.71,14.69-18.37,24.21-39,27.8-62.39,5.22-34-9.34-61.27-39.4-72.82-16.16-6.2-32.86-5.41-49.54-2.53-18.53,3.2-35.74,10.08-52.18,19.88-.73-1.58-1.91-3.18-1.59-3.58,4.67-5.79-.17-9.09-3.24-12.72-16.64-19.61-33.41-39.12-50-58.76q-60.41-71.41-120.72-142.93c-10.61-12.56-21.23-25.1-32.4-38.3,3.24-1.62,5.55-2.84,7.91-3.95,32.7-15.36,65.48-30.53,98.09-46.08q117.2-55.91,234.2-112.23c5.09-2.45,7.72-2.07,11.4,2.29q116.4,138,233.09,275.81Z" transform="translate(-7651.65 -2694.13)"/><path class="cls-2" d="M12233,11744.58l-18.9-22.34q-116.59-137.86-233.09-275.81c-3.68-4.36-6.31-4.74-11.4-2.29q-117,56.35-234.2,112.23c-32.61,15.55-65.39,30.72-98.09,46.08-2.36,1.11-4.67,2.33-7.91,3.95,11.17,13.2,21.79,25.74,32.4,38.3q60.36,71.46,120.72,142.93c16.61,19.64,33.38,39.15,50,58.76,3.07,3.63,7.91,6.93,3.24,12.72-.32.4.86,2,1.59,3.58,16.44-9.8,33.65-16.68,52.18-19.88,16.68-2.88,33.38-3.67,49.54,2.53,30.06,11.55,44.62,38.82,39.4,72.82-3.59,23.36-13.11,44-27.8,62.39-25.55,32-57.17,55.47-97.08,65.71a120.35,120.35,0,0,1-41.73,2.92c-32.93-3.5-54.22-28.33-55.86-61.48-1.37-27.77,7.93-51.89,23.91-73.92,10.73-14.8,23-28.17,37.86-39a35.56,35.56,0,0,0,3.38-3.12l-252.91-299,31.18-14.8q117.66-55.73,235.31-111.48c37-17.58,73.88-35.46,110.77-53.3a66.74,66.74,0,0,0,10.43-6.4c4.05-3,6.6-1.93,9.64,1.74q27.87,33.63,56.11,67,107.34,126.61,214.77,253.14c6.42,7.56,12.81,15.14,19.31,22.82l-6.49,5.48c10.11-1.48,18.62-3,27.19-3.93,13.1-1.41,26.2-1.61,38.83,3,28.92,10.6,44.26,36.32,40.93,67.79-3.89,36.66-22.11,65.79-48,90.62-22.65,21.75-49.59,36.43-79.94,44.41-18.37,4.83-37,5.58-55.18-1.21-28.65-10.72-44.44-39.11-40.39-71.35,4.21-33.42,21.1-59.94,44.68-82.84,15.23-14.78,32-27.44,51.55-36.12A23.46,23.46,0,0,0,12233,11744.58Zm-3.56,59c-1.71,2.57-3.7,4.4-4.25,6.58-4.79,19-9.38,38.13-13.89,57.23-1.33,5.61,1.57,8.11,7,8.32,8.48.32,17,0,25.4,1.26,8.15,1.22,11.78-2.38,13.4-9.38,4.4-18.88,8.64-37.81,13-56.7,1.45-6.29-1.45-9.41-7.39-9.67-8.21-.35-16.46-.47-24.68-.18C12235,11801.1,12232.11,11802.7,12229.44,11803.53Zm-337.54,109.81c-8.65-5.32-18.8-8.59-30-6.76-11,1.8-17.72,9.14-19.94,20.12-2,9.93-4.55,19.76-6.66,29.67-1.1,5.19-2,10.45-2.55,15.72-.66,6,2.51,9.22,8.42,9.18a195.63,195.63,0,0,0,21-.88c14.45-1.66,12.58.86,16.49-14.14C11883.14,11949,11887.34,11931.6,11891.9,11913.34Z" transform="translate(-7651.65 -2694.13)"/><path class="cls-4" d="M12229.44,11803.53c2.67-.83,5.59-2.43,8.57-2.54,8.22-.29,16.47-.17,24.68.18,5.94.26,8.84,3.38,7.39,9.67-4.35,18.89-8.59,37.82-13,56.7-1.62,7-5.25,10.6-13.4,9.38-8.35-1.25-16.92-.94-25.4-1.26-5.42-.21-8.32-2.71-7-8.32,4.51-19.1,9.1-38.19,13.89-57.23C12225.74,11807.93,12227.73,11806.1,12229.44,11803.53Z" transform="translate(-7651.65 -2694.13)"/><path class="cls-4" d="M11891.9,11913.34c-4.56,18.26-8.76,35.62-13.26,52.91-3.91,15-2,12.48-16.49,14.14a195.63,195.63,0,0,1-21,.88c-5.91,0-9.08-3.15-8.42-9.18.58-5.27,1.45-10.53,2.55-15.72,2.11-9.91,4.65-19.74,6.66-29.67,2.22-11,8.89-18.32,19.94-20.12C11873.1,11904.75,11883.25,11908,11891.9,11913.34Z" transform="translate(-7651.65 -2694.13)"/></g><g class="cls-1"><path class="cls-4" d="M8522.09,11816.65l79-120q18.33-27.84,36.65-55.69c10.73-16.26,10.88-17.29-5.66-28.58q-46.56-31.76-93.69-62.69-92.19-60.58-184.63-120.77c-4.29-2.81-8.57-5.64-14.17-9.33-12.77,19.4-24.64,37.57-36.65,55.64-42.73,64.27-85.61,128.43-128,192.89-3.56,5.41-5,12.65-6,19.25-9.33,66.64-55,118.36-120.39,135.81-68.92,18.39-137.46-3.19-178.49-56.21-39.48-51-43.29-129.31-9.17-188.91,36.79-64.29,102.07-97.94,171.49-85.93,53.89,9.33,93.2,40.1,119.21,90.32,3.37-5.12,6.3-9.59,9.26-14.06q105.34-159.23,210.59-318.52c6.5-9.85,11.54-20.82,26.31-17.88,3.09.62,6.41,1.37,9,3q114.59,73.86,229.06,147.88c48.95,31.46,98.21,62.42,147.32,93.62,3.07,2,6.15,3.9,9.06,6.07,15.93,11.9,18.31,24,7.44,40.58q-46.58,70.93-93.47,141.65c-48.33,72.68-96.95,145.16-145.07,218a28.93,28.93,0,0,0-4.45,17.75c9.33,82.47-34.29,153.81-111.82,181.93-77,27.95-163.65-10.88-198-88.76-34.75-78.79-2.8-176.13,72-219.27,65.75-37.92,144.91-24.34,194.47,33.32C8515.55,11810.48,8518.25,11812.83,8522.09,11816.65Zm-.15,15.15c-4.15-5.27-7-8.56-9.49-12.08-36.49-51.58-106.33-72.73-165.14-50-87.32,33.8-129.49,128.3-95.44,215.67,42.95,110.19,177.5,131.08,256.57,45.91,34.92-37.62,46.71-83.84,38.77-134.87-.6-3.9.16-9,2.28-12.19q80.07-120.72,160.58-241.13,41.64-62.55,82.76-125.44c7.75-11.85,6.65-17.4-3.67-26.06a102.1,102.1,0,0,0-10.72-7.91q-144.75-92-289.53-183.95c-28.27-18-56-36.93-84.18-55-12-7.71-16.07-6.57-23.82,5-14.16,21.14-28.12,42.42-42.2,63.62q-91.5,137.85-183,275.68c-1.68,2.53-3.74,4.79-6.94,8.84-16.23-44.29-46.54-73.43-87.64-90.44-42.42-17.55-84.65-12.42-125.6,6.79-70.74,33.19-107.58,123.35-82.71,202.35,22.84,72.57,97.39,116.73,174.73,103.51,80.89-13.83,137.16-79.32,135-154.37,5.25-5,10-8.22,12.93-12.61q67.94-101.82,135.44-203.92c9.05-13.65,18-27.35,26.8-40.69,10.15,6.68,17.82,11.78,25.54,16.81q115.77,75.42,231.49,151c17.84,11.71,34.68,24.93,52,37.43,9.42,6.8,9.54,13.83,3.06,23.56-34.26,51.45-67.92,103.31-101.8,155C8539.65,11805,8531.28,11817.63,8521.94,11831.8Z" transform="translate(-7651.65 -2694.13)"/><path class="cls-2" d="M8521.94,11831.8c9.34-14.17,17.71-26.83,26-39.53,33.88-51.7,67.54-103.56,101.8-155,6.48-9.73,6.36-16.76-3.06-23.56-17.32-12.5-34.16-25.72-52-37.43q-115.51-75.83-231.49-151c-7.72-5-15.39-10.13-25.54-16.81-8.78,13.34-17.75,27-26.8,40.69q-67.63,102-135.44,203.92c-2.93,4.39-7.68,7.58-12.93,12.61,2.16,75.05-54.11,140.54-135,154.37-77.34,13.22-151.89-30.94-174.73-103.51-24.87-79,12-169.16,82.71-202.35,40.95-19.21,83.18-24.34,125.6-6.79,41.1,17,71.41,46.15,87.64,90.44,3.2-4,5.26-6.31,6.94-8.84q91.56-137.82,183-275.68c14.08-21.2,28-42.48,42.2-63.62,7.75-11.57,11.8-12.71,23.82-5,28.22,18.1,55.91,37,84.18,55q144.65,92.16,289.53,183.95a102.1,102.1,0,0,1,10.72,7.91c10.32,8.66,11.42,14.21,3.67,26.06q-41.11,62.89-82.76,125.44-80.25,120.59-160.58,241.13c-2.12,3.21-2.88,8.29-2.28,12.19,7.94,51-3.85,97.25-38.77,134.87-79.07,85.17-213.62,64.28-256.57-45.91-34.05-87.37,8.12-181.87,95.44-215.67,58.81-22.76,128.65-1.61,165.14,50C8515,11823.24,8517.79,11826.53,8521.94,11831.8ZM8491.17,11987c20.36-35.3,23.23-80.43,4.42-126.73-25.76-63.4-110.59-89-167.39-50.85-67.19,45.09-78.08,136.63-23.39,196.73C8357.56,12064.1,8444.91,12058.74,8491.17,11987Zm-586.29-407.18c-26.18,40.23-32.22,76.79-22.14,115.9,21,81.42,120,123.7,192.45,64.33,41.12-33.69,54.88-85.22,36.26-141.79-15.95-48.45-48.89-78.7-100.26-84.64C7963.91,11528.12,7927.61,11548.7,7904.88,11579.8Zm477.52-235.44c8.24,4,15.4,6.56,21.67,10.55,86.54,55,173.1,110,259.24,165.63,13.92,9,33,13.36,36.22,37.5l12-18.27L8392.18,11336Zm-4-52.6-2,4.56c4.89,3.22,9.72,6.5,14.66,9.64q167.1,106.14,334.24,212.25c11.51,7.31,14,6.58,25.42-10-14.26,10.35-22.58,2.32-31.3-3.17q-91.19-57.42-182.25-115.05-74.16-46.95-148.24-94.07C8385.76,11293.93,8381.9,11293.11,8378.38,11291.76Zm-12,81-2.12,2.62c4.2,4,7.9,8.78,12.67,12q114.94,76.35,230.11,152.38c21.86,14.49,43.49,29.33,65.39,43.76,2.59,1.71,6.23,1.82,9.38,2.67l1.64-4.58Zm19.17-92.15-1.51,2.1,346.82,219.53.73-1.16Z" transform="translate(-7651.65 -2694.13)"/><path class="cls-4" d="M8491.17,11987c-46.26,71.76-133.61,77.12-186.36,19.15-54.69-60.1-43.8-151.64,23.39-196.73,56.8-38.1,141.63-12.55,167.39,50.85C8514.4,11906.55,8511.53,11951.68,8491.17,11987Zm-5.52-4.33c14.29-23.67,19.44-59.55,10.12-97.32-10.41-42.22-36.12-70.85-78.48-82.45-41.21-11.29-76.78.83-106.23,30.5-49.59,50-43.59,136.47,11.9,181C8372.89,12054.42,8446.16,12044.12,8485.65,11982.65Z" transform="translate(-7651.65 -2694.13)"/><path class="cls-4" d="M7904.88,11579.8c22.73-31.1,59-51.68,106.31-46.2,51.37,5.94,84.31,36.19,100.26,84.64,18.62,56.57,4.86,108.1-36.26,141.79-72.46,59.37-171.49,17.09-192.45-64.33C7872.66,11656.59,7878.7,11620,7904.88,11579.8Zm25.81,177.31c59.16,38.2,126.78,24.9,161.85-24.84,25.74-36.51,23.92-75.83,10.86-115.78-18.17-55.61-77.33-88.9-131.44-73.6-50.46,14.28-78.33,49.66-85.68,100.36C7879,11693.23,7897.65,11733.24,7930.69,11757.11Z" transform="translate(-7651.65 -2694.13)"/><path class="cls-4" d="M8382.4,11344.36l9.78-8.32,319.38,203.73-12,18.27c-3.22-24.14-22.3-28.5-36.22-37.5-86.14-55.64-172.7-110.61-259.24-165.63C8397.8,11350.92,8390.64,11348.32,8382.4,11344.36Z" transform="translate(-7651.65 -2694.13)"/><path class="cls-4" d="M8378.38,11291.76c3.52,1.35,7.38,2.17,10.5,4.14q74.21,46.92,148.24,94.07,91,57.65,182.25,115.05c8.72,5.49,17,13.52,31.3,3.17-11.41,16.6-13.91,17.33-25.42,10Q8558.12,11412.1,8391,11306c-4.94-3.14-9.77-6.42-14.66-9.64Z" transform="translate(-7651.65 -2694.13)"/><path class="cls-4" d="M8366.37,11372.78l317.07,208.8-1.64,4.58c-3.15-.85-6.79-1-9.38-2.67-21.9-14.43-43.53-29.27-65.39-43.76q-115-76.22-230.11-152.38c-4.77-3.17-8.47-7.93-12.67-12Z" transform="translate(-7651.65 -2694.13)"/><path class="cls-4" d="M8385.54,11280.63l346,220.47-.73,1.16L8384,11282.73Z" transform="translate(-7651.65 -2694.13)"/><path class="cls-2" d="M8485.65,11982.65c-39.49,61.47-112.76,71.77-162.69,31.72-55.49-44.52-61.49-131-11.9-181,29.45-29.67,65-41.79,106.23-30.5,42.36,11.6,68.07,40.23,78.48,82.45C8505.09,11923.1,8499.94,11959,8485.65,11982.65Z" transform="translate(-7651.65 -2694.13)"/><path class="cls-2" d="M7930.69,11757.11c-33-23.87-51.66-63.88-44.41-113.86,7.35-50.7,35.22-86.08,85.68-100.36,54.11-15.3,113.27,18,131.44,73.6,13.06,40,14.88,79.27-10.86,115.78C8057.47,11782,7989.85,11795.31,7930.69,11757.11Z" transform="translate(-7651.65 -2694.13)"/></g><g class="cls-1"><path class="cls-2" d="M10422.59,12139.87c13.38-10.16,21-22.73,21.06-38,0-30.14-1.44-60.28-2.41-90.42-.28-8.82-1-17.63-1.36-26.45-.1-3-1-4.11-4.1-4a250.82,250.82,0,0,1-81.28-11.15,201.87,201.87,0,0,1-61-30.19c-39.55-29-65.12-67.31-74.1-115.66-10.91-58.69-1-114.19,28-166.37,20.4-36.64,47.36-68,77.55-96.65,18.35-17.42,37.53-34,56.59-50.62,3.89-3.4,5.14-6.83,4.36-11.71-4.57-28.6-9.28-57.17-13.44-85.82-6.41-44.11-10-88.45-6.51-133,2.73-35.17,13-68.18,31.57-98.41a19.4,19.4,0,0,1,1.7-2l18.31,16.85c30.27,27.8,56.07,59.2,76.23,95.07,20.75,36.91,34,76.21,36.57,118.74,2.58,42.32-9.92,80.11-34.23,114.39-17.61,24.84-40.3,44.73-63.2,64.37a7,7,0,0,0-2.73,7.26c3.34,22.72,6.51,45.47,9.75,68.2.26,1.79.72,3.56,1.17,5.72l18-1.09c66.73-4.13,139.68,49.23,148.6,129.31,4.82,43.24-5.39,82.44-33.9,115.94-25.87,30.42-58.42,50.65-96.93,61.13-4.94,1.35-6.23,3.27-6,8.49,1.63,39.11,3.51,78.24,3.91,117.37.28,28.42-9.92,53.25-32.08,72-19.55,16.56-42.59,22.86-67.89,20.74-27.46-2.29-50.19-13.65-66.52-36.4-21.56-30.05-18.11-79.93,11.78-104.56,20.32-16.75,53.3-18.92,75.63-3.73,27.75,18.89,36.6,48.53,30.71,78.72C10425.62,12131.6,10424.11,12135.1,10422.59,12139.87Zm-2.57-364.05c-25.86,8-49.25,35.82-41.92,74.31,4.38,23,31.15,54.72,44.66,52.16.18,3.56.36,7.1.54,10.53-2.38-1.36-4.19-2.83-6.26-3.5-5.7-1.83-11.52-3.29-17.28-4.94-43-12.38-71.59-48.63-72.84-93.25-1.69-59.85,26.34-102.12,78.14-129.85,3.42-1.83,4-4,3.48-7.2-2.45-16.28-4.85-32.58-7.32-48.86-.46-3-1.17-6-1.91-9.65-4.92,3.94-9.18,7.11-13.18,10.58-25.29,21.94-47.54,46.6-66,74.62-20.15,30.66-35.79,63.21-38.84,100.37-4.8,58.53,16.92,104.57,67.07,135.78,24.24,15.09,51.09,21.5,79.85,17.23,7.49-1.11,8.26-1.95,7.6-9.37q-6.14-69.41-12.54-138.8C10422.4,11796.06,10421.16,11786.17,10420,11775.82Zm33.59-1.16c5.17,57.61,10.3,114.82,15.55,173.32,4.83-2.51,9-4.32,12.87-6.74,29.74-18.82,48-44.3,43.65-81.07-3.76-31.77-18.08-58.18-44.64-77C10473.17,11777.57,10464.13,11775,10453.61,11774.66Zm-39.73-298.1c55.1-63.71,34.63-130.42-16.78-164.28C10395.08,11367.78,10406.91,11421.55,10413.88,11476.56Z" transform="translate(-7651.65 -2694.13)"/><path class="cls-2" d="M10429.65,11996c.51,7,1,13.3,1.41,19.56-127.42,5.14-231.4-87.43-227-222,3.71,58.73,27,108.27,70.54,147.66C10318.35,11980.82,10371.1,11996.24,10429.65,11996Z" transform="translate(-7651.65 -2694.13)"/><path class="cls-2" d="M10283.37,12126.24c16.14,64.53,67.21,87.18,107.74,83.49,53.5-4.88,85.55-41.95,94.25-96.58,1.63,10.41-1.82,34.43-6.63,48.62-7.5,22.17-20.07,40.43-40.23,52.89a103,103,0,0,1-55.46,15.59c-37-.1-65.37-15.69-85-46.94C10288.84,12168.73,10281.89,12141.47,10283.37,12126.24Z" transform="translate(-7651.65 -2694.13)"/><path class="cls-2" d="M10482.79,12010c-.51-5.68-1.3-11.28-1.3-16.89,0-1.23,2.63-3,4.37-3.61,16.74-5.74,33-12.55,47.75-22.38,44.79-29.93,75.38-69.73,84.66-124,.55-3.25.85-6.54,1.45-9.78C10624.07,11907.85,10570.54,11984.77,10482.79,12010Z" transform="translate(-7651.65 -2694.13)"/><path class="cls-2" d="M10541.32,11439.11c1.17,33-7.16,63.73-22.08,92.76-12.47,24.25-29.76,44.85-49.2,63.74-8.34,8.11-16.87,16-26.38,25-.8-7.51-1.76-13.8-1.93-20.11,0-1.62,2.13-3.57,3.68-4.94,18.21-16.14,36-32.73,50.85-52.09,19.88-25.86,35.16-54.06,42.13-86.24C10539.68,11451.26,10540.36,11445.15,10541.32,11439.11Z" transform="translate(-7651.65 -2694.13)"/><path class="cls-2" d="M10354,11323.19c.48,9.93.36,19.94,1.53,29.79,4.61,38.67,9.59,77.31,14.55,115.94,1.1,8.58,2.43,17.15,4.13,25.63.72,3.56-.26,5.65-3.77,7.7C10362.56,11442.56,10353.54,11383.33,10354,11323.19Z" transform="translate(-7651.65 -2694.13)"/><path class="cls-2" d="M10292.15,11828.25c-.92-30.75,4.74-61.38,19.45-90.18,19.35-37.88,45.61-70.24,77.57-98.12a26.06,26.06,0,0,1,2.83-2c.22-.15.61,0,1.43,0,1.17,7,2.36,14.15,3.35,20.05-5.13,3.15-10,5.35-13.86,8.67-21.09,18-37.84,39.7-52.82,62.87-15.08,23.33-27.85,47.77-34.48,74.93C10293.62,11812.59,10293.14,11821.15,10292.15,11828.25Z" transform="translate(-7651.65 -2694.13)"/><path class="cls-2" d="M10317.2,11820.65c10.53,62.32,54.54,101.49,106.43,104,.4,5.07.8,10.24,1.2,15.45C10353.9,11942.53,10311.85,11882,10317.2,11820.65Z" transform="translate(-7651.65 -2694.13)"/><path class="cls-2" d="M10418.82,11883.09c-2.13-22.35-4.27-44.7-6.43-67.25-9.66,3.86-21.36,16.22-24.56,25.51-3.62-14.09,4-38.82,23.38-45.74,4.13,29.14,7.27,58.16,9.52,87.27Z" transform="translate(-7651.65 -2694.13)"/><path class="cls-2" d="M10515.07,11876.59c-5.84-23.9-18.36-42.28-35.45-57.77a31.89,31.89,0,0,0-8.66-5.84c-3.72-1.58-4.68-4.16-4.89-7.71-.3-4.79-.81-9.57-1.23-14.44C10491.05,11796.67,10520.14,11839.05,10515.07,11876.59Z" transform="translate(-7651.65 -2694.13)"/><path class="cls-2" d="M10407.47,11334.94c19.34,19.76,31.24,41.18,27,68.88-.54-1.6-1.19-3.17-1.62-4.8a93.7,93.7,0,0,0-16-32.93c-.3-.39-.51-.92-.91-1.17C10404.55,11357.52,10409.33,11345.88,10407.47,11334.94Z" transform="translate(-7651.65 -2694.13)"/></g><g class="cls-1"><path class="cls-4" d="M12694.81,6322.05l79-120q18.33-27.84,36.65-55.69c10.73-16.26,10.88-17.29-5.66-28.58q-46.56-31.77-93.69-62.69-92.18-60.59-184.63-120.77c-4.29-2.81-8.57-5.64-14.17-9.33-12.77,19.4-24.64,37.57-36.65,55.64-42.72,64.26-85.61,128.43-128,192.89-3.56,5.41-5,12.65-6,19.25-9.34,66.64-55,118.36-120.4,135.8-68.92,18.4-137.45-3.19-178.49-56.21-39.48-51-43.29-129.3-9.17-188.91,36.79-64.28,102.07-97.93,171.49-85.92,53.9,9.33,93.2,40.09,119.21,90.31,3.37-5.11,6.3-9.59,9.26-14.05q105.35-159.22,210.59-318.52c6.5-9.85,11.54-20.82,26.31-17.88,3.09.62,6.41,1.36,9,3,76.4,49.23,152.62,98.74,229.07,147.88,48.94,31.46,98.2,62.42,147.31,93.62,3.07,1.95,6.15,3.89,9.06,6.07,15.93,11.9,18.31,24,7.44,40.57q-46.57,70.93-93.47,141.66c-48.33,72.68-97,145.16-145.07,218a29.09,29.09,0,0,0-4.45,17.76c9.33,82.47-34.29,153.8-111.82,181.93-77,27.95-163.65-10.88-198-88.77-34.76-78.78-2.81-176.13,72-219.26,65.75-37.92,144.91-24.34,194.47,33.31C12688.27,6315.89,12691,6318.23,12694.81,6322.05Zm-.14,15.16c-4.16-5.27-7-8.56-9.5-12.09-36.49-51.57-106.33-72.72-165.14-50-87.32,33.8-129.49,128.3-95.44,215.66,43,110.2,177.5,131.09,256.57,45.92,34.92-37.62,46.71-83.84,38.78-134.87-.61-3.9.15-9,2.28-12.19q80.06-120.72,160.57-241.13,41.64-62.56,82.76-125.44c7.75-11.86,6.65-17.4-3.67-26.07a102,102,0,0,0-10.72-7.9q-144.75-92-289.53-184c-28.27-18-56-36.94-84.18-55-12-7.7-16.07-6.56-23.82,5-14.16,21.14-28.12,42.41-42.19,63.62q-91.52,137.85-183.05,275.68c-1.68,2.52-3.74,4.79-6.93,8.83-16.24-44.28-46.54-73.42-87.64-90.43-42.42-17.55-84.66-12.42-125.61,6.79-70.73,33.19-107.58,123.35-82.71,202.35,22.84,72.57,97.39,116.73,174.73,103.51,80.89-13.83,137.16-79.32,135-154.37,5.25-5,10-8.22,12.93-12.61q67.94-101.82,135.44-203.92c9-13.65,18-27.35,26.8-40.7,10.15,6.69,17.82,11.79,25.54,16.81q115.78,75.44,231.49,151c17.84,11.71,34.68,24.93,52,37.42,9.43,6.8,9.55,13.84,3.07,23.57-34.27,51.45-67.93,103.31-101.81,155C12712.37,6310.37,12704,6323,12694.67,6337.21Z" transform="translate(-7651.65 -2694.13)"/><path class="cls-2" d="M12694.67,6337.21c9.33-14.18,17.7-26.84,26-39.53,33.88-51.7,67.54-103.56,101.81-155,6.48-9.73,6.36-16.77-3.07-23.57-17.32-12.49-34.16-25.71-52-37.42q-115.5-75.84-231.49-151c-7.72-5-15.39-10.12-25.54-16.81-8.78,13.35-17.75,27.05-26.8,40.7q-67.64,102-135.44,203.92c-2.93,4.39-7.68,7.57-12.93,12.61,2.16,75-54.11,140.54-135,154.37-77.34,13.22-151.89-30.94-174.73-103.51-24.87-79,12-169.16,82.71-202.35,41-19.21,83.19-24.34,125.61-6.79,41.1,17,71.4,46.15,87.64,90.43,3.19-4,5.25-6.31,6.93-8.83q91.56-137.82,183.05-275.68c14.07-21.21,28-42.48,42.19-63.62,7.75-11.57,11.8-12.71,23.82-5,28.22,18.1,55.91,37,84.18,55q144.66,92.16,289.53,184a102,102,0,0,1,10.72,7.9c10.32,8.67,11.42,14.21,3.67,26.07q-41.11,62.88-82.76,125.44-80.25,120.58-160.57,241.13c-2.13,3.21-2.89,8.29-2.28,12.19,7.93,51-3.86,97.25-38.78,134.87-79.07,85.17-213.62,64.28-256.57-45.92-34-87.36,8.12-181.86,95.44-215.66,58.81-22.76,128.65-1.61,165.14,50C12687.67,6328.65,12690.51,6331.94,12694.67,6337.21Zm-30.78,155.17c20.36-35.3,23.23-80.42,4.42-126.72-25.76-63.41-110.59-89-167.39-50.85-67.19,45.08-78.08,136.63-23.39,196.73C12530.28,6569.51,12617.63,6564.15,12663.89,6492.38Zm-586.29-407.17c-26.18,40.23-32.21,76.79-22.14,115.9,21,81.42,120,123.7,192.45,64.33,41.12-33.69,54.88-85.22,36.26-141.8-16-48.44-48.89-78.69-100.25-84.64C12136.63,6033.53,12100.33,6054.1,12077.6,6085.21Zm477.52-235.44c8.24,4,15.4,6.56,21.67,10.55,86.54,55,173.1,110,259.24,165.63,13.92,9,33,13.36,36.23,37.5l12-18.27-319.38-203.73Zm-4-52.6-2,4.56c4.88,3.21,9.71,6.5,14.65,9.63q167.11,106.16,334.24,212.26c11.51,7.3,14,6.58,25.42-10-14.26,10.36-22.58,2.33-31.3-3.16q-91.19-57.43-182.24-115.05-74.18-46.95-148.25-94.07C12558.48,5799.34,12554.62,5798.52,12551.1,5797.17Zm-12,81-2.12,2.62c4.2,4,7.9,8.78,12.67,11.94q114.95,76.36,230.11,152.39c21.87,14.48,43.49,29.33,65.39,43.76,2.59,1.7,6.23,1.82,9.38,2.67q.82-2.3,1.64-4.58Zm19.17-92.15-1.51,2.1,346.82,219.52.74-1.15Z" transform="translate(-7651.65 -2694.13)"/><path class="cls-4" d="M12663.89,6492.38c-46.26,71.77-133.61,77.13-186.36,19.16-54.69-60.1-43.8-151.65,23.39-196.73,56.8-38.11,141.63-12.56,167.39,50.85C12687.12,6412,12684.25,6457.08,12663.89,6492.38Zm-5.51-4.33c14.28-23.66,19.43-59.54,10.11-97.31-10.41-42.22-36.12-70.85-78.48-82.45-41.21-11.29-76.78.83-106.23,30.49-49.59,50-43.59,136.48,11.9,181C12545.61,6559.83,12618.88,6549.52,12658.38,6488.05Z" transform="translate(-7651.65 -2694.13)"/><path class="cls-4" d="M12077.6,6085.21c22.73-31.11,59-51.68,106.32-46.21,51.36,5.95,84.3,36.2,100.25,84.64,18.62,56.58,4.86,108.11-36.26,141.8-72.46,59.37-171.49,17.09-192.45-64.33C12045.39,6162,12051.42,6125.44,12077.6,6085.21Zm25.82,177.31c59.15,38.2,126.77,24.9,161.84-24.84,25.74-36.51,23.92-75.83,10.86-115.78-18.17-55.61-77.33-88.91-131.43-73.6-50.46,14.28-78.34,49.66-85.69,100.36C12051.75,6198.64,12070.37,6238.64,12103.42,6262.52Z" transform="translate(-7651.65 -2694.13)"/><path class="cls-4" d="M12555.12,5849.77l9.78-8.32,319.38,203.73-12,18.27c-3.23-24.14-22.31-28.5-36.23-37.5-86.14-55.64-172.7-110.61-259.24-165.63C12570.52,5856.33,12563.36,5853.73,12555.12,5849.77Z" transform="translate(-7651.65 -2694.13)"/><path class="cls-4" d="M12551.1,5797.17c3.52,1.35,7.38,2.17,10.5,4.14q74.2,46.92,148.25,94.07,91,57.65,182.24,115.05c8.72,5.49,17,13.52,31.3,3.16-11.41,16.61-13.91,17.33-25.42,10q-167.13-106.11-334.24-212.26c-4.94-3.13-9.77-6.42-14.65-9.63Z" transform="translate(-7651.65 -2694.13)"/><path class="cls-4" d="M12539.09,5878.19l317.07,208.8q-.81,2.28-1.64,4.58c-3.15-.85-6.79-1-9.38-2.67-21.9-14.43-43.52-29.28-65.39-43.76q-115-76.22-230.11-152.39c-4.77-3.16-8.47-7.92-12.67-11.94Z" transform="translate(-7651.65 -2694.13)"/><path class="cls-4" d="M12558.26,5786l346,220.47-.74,1.15-346.82-219.52Z" transform="translate(-7651.65 -2694.13)"/><path class="cls-2" d="M12658.38,6488.05c-39.5,61.47-112.77,71.78-162.7,31.73-55.49-44.52-61.49-131-11.9-181,29.45-29.66,65-41.78,106.23-30.49,42.36,11.6,68.07,40.23,78.48,82.45C12677.81,6428.51,12672.66,6464.39,12658.38,6488.05Z" transform="translate(-7651.65 -2694.13)"/><path class="cls-2" d="M12103.42,6262.52c-33-23.88-51.67-63.88-44.42-113.86,7.35-50.7,35.23-86.08,85.69-100.36,54.1-15.31,113.26,18,131.43,73.6,13.06,40,14.88,79.27-10.86,115.78C12230.19,6287.42,12162.57,6300.72,12103.42,6262.52Z" transform="translate(-7651.65 -2694.13)"/></g><g class="cls-1"><path class="cls-2" d="M13044.84,7858.15c-3.18-17-6.68-33.95-9.47-51-3.9-23.81-8.17-47.62-10.65-71.6-4.2-40.53-4.46-81.07,3.05-121.45,6.19-33.24,19.38-63.19,40.46-89.42,15.08-18.77,34.05-31.67,59-33.3,23.35-1.53,40.5,9.82,54.4,27.06,20.81,25.82,32.35,56,41.64,87.52,9.46,32.07,11.8,64.69,10.54,97.73a298.57,298.57,0,0,1-15.78,85.47,351.94,351.94,0,0,1-43.89,86.93c-21,30.42-46.15,57.28-73.56,82-26.59,23.95-53.83,47.19-80.52,71-27.62,24.68-54.1,50.64-74.9,81.42-27.57,40.82-43.34,85.72-39.85,135.72,3.42,49.06,22.83,90.69,60,123.57,23.89,21.11,51.25,35.74,82.16,43.08,19.17,4.55,39,6.06,58.56,3.41,29.27-4,52.85-19.05,73.92-39.29,15.49-14.87,27.53-31.46,33.76-52.07,5.24-17.33,5.53-35.12,4.16-52.95a117.92,117.92,0,0,0-16.69-52.78c-18.1-29.81-44.1-49-79-53.09-30.53-3.59-55,9.81-74.66,32.38-23.71,27.18-31.78,59.12-28.27,94.61,2.74,27.74,14.7,50.73,34.28,70.13a6.26,6.26,0,0,1,2,3.67c-5.09-3.69-10.12-7.46-15.28-11.05-32.71-22.73-52.63-54.25-61.36-92.57-5.89-25.84-2.67-51.62,6.14-76.59,10-28.31,26.93-51.74,50.22-70.58,12.37-10,26.34-17.26,40.9-23.6,29.65-12.92,59.81-12,89.77-2.57,70.28,22,110.57,71.18,124,142.42,7.61,40.34,1.6,79.85-16.24,116.83-25.53,52.93-67,88-122.93,106.06-.29.1-.51.4-1.27,1,3.3,21.86,7.11,44,9.89,66.22,3.89,31,7.93,62.07,10.16,93.22,1.81,25.35-4.26,49.56-19.93,70.15-18.38,24.15-42.77,38.25-73.35,41.46-26.66,2.8-52.67.28-77.5-9.66-25.37-10.15-45.46-27.32-61-49.83-13.18-19.11-20.84-40.16-21.54-63.38-1.63-54.37,43.41-88.13,91.21-77.92,30.68,6.56,52.93,32.34,57.9,63.8,5.44,34.39-14.76,59.86-39,70.92-11.94,5.45-24.91,7.14-38,6.76-3.85-.12-7.4-1.16-9.74-5-1-1.67-3.32-2.63-5.15-3.74-5.05-3-10.15-6-15.23-9-.31.33-.61.67-.92,1,6.79,6.41,13.32,13.14,20.44,19.16a116.36,116.36,0,0,0,52.16,25c20.22,4.19,40.66,4.17,60.12-2.87,27.49-10,43.12-34.12,43.82-64.22.5-21.42-1.87-42.58-4.93-63.69q-5.34-36.83-11-73.58c-.79-5.08-2.27-10.05-3.5-15.06a9.12,9.12,0,0,0-8-7.2c-6.73-1-13.48-2.24-20.26-2.47-59.24-2-113.19-19.62-160.77-55.17-23-17.17-41.72-38.54-57.31-62.72a252.21,252.21,0,0,1-35.49-87.26c-8-39.29-6.57-78.42,2.85-117.38,10.15-42,30-79.07,56.19-113.06,19.73-25.59,43.5-47.2,67.35-68.7,33.37-30.1,67.45-59.42,100.47-89.89,27.84-25.67,52.72-54.22,73.41-86,15.06-23.12,28.55-47.29,35.09-74.49,5.36-22.31,6.78-44.73-.85-67-3.54-10.33-9.25-19.28-18.06-25.74-14-10.27-21.32-10.59-36.54-1.16-14.75,9.14-24.23,22.88-31.47,38.46-13.11,28.19-17.29,58-15.12,88.56,1.77,24.88,5.1,49.65,7.71,74.48.72,6.84-.17,13-5.69,18.14-7.4,6.85-14.39,14.16-21.56,21.27Zm139.44-235.79,2,3.88c9.66,19.29,15.32,39.67,15.55,61.28.39,36.83-9.21,71.42-25.79,104-15.35,30.12-36.05,56.67-58.36,81.89-28.63,32.36-60.9,61-93.25,89.47-30.49,26.87-60.77,53.94-86.85,85.27-22.9,27.52-42.09,57.18-54,91.35-17.4,50-17.76,100.25-2.83,150.56,10.75,36.19,31.09,66.72,59.44,91.75,5.36,4.74,11.22,8.91,16.85,13.34.39-1.24.14-1.65-.2-2-.74-.68-1.51-1.31-2.29-1.94a206.68,206.68,0,0,1-66.11-92.56c-15.2-42.07-18.31-85-7.14-128.46a248.16,248.16,0,0,1,37.47-81.47,454.68,454.68,0,0,1,66.53-75.52c30.8-28,62.34-55.12,93.1-83.13,31.1-28.32,59.07-59.53,82.85-94.31a263.12,263.12,0,0,0,37.79-81.33c8.91-33.42,11.14-66.78,2-100.42C13197.87,7642.28,13193.32,7631.1,13184.28,7622.36Zm13.85,767.11.38.3c.85-.77,1.72-1.51,2.54-2.3,17.91-17,31.29-37,39.25-60.44,12.33-36.37,12.59-72.77-.51-109-13.52-37.42-38.58-64.38-74.78-80.81-22-10-45.09-14.14-68.58-8.08-44.5,11.48-76.52,36.74-86.82,84-.61,2.76-1.1,5.53-1.59,8.31-.47,2.6-1,5.21-1.27,7.83s-.44,5.23-.65,7.84a10.35,10.35,0,0,0,2-4.72c3.2-13.73,6.51-27.36,13.55-39.85,26.53-47.08,86.45-69.39,140.23-46.07,48.71,21.12,75.9,59.48,82.84,111.4,5.19,38.81-4.55,74.92-26.9,107.23C13211.93,8373.67,13204.74,8381.37,13198.13,8389.47Zm-110.45-825.12c23.18-15.43,47.66-17.69,73.49-8.44-3.45-5.32-10.28-9.66-17.53-11-13-2.38-25.4-.53-37.4,4.81C13098.83,7553,13092.37,7557.49,13087.68,7564.35Zm-74.52,998.73-1.36,1,10.05,14.13,1.43-1Z" transform="translate(-7651.65 -2694.13)"/><path class="cls-2" d="M13082.83,8223.29a15.25,15.25,0,0,1,1.1-3.39c4.46-8.23,21.62-16.69,30.86-14.89,1.66.33,4,2.63,4.17,4.24,2.26,18.5,4.07,37.06,6.17,55.58,2.09,18.34,4.22,36.68,6.61,55,3.29,25.23,7,50.4,10.2,75.64.78,6.19-5.07,8.4-9.22,10.25-6.61,2.95-13.82,4.52-20.77,6.68-2.54.79-3.57-.13-3.94-2.78-4.92-35.09-10-70.15-14.88-105.25-2.87-20.59-5.51-41.22-8.18-61.84C13084.16,8236.41,13083.59,8230.27,13082.83,8223.29Z" transform="translate(-7651.65 -2694.13)"/><path class="cls-2" d="M12898.29,8731.65c7.23-6.77,16.73-5.68,25.09-8.29,8-2.5,15.92-.23,23.78-1.65a142,142,0,0,1,16.09-1.87c1.6-.1,3.43.88,4.91,1.78a153.32,153.32,0,0,0,49.39,19.36c24.92,5.21,49.88,5.6,75,2.26a3.39,3.39,0,0,1,2.81,1c-4.49.92-8.94,2.16-13.47,2.72-29.2,3.62-58.49,2.15-87.77,1.32-15.19-.42-30.4-.55-45.58-1.31-5.09-.26-10.07-2.26-15.17-3.1-3.13-.52-6.46.1-9.55-.56a168.58,168.58,0,0,1-20.71-5.44C12901,8737.07,12899.83,8733.72,12898.29,8731.65Z" transform="translate(-7651.65 -2694.13)"/><path class="cls-2" d="M13105.3,8066.41c1.13,3.06-1.26,4.37-4.55,5.15-8.86,2.11-17.73,4.21-26.55,6.49-2.83.73-4-.15-4.42-2.89-2.43-14.88-5.24-29.71-7.12-44.66-.34-2.77,2.27-7,4.79-8.82,5.36-3.81,11.43-6.72,17.44-9.49,7.06-3.26,12.39-.78,14.24,6.84,1.4,5.78,1.79,11.81,2.54,17.73C13102.88,8046.32,13104,8055.88,13105.3,8066.41Z" transform="translate(-7651.65 -2694.13)"/></g><path class="cls-3" d="M7842.29,2962.43c4.56,1.44,9,3.4,13.7,4.24q53.58,9.67,107.23,18.95,115.94,19.85,231.93,39.4,69,11.67,138,23.11c8.7,1.45,17.4,2.9,26.12,4.25,11.15,1.72,14.87,5.12,17,16.37q5.15,26.76,10.08,53.55,32.92,178,65.83,355.95,13.18,71.28,26.54,142.53a17.6,17.6,0,0,0,4.78,8.74c12.14,11.82,22.14,25,26.58,41.57,7.52,28.17.33,53.43-16.32,76.39-19.66,27.12-46.61,44.39-77.77,55.32-33.12,11.61-67.1,15.51-101.85,8.91-28.4-5.4-54.15-16.22-74.65-37.5-23.32-24.2-29.43-61.06-14.94-91.33,14.78-30.9,39.64-51.34,69.55-66.26a192.4,192.4,0,0,1,78.82-20.22c14.23-.57,28.54.77,43.25,1.27a21.83,21.83,0,0,0-.21-3.24q-40-216.06-80.1-432.11c-.43-2.29-1.43-4.55-1.44-6.83,0-8.87-5.21-11.06-13.09-12.37-62.42-10.36-124.77-21.13-187.13-31.85-44-7.56-87.92-15.29-131.9-22.84-34.13-5.85-68.28-11.53-102.43-17.26a44.61,44.61,0,0,0-4.84-.24c.81,4.37,1.54,8.27,2.26,12.18q28.64,154.35,57.25,308.72c3.7,20,7.54,40,11,60,.71,4.11,3.2,4,5.95,4.28,20.79,2,40.66,7.26,59.12,17.1,19.22,10.24,35.58,23.83,45,43.91,13.17,28,9.48,55.37-6.46,81-22.42,36.07-56.59,56.06-96.41,67.3-36.13,10.19-72.46,10.2-108.38-1.08-23-7.22-43.06-19.34-58.32-38.54-21.26-26.75-23.26-62.21-5-93.65,13.91-23.9,34.27-41,58.28-54,13.66-7.39,28-13.34,43.25-16.57,5-1.07,6.23-2.83,5.27-7.93q-15.42-81.3-30.41-162.67-27.9-150.68-55.57-301.4c-1.05-5.74-.18-11.82-.34-17.74a39.35,39.35,0,0,0-.88-5.43Z" transform="translate(-7651.65 -2694.13)"/><g class="cls-1"><path class="cls-4" d="M12013.73,3404.39c27.05-41.06,53-80.51,79-120q18.33-27.85,36.66-55.7c10.72-16.25,10.88-17.29-5.67-28.57q-46.56-31.77-93.69-62.69-92.18-60.58-184.63-120.78c-4.29-2.8-8.57-5.64-14.17-9.32-12.77,19.4-24.64,37.56-36.65,55.63-42.72,64.27-85.61,128.43-128,192.9-3.56,5.4-5,12.64-6,19.24-9.34,66.65-55,118.36-120.4,135.81-68.92,18.39-137.45-3.19-178.48-56.21-39.49-51-43.29-129.31-9.18-188.91,36.79-64.28,102.07-97.93,171.49-85.92,53.9,9.32,93.2,40.09,119.21,90.31,3.37-5.11,6.31-9.59,9.26-14q105.34-159.24,210.59-318.52c6.5-9.85,11.55-20.83,26.32-17.88,3.08.61,6.4,1.36,9,3q114.59,73.86,229.06,147.89c48.94,31.46,98.2,62.41,147.31,93.61,3.07,1.95,6.15,3.9,9.06,6.07,15.93,11.91,18.32,24,7.44,40.58q-46.57,70.93-93.47,141.66c-48.32,72.68-97,145.15-145.07,218a29,29,0,0,0-4.44,17.75c9.32,82.48-34.3,153.81-111.82,181.93-77.05,27.95-163.65-10.87-198-88.76-34.76-78.79-2.81-176.13,72-219.26,65.75-37.93,144.91-24.35,194.47,33.31C12007.19,3398.22,12009.89,3400.57,12013.73,3404.39Zm-.14,15.16c-4.16-5.28-7-8.56-9.49-12.09-36.5-51.57-106.34-72.72-165.15-50-87.32,33.79-129.48,128.29-95.44,215.66,42.95,110.2,177.5,131.08,256.57,45.92,34.92-37.63,46.71-83.85,38.78-134.87-.61-3.9.15-9,2.28-12.19q80.06-120.72,160.58-241.14,41.63-62.55,82.76-125.44c7.75-11.85,6.64-17.39-3.68-26.06a100.5,100.5,0,0,0-10.71-7.9q-144.76-92-289.53-183.95c-28.28-18-56-36.94-84.19-55-12-7.71-16.07-6.56-23.82,5-14.16,21.14-28.12,42.42-42.19,63.62q-91.5,137.86-183.05,275.69c-1.68,2.52-3.74,4.79-6.93,8.83-16.24-44.29-46.54-73.43-87.64-90.43-42.42-17.55-84.65-12.43-125.61,6.79-70.73,33.19-107.58,123.35-82.71,202.34,22.85,72.57,97.4,116.74,174.73,103.51,80.89-13.82,137.16-79.32,135-154.36,5.25-5,10-8.22,12.93-12.62q67.94-101.82,135.44-203.92c9-13.65,18-27.35,26.81-40.69,10.15,6.68,17.82,11.78,25.53,16.81q115.78,75.42,231.5,151c17.83,11.71,34.68,24.93,52,37.43,9.42,6.8,9.54,13.83,3.06,23.56-34.26,51.46-67.92,103.31-101.81,155C12031.29,3392.71,12022.92,3405.37,12013.59,3419.55Z" transform="translate(-7651.65 -2694.13)"/><path class="cls-2" d="M12013.59,3419.55c9.33-14.18,17.7-26.84,26-39.53,33.89-51.71,67.55-103.56,101.81-155,6.48-9.73,6.36-16.76-3.06-23.56-17.32-12.5-34.17-25.72-52-37.43q-115.51-75.83-231.5-151c-7.71-5-15.38-10.13-25.53-16.81-8.79,13.34-17.76,27-26.81,40.69q-67.64,102-135.44,203.92c-2.93,4.4-7.68,7.58-12.93,12.62,2.16,75-54.11,140.54-135,154.36-77.33,13.23-151.88-30.94-174.73-103.51-24.87-79,12-169.15,82.71-202.34,41-19.22,83.19-24.34,125.61-6.79,41.1,17,71.4,46.14,87.64,90.43,3.19-4,5.25-6.31,6.93-8.83q91.56-137.82,183.05-275.69c14.07-21.2,28-42.48,42.19-63.62,7.75-11.56,11.8-12.71,23.82-5,28.22,18.1,55.91,37,84.19,55q144.65,92.16,289.53,183.95a100.5,100.5,0,0,1,10.71,7.9c10.32,8.67,11.43,14.21,3.68,26.06q-41.13,62.89-82.76,125.44-80.27,120.6-160.58,241.14c-2.13,3.2-2.89,8.29-2.28,12.19,7.93,51-3.86,97.24-38.78,134.87-79.07,85.16-213.62,64.28-256.57-45.92-34-87.37,8.12-181.87,95.44-215.66,58.81-22.76,128.65-1.61,165.15,50C12006.59,3411,12009.43,3414.27,12013.59,3419.55Zm-30.78,155.17c20.36-35.3,23.23-80.43,4.42-126.73-25.76-63.4-110.59-88.95-167.39-50.84-67.19,45.08-78.07,136.62-23.39,196.72C11849.21,3651.85,11936.56,3646.48,11982.81,3574.72Zm-586.28-407.18c-26.19,40.24-32.22,76.79-22.15,115.91,21,81.41,120,123.69,192.45,64.33,41.12-33.69,54.88-85.22,36.26-141.8-16-48.45-48.89-78.69-100.25-84.64C11455.55,3115.87,11419.25,3136.44,11396.53,3167.54ZM11874,2932.1c8.24,4,15.4,6.57,21.68,10.56q129.8,82.52,259.23,165.63c13.92,9,33,13.35,36.23,37.49l12-18.26-319.39-203.74Zm-4-52.6c-.67,1.52-1.35,3-2,4.57,4.88,3.21,9.72,6.5,14.65,9.63q167.11,106.14,334.25,212.25c11.5,7.31,14,6.58,25.41-10-14.25,10.36-22.58,2.33-31.3-3.17q-91.19-57.42-182.24-115-74.18-47-148.24-94.07C11877.4,2881.67,11873.54,2880.86,11870,2879.5Zm-12,81c-.7.88-1.41,1.75-2.12,2.62,4.2,4,7.91,8.78,12.67,12q114.95,76.36,230.11,152.39c21.87,14.48,43.49,29.33,65.39,43.76,2.59,1.7,6.23,1.81,9.38,2.67l1.65-4.59Zm19.17-92.14-1.51,2.09L12222.49,3090l.74-1.15Z" transform="translate(-7651.65 -2694.13)"/><path class="cls-4" d="M11982.81,3574.72c-46.25,71.76-133.6,77.13-186.36,19.15-54.68-60.1-43.8-151.64,23.39-196.72,56.8-38.11,141.63-12.56,167.39,50.84C12006,3494.29,12003.17,3539.42,11982.81,3574.72Zm-5.51-4.33c14.28-23.66,19.43-59.54,10.11-97.32-10.41-42.22-36.12-70.84-78.48-82.45-41.21-11.29-76.78.83-106.23,30.5-49.59,50-43.59,136.47,11.91,181C11864.53,3642.17,11937.8,3631.86,11977.3,3570.39Z" transform="translate(-7651.65 -2694.13)"/><path class="cls-4" d="M11396.53,3167.54c22.72-31.1,59-51.67,106.31-46.2,51.36,5.95,84.3,36.19,100.25,84.64,18.62,56.58,4.86,108.11-36.26,141.8-72.46,59.36-171.49,17.08-192.45-64.33C11364.31,3244.33,11370.34,3207.78,11396.53,3167.54Zm25.81,177.31c59.15,38.21,126.78,24.91,161.84-24.83,25.74-36.52,23.92-75.84,10.87-115.78-18.18-55.61-77.34-88.91-131.44-73.6-50.46,14.27-78.34,49.65-85.69,100.35C11370.67,3281,11389.29,3321,11422.34,3344.85Z" transform="translate(-7651.65 -2694.13)"/><path class="cls-4" d="M11874,2932.1l9.78-8.32,319.39,203.74-12,18.26c-3.23-24.14-22.31-28.5-36.23-37.49q-129.21-83.46-259.23-165.63C11889.44,2938.67,11882.28,2936.07,11874,2932.1Z" transform="translate(-7651.65 -2694.13)"/><path class="cls-4" d="M11870,2879.5c3.52,1.36,7.38,2.17,10.51,4.15q74.19,46.91,148.24,94.07,91,57.63,182.24,115c8.72,5.5,17,13.53,31.3,3.17-11.41,16.6-13.91,17.33-25.41,10q-167.15-106.1-334.25-212.25c-4.93-3.13-9.77-6.42-14.65-9.63C11868.67,2882.54,11869.35,2881,11870,2879.5Z" transform="translate(-7651.65 -2694.13)"/><path class="cls-4" d="M11858,2960.52l317.08,208.8-1.65,4.59c-3.15-.86-6.79-1-9.38-2.67-21.9-14.43-43.52-29.28-65.39-43.76q-115-76.21-230.11-152.39c-4.76-3.17-8.47-7.93-12.67-12C11856.6,2962.27,11857.31,2961.4,11858,2960.52Z" transform="translate(-7651.65 -2694.13)"/><path class="cls-4" d="M11877.18,2868.38l346,220.47-.74,1.15-346.82-219.53Z" transform="translate(-7651.65 -2694.13)"/><path class="cls-2" d="M11977.3,3570.39c-39.5,61.47-112.77,71.78-162.69,31.72-55.5-44.52-61.5-131-11.91-181,29.45-29.67,65-41.79,106.23-30.5,42.36,11.61,68.07,40.23,78.48,82.45C11996.73,3510.85,11991.58,3546.73,11977.3,3570.39Z" transform="translate(-7651.65 -2694.13)"/><path class="cls-2" d="M11422.34,3344.85c-33-23.87-51.67-63.87-44.42-113.86,7.35-50.7,35.23-86.08,85.69-100.35,54.1-15.31,113.26,18,131.44,73.6,13.05,39.94,14.87,79.26-10.87,115.78C11549.12,3369.76,11481.49,3383.06,11422.34,3344.85Z" transform="translate(-7651.65 -2694.13)"/></g><g class="cls-1"><path class="cls-2" d="M11233.46,8237.42c-3.18-17-6.68-34-9.47-51-3.9-23.81-8.17-47.62-10.65-71.6-4.2-40.53-4.46-81.07,3-121.45,6.19-33.24,19.38-63.19,40.46-89.42,15.08-18.77,34-31.67,59-33.3,23.35-1.53,40.5,9.82,54.39,27.06,20.82,25.82,32.36,56,41.65,87.52,9.46,32.07,11.8,64.69,10.54,97.73a298.57,298.57,0,0,1-15.78,85.47,352.11,352.11,0,0,1-43.89,86.93c-21,30.42-46.15,57.27-73.56,82-26.59,24-53.83,47.19-80.52,71-27.62,24.67-54.1,50.64-74.9,81.42-27.57,40.82-43.34,85.72-39.85,135.72,3.42,49.06,22.83,90.69,60.05,123.57,23.89,21.11,51.25,35.74,82.16,43.08,19.17,4.55,39,6.06,58.56,3.41,29.27-4,52.85-19.06,73.92-39.29,15.48-14.87,27.53-31.46,33.76-52.07,5.24-17.34,5.53-35.12,4.16-53a117.92,117.92,0,0,0-16.69-52.78c-18.1-29.81-44.1-49-79-53.09-30.53-3.59-55,9.81-74.66,32.38-23.72,27.18-31.78,59.11-28.27,94.61,2.74,27.73,14.7,50.73,34.28,70.13a6.26,6.26,0,0,1,2.05,3.67c-5.09-3.69-10.12-7.46-15.28-11-32.71-22.74-52.63-54.26-61.36-92.57-5.89-25.85-2.67-51.62,6.14-76.59,10-28.31,26.93-51.75,50.22-70.58,12.37-10,26.34-17.26,40.9-23.6,29.65-12.92,59.8-12,89.77-2.57,70.28,22,110.57,71.18,124,142.42,7.61,40.33,1.6,79.84-16.24,116.83-25.53,52.93-67,88-122.93,106.06-.29.1-.52.39-1.27,1,3.3,21.86,7.11,44,9.89,66.22,3.89,31,7.93,62.06,10.16,93.22,1.81,25.35-4.26,49.56-19.94,70.15-18.37,24.15-42.76,38.25-73.34,41.46-26.66,2.8-52.67.28-77.5-9.66-25.37-10.15-45.46-27.32-61-49.83-13.18-19.11-20.84-40.16-21.54-63.38-1.63-54.37,43.41-88.13,91.21-77.92,30.67,6.55,52.93,32.34,57.9,63.8,5.44,34.39-14.76,59.85-39,70.92-11.94,5.45-24.91,7.14-38,6.75-3.85-.11-7.4-1.16-9.74-5-1-1.67-3.32-2.64-5.15-3.74-5-3-10.15-6-15.23-9l-.92,1c6.79,6.41,13.32,13.15,20.44,19.17a116.36,116.36,0,0,0,52.16,25c20.22,4.19,40.66,4.17,60.12-2.88,27.49-9.94,43.12-34.12,43.82-64.21.5-21.42-1.87-42.58-4.93-63.69q-5.34-36.82-11.05-73.58c-.79-5.08-2.27-10.06-3.5-15.06a9.13,9.13,0,0,0-8-7.2c-6.73-1-13.48-2.24-20.26-2.47-59.24-2-113.19-19.62-160.77-55.17-23-17.17-41.72-38.54-57.31-62.72a252,252,0,0,1-35.49-87.26c-8-39.29-6.57-78.42,2.85-117.38,10.15-42,30-79.07,56.19-113.06,19.73-25.6,43.5-47.2,67.34-68.7,33.38-30.1,67.46-59.42,100.48-89.89,27.84-25.68,52.72-54.22,73.41-86,15.06-23.12,28.55-47.29,35.09-74.49,5.36-22.31,6.78-44.73-.85-67-3.54-10.34-9.25-19.28-18.06-25.74-14-10.27-21.32-10.59-36.54-1.16-14.75,9.14-24.23,22.88-31.47,38.46-13.11,28.19-17.29,58-15.12,88.56,1.77,24.88,5.1,49.65,7.71,74.48.72,6.84-.17,13-5.69,18.13-7.4,6.86-14.4,14.17-21.56,21.28Zm139.44-235.79c.66,1.29,1.32,2.58,2,3.88,9.66,19.29,15.32,39.67,15.55,61.28.39,36.83-9.21,71.42-25.79,104-15.35,30.12-36,56.67-58.36,81.89-28.63,32.36-60.9,61-93.25,89.47-30.49,26.87-60.77,53.94-86.85,85.27-22.9,27.52-42.09,57.18-54,91.35-17.4,50-17.76,100.25-2.83,150.55,10.75,36.2,31.09,66.73,59.44,91.76,5.36,4.74,11.22,8.91,16.85,13.34.39-1.24.14-1.65-.2-2-.74-.67-1.51-1.3-2.29-1.93a206.68,206.68,0,0,1-66.11-92.56c-15.2-42.07-18.31-85-7.14-128.46a248.16,248.16,0,0,1,37.47-81.47,454.28,454.28,0,0,1,66.53-75.52c30.8-28,62.34-55.12,93.1-83.13,31.1-28.32,59.07-59.54,82.85-94.31a263.33,263.33,0,0,0,37.79-81.33c8.91-33.42,11.14-66.78,2-100.42C11386.49,8021.55,11381.94,8010.37,11372.9,8001.63Zm13.85,767.11.38.29c.85-.76,1.72-1.5,2.54-2.29,17.91-17,31.29-37,39.24-60.44,12.33-36.37,12.59-72.77-.5-109-13.52-37.42-38.58-64.38-74.78-80.81-21.95-10-45.09-14.15-68.58-8.09-44.5,11.48-76.52,36.75-86.83,84-.6,2.75-1.09,5.53-1.59,8.3-.46,2.61-.94,5.22-1.26,7.84s-.45,5.23-.66,7.84a10.47,10.47,0,0,0,2.05-4.72c3.2-13.73,6.51-27.36,13.55-39.85,26.53-47.08,86.44-69.39,140.23-46.07,48.71,21.12,75.9,59.48,82.84,111.4,5.19,38.81-4.55,74.92-26.9,107.23C11400.55,8752.94,11393.36,8760.64,11386.75,8768.74Zm-110.45-825.12c23.18-15.43,47.66-17.69,73.49-8.44-3.45-5.32-10.28-9.66-17.53-11-13-2.38-25.4-.53-37.4,4.81C11287.45,7932.31,11281,7936.75,11276.3,7943.62Zm-74.52,998.73-1.36,1,10,14.13,1.43-1Z" transform="translate(-7651.65 -2694.13)"/><path class="cls-2" d="M11271.45,8602.55a15.37,15.37,0,0,1,1.1-3.38c4.46-8.23,21.61-16.69,30.86-14.89,1.66.33,4,2.63,4.17,4.24,2.25,18.5,4.07,37.06,6.17,55.58,2.09,18.34,4.21,36.68,6.61,55,3.29,25.23,7,50.4,10.2,75.64.78,6.19-5.07,8.39-9.22,10.25-6.61,2.94-13.82,4.52-20.77,6.68-2.54.79-3.57-.13-3.94-2.78-4.92-35.09-10-70.16-14.88-105.25-2.87-20.59-5.51-41.22-8.18-61.84C11272.78,8615.67,11272.21,8609.54,11271.45,8602.55Z" transform="translate(-7651.65 -2694.13)"/><path class="cls-2" d="M11086.91,9110.92c7.23-6.77,16.72-5.68,25.09-8.29,8-2.5,15.92-.23,23.78-1.65a142,142,0,0,1,16.09-1.87c1.6-.1,3.43.88,4.9,1.78a153.21,153.21,0,0,0,49.4,19.35c24.92,5.22,49.88,5.61,75,2.27a3.36,3.36,0,0,1,2.81.95c-4.49.92-8.94,2.16-13.47,2.72-29.2,3.61-58.49,2.15-87.77,1.32-15.19-.43-30.4-.55-45.58-1.31-5.09-.26-10.07-2.26-15.17-3.1-3.13-.52-6.46.1-9.55-.56a166.84,166.84,0,0,1-20.71-5.45C11089.64,9116.34,11088.45,9113,11086.91,9110.92Z" transform="translate(-7651.65 -2694.13)"/><path class="cls-2" d="M11293.92,8445.68c1.13,3.06-1.26,4.36-4.55,5.15-8.86,2.11-17.73,4.2-26.55,6.48-2.83.73-4-.15-4.43-2.89-2.42-14.87-5.23-29.7-7.11-44.65-.34-2.77,2.27-7,4.79-8.82,5.36-3.81,11.43-6.72,17.44-9.49,7.06-3.26,12.39-.78,14.24,6.84,1.4,5.78,1.78,11.8,2.54,17.73C11291.5,8425.58,11292.64,8435.15,11293.92,8445.68Z" transform="translate(-7651.65 -2694.13)"/></g><path class="cls-3" d="M9690,7588.24c4.56,1.44,9,3.4,13.7,4.24q53.58,9.68,107.23,19,115.94,19.83,231.93,39.39,69,11.67,138,23.11c8.7,1.45,17.4,2.9,26.11,4.25,11.16,1.72,14.88,5.13,17,16.37q5.16,26.76,10.08,53.56,32.94,178,65.83,355.94,13.18,71.28,26.55,142.53a17.56,17.56,0,0,0,4.78,8.74c12.13,11.82,22.14,25,26.58,41.57,7.52,28.17.32,53.43-16.32,76.39-19.66,27.12-46.61,44.4-77.77,55.32-33.12,11.61-67.1,15.52-101.86,8.91-28.4-5.39-54.14-16.22-74.65-37.5-23.31-24.2-29.42-61.06-14.94-91.33,14.79-30.9,39.64-51.34,69.55-66.26a192.64,192.64,0,0,1,78.83-20.22c14.23-.56,28.54.78,43.25,1.27a23.38,23.38,0,0,0-.21-3.24q-40-216.06-80.1-432.11c-.43-2.29-1.43-4.55-1.44-6.83,0-8.87-5.21-11.06-13.09-12.37-62.42-10.36-124.77-21.13-187.13-31.85-44-7.56-87.92-15.29-131.9-22.83-34.13-5.86-68.29-11.54-102.43-17.27a44.86,44.86,0,0,0-4.84-.23c.81,4.36,1.54,8.26,2.26,12.17l57.24,308.72c3.71,20,7.54,40,11,60,.7,4.1,3.19,4,6,4.27,20.79,2,40.65,7.26,59.12,17.1,19.22,10.24,35.58,23.84,45,43.92,13.18,28,9.48,55.36-6.46,81-22.41,36.07-56.59,56.06-96.4,67.3-36.13,10.19-72.46,10.21-108.38-1.08-23-7.22-43.06-19.34-58.32-38.54-21.27-26.75-23.26-62.21-5-93.65,13.9-23.9,34.27-41,58.28-54,13.66-7.39,28-13.33,43.25-16.57,5-1.07,6.23-2.83,5.26-7.93q-15.42-81.28-30.4-162.66-27.9-150.69-55.57-301.4c-1-5.74-.18-11.83-.34-17.75a39.21,39.21,0,0,0-.88-5.42Z" transform="translate(-7651.65 -2694.13)"/><g class="cls-1"><path class="cls-4" d="M10242.05,10407.48c-18,7.29-36.12,14-55.68,15.88-21.35,2-42-.22-59.75-13.17-22.35-16.26-28.73-39.57-25.65-65.73,4.51-38.24,22-70.77,48.14-98.24,12.76-13.4,28.16-24.28,42.77-36.64-1.34-1.84-2.5-3.63-3.86-5.24q-111.72-132-223.47-264c-4.08-4.82-8.25-9.58-12-14.65-2.56-3.45-4.85-3.48-8.56-1.7q-94.5,45.24-189.13,90.17c-40.74,19.3-81.64,38.27-122.47,57.41-1.29.6-2.53,1.33-4.43,2.35l199.15,235.4c16.86-4.9,32.85-10.72,49.35-14,18.6-3.75,37.48-2.23,54.67,6.7,26.27,13.65,37.09,36.41,36.19,65.34-.71,22.7-9,43-19.88,62.5-26.39,47.5-65.26,80.14-117.07,96.64-21.24,6.77-43.06,7.37-64.43-.2-26.15-9.27-39.56-28.54-41.79-55.76-2.46-30,6.88-57.27,22.48-82.14,9.73-15.5,22.05-29.37,33.21-44,1-1.32,2-2.66,2.94-3.9l-159.08-188q-42.79-50.59-85.58-101.19a69.34,69.34,0,0,1-5.75-7.5c-8.69-13.67-5.83-24.55,8.66-31.38,68.64-32.4,137.44-64.44,206-97,58.7-27.91,117.13-56.36,175.65-84.65,9.22-4.46,15.8-3.69,22.62,4.27q49.5,57.78,98.76,115.77,86.11,101.67,172,203.54c8.3,9.82,16.7,19.56,24.79,29.55,2.66,3.29,5.27,4,9.38,3.28,19.2-3.58,38.28-3.54,56.32,5,26.59,12.59,39.87,37.13,37.59,68.67-2.1,29.24-14.55,54.52-30.45,78.43-4.13,6.2-8.48,12.27-12.73,18.4Zm-26.33-204.51a22.86,22.86,0,0,1-4,2.7c-19.54,8.68-36.31,21.33-51.55,36.12-23.58,22.9-40.47,49.42-44.67,82.84-4.06,32.24,11.73,60.63,40.38,71.35,18.16,6.79,36.81,6,55.18,1.21,30.35-8,57.29-22.66,79.94-44.41,25.86-24.84,44.09-54,48-90.62,3.33-31.47-12-57.2-40.93-67.79-12.62-4.62-25.73-4.43-38.82-3-8.58.93-17.09,2.45-27.19,3.93l6.48-5.48c-6.5-7.68-12.89-15.26-19.31-22.82q-107.39-126.57-214.77-253.14-28.23-33.32-56.11-67c-3-3.67-5.59-4.74-9.64-1.74a66.74,66.74,0,0,1-10.43,6.4c-36.88,17.84-73.76,35.71-110.77,53.3q-117.58,55.88-235.31,111.48-15.58,7.38-31.18,14.8l252.91,299a35.36,35.36,0,0,1-3.37,3.12c-14.89,10.79-27.13,24.15-37.87,39-16,22-25.28,46.15-23.9,73.91,1.63,33.16,22.92,58,55.86,61.49a120.07,120.07,0,0,0,41.72-2.93c39.91-10.23,71.53-33.75,97.08-65.71,14.69-18.37,24.21-39,27.8-62.38,5.23-34-9.33-61.27-39.4-72.82-16.16-6.21-32.86-5.42-49.54-2.54-18.53,3.2-35.73,10.08-52.17,19.89-.73-1.58-1.91-3.19-1.59-3.58,4.67-5.79-.17-9.09-3.25-12.72-16.64-19.61-33.41-39.12-50-58.76q-60.41-71.43-120.72-142.93c-10.61-12.56-21.23-25.1-32.39-38.3,3.23-1.62,5.54-2.84,7.9-3.95,32.7-15.36,65.49-30.53,98.09-46.08q117.2-55.91,234.2-112.23c5.09-2.45,7.72-2.07,11.4,2.29q116.4,138,233.09,275.81Z" transform="translate(-7651.65 -2694.13)"/><path class="cls-2" d="M10215.72,10203l-18.9-22.33q-116.59-137.86-233.09-275.81c-3.68-4.36-6.31-4.74-11.4-2.29q-117,56.35-234.2,112.23c-32.6,15.55-65.39,30.72-98.09,46.08-2.36,1.11-4.67,2.33-7.9,3.95,11.16,13.2,21.78,25.74,32.39,38.3q60.36,71.46,120.72,142.93c16.61,19.64,33.38,39.15,50,58.76,3.08,3.63,7.92,6.93,3.25,12.72-.32.39.86,2,1.59,3.58,16.44-9.81,33.64-16.69,52.17-19.89,16.68-2.88,33.38-3.67,49.54,2.54,30.07,11.55,44.63,38.82,39.4,72.82-3.59,23.35-13.11,44-27.8,62.38-25.55,32-57.17,55.48-97.08,65.71a120.07,120.07,0,0,1-41.72,2.93c-32.94-3.5-54.23-28.33-55.86-61.49-1.38-27.76,7.92-51.88,23.9-73.91,10.74-14.81,23-28.17,37.87-39a35.36,35.36,0,0,0,3.37-3.12l-252.91-299q15.6-7.41,31.18-14.8,117.66-55.72,235.31-111.48c37-17.59,73.89-35.46,110.77-53.3a66.74,66.74,0,0,0,10.43-6.4c4-3,6.6-1.93,9.64,1.74q27.87,33.63,56.11,67,107.34,126.61,214.77,253.14c6.42,7.56,12.81,15.14,19.31,22.82l-6.48,5.48c10.1-1.48,18.61-3,27.19-3.93,13.09-1.42,26.2-1.61,38.82,3,28.92,10.59,44.26,36.32,40.93,67.79-3.88,36.66-22.11,65.78-48,90.62-22.65,21.75-49.59,36.43-79.94,44.41-18.37,4.83-37,5.58-55.18-1.21-28.65-10.72-44.44-39.11-40.38-71.35,4.2-33.42,21.09-59.94,44.67-82.84,15.24-14.79,32-27.44,51.55-36.12A22.86,22.86,0,0,0,10215.72,10203Zm-3.56,59c-1.7,2.57-3.7,4.39-4.25,6.58-4.79,19-9.38,38.13-13.89,57.23-1.32,5.61,1.57,8.1,7,8.31,8.48.33,17.06,0,25.4,1.26,8.15,1.22,11.78-2.37,13.41-9.37,4.39-18.89,8.63-37.81,13-56.7,1.44-6.29-1.46-9.41-7.4-9.67-8.21-.36-16.46-.47-24.67-.18C10217.76,10259.5,10214.83,10261.1,10212.16,10261.93Zm-337.53,109.81c-8.66-5.33-18.81-8.6-30-6.77s-17.71,9.15-19.94,20.13c-2,9.93-4.55,19.76-6.65,29.67-1.1,5.19-2,10.45-2.56,15.72-.66,6,2.52,9.21,8.43,9.18a192.89,192.89,0,0,0,21-.89c14.45-1.65,12.58.87,16.49-14.14C9865.86,10407.36,9870.06,10390,9874.63,10371.74Z" transform="translate(-7651.65 -2694.13)"/><path class="cls-4" d="M10212.16,10261.93c2.67-.83,5.6-2.43,8.58-2.54,8.21-.29,16.46-.18,24.67.18,5.94.26,8.84,3.38,7.4,9.67-4.36,18.89-8.6,37.81-13,56.7-1.63,7-5.26,10.59-13.41,9.37-8.34-1.24-16.92-.93-25.4-1.26-5.42-.21-8.31-2.7-7-8.31,4.51-19.1,9.1-38.19,13.89-57.23C10208.46,10266.32,10210.46,10264.5,10212.16,10261.93Z" transform="translate(-7651.65 -2694.13)"/><path class="cls-4" d="M9874.63,10371.74c-4.57,18.26-8.77,35.62-13.27,52.9-3.91,15-2,12.49-16.49,14.14a192.89,192.89,0,0,1-21,.89c-5.91,0-9.09-3.16-8.43-9.18.58-5.27,1.46-10.53,2.56-15.72,2.1-9.91,4.65-19.74,6.65-29.67,2.23-11,8.89-18.32,19.94-20.13S9866,10366.41,9874.63,10371.74Z" transform="translate(-7651.65 -2694.13)"/></g><g class="cls-1"><path class="cls-4" d="M8343.59,7654.6c27-41.06,53-80.51,79-120q18.33-27.86,36.66-55.7c10.72-16.25,10.88-17.29-5.67-28.57q-46.56-31.77-93.68-62.7-92.19-60.59-184.64-120.77c-4.29-2.8-8.56-5.64-14.16-9.32-12.78,19.4-24.65,37.56-36.66,55.63-42.72,64.27-85.61,128.43-128,192.9-3.55,5.4-5,12.64-6,19.24-9.33,66.65-55,118.36-120.4,135.81-68.92,18.39-137.45-3.19-178.48-56.21-39.49-51-43.29-129.31-9.18-188.91,36.8-64.28,102.07-97.93,171.5-85.92,53.89,9.32,93.19,40.09,119.21,90.31,3.36-5.11,6.3-9.59,9.25-14.05q105.35-159.24,210.6-318.52c6.49-9.85,11.54-20.83,26.31-17.88,3.09.61,6.41,1.36,9,3q114.59,73.86,229.06,147.89c48.94,31.46,98.21,62.41,147.32,93.61,3.06,1.95,6.14,3.9,9,6.07,15.93,11.9,18.32,24,7.44,40.58q-46.58,70.93-93.47,141.66c-48.32,72.67-96.95,145.15-145.06,218a28.94,28.94,0,0,0-4.45,17.75c9.33,82.48-34.29,153.81-111.82,181.93-77,27.95-163.65-10.87-198-88.76-34.76-78.79-2.81-176.13,72-219.26,65.75-37.93,144.91-24.35,194.47,33.31C8337,7648.43,8339.74,7650.78,8343.59,7654.6Zm-.15,15.15c-4.16-5.27-7-8.55-9.49-12.08-36.5-51.57-106.34-72.72-165.14-50-87.33,33.79-129.49,128.29-95.44,215.66,42.94,110.2,177.49,131.08,256.56,45.91,34.93-37.62,46.71-83.84,38.78-134.86-.61-3.9.15-9,2.28-12.19q80.06-120.72,160.58-241.14,41.63-62.55,82.76-125.44c7.75-11.85,6.65-17.39-3.68-26.06a99.49,99.49,0,0,0-10.71-7.9q-144.75-92-289.53-183.95c-28.28-18-56-36.94-84.19-55-12-7.71-16.07-6.56-23.82,5-14.16,21.14-28.12,42.42-42.19,63.62q-91.5,137.86-183.05,275.69c-1.67,2.52-3.74,4.79-6.93,8.83-16.23-44.29-46.54-73.43-87.64-90.43-42.42-17.55-84.65-12.43-125.6,6.79-70.74,33.19-107.59,123.35-82.72,202.34,22.85,72.57,97.4,116.74,174.74,103.51,80.89-13.82,137.15-79.32,135-154.36,5.25-5,10-8.22,12.94-12.62q67.92-101.82,135.43-203.92c9.05-13.65,18-27.35,26.81-40.69,10.15,6.68,17.82,11.78,25.53,16.81q115.78,75.42,231.5,150.95c17.83,11.71,34.68,24.93,52,37.43,9.42,6.8,9.54,13.83,3.06,23.56-34.26,51.46-67.92,103.31-101.81,155C8361.15,7642.92,8352.77,7655.58,8343.44,7669.75Z" transform="translate(-7651.65 -2694.13)"/><path class="cls-2" d="M8343.44,7669.75c9.33-14.17,17.71-26.83,26-39.52,33.89-51.71,67.55-103.56,101.81-155,6.48-9.73,6.36-16.76-3.06-23.56-17.32-12.5-34.17-25.72-52-37.43q-115.51-75.82-231.5-150.95c-7.71-5-15.38-10.13-25.53-16.81-8.79,13.34-17.76,27-26.81,40.69q-67.64,102-135.43,203.92c-2.94,4.4-7.69,7.58-12.94,12.62,2.16,75-54.1,140.54-135,154.36-77.34,13.23-151.89-30.94-174.74-103.51-24.87-79,12-169.15,82.72-202.34,40.95-19.22,83.18-24.34,125.6-6.79,41.1,17,71.41,46.14,87.64,90.43,3.19-4,5.26-6.31,6.93-8.83q91.56-137.82,183.05-275.69c14.07-21.2,28-42.48,42.19-63.62,7.75-11.56,11.8-12.71,23.82-5,28.22,18.1,55.91,37,84.19,55q144.65,92.16,289.53,183.95a99.49,99.49,0,0,1,10.71,7.9c10.33,8.67,11.43,14.21,3.68,26.06q-41.11,62.9-82.76,125.44-80.25,120.6-160.58,241.14c-2.13,3.2-2.89,8.29-2.28,12.19,7.93,51-3.85,97.24-38.78,134.86-79.07,85.17-213.62,64.29-256.56-45.91-34.05-87.37,8.11-181.87,95.44-215.66,58.8-22.76,128.64-1.61,165.14,50C8336.44,7661.2,8339.28,7664.48,8343.44,7669.75Zm-30.78,155.18c20.36-35.3,23.23-80.43,4.42-126.73-25.76-63.4-110.59-88.95-167.38-50.84-67.2,45.08-78.08,136.62-23.4,196.72C8179.06,7902.06,8266.41,7896.69,8312.66,7824.93Zm-586.28-407.18c-26.19,40.24-32.22,76.79-22.15,115.91,21,81.41,120,123.69,192.45,64.33,41.13-33.69,54.89-85.22,36.26-141.8-15.95-48.45-48.89-78.7-100.25-84.64C7785.4,7366.08,7749.1,7386.65,7726.38,7417.75Zm477.51-235.44c8.24,4,15.4,6.56,21.68,10.55q129.8,82.53,259.23,165.64c13.93,9,33,13.35,36.23,37.49l12-18.26L8213.67,7174Zm-4-52.6q-1,2.28-2,4.57c4.88,3.21,9.72,6.5,14.65,9.63q167.11,106.14,334.25,212.25c11.51,7.31,14,6.58,25.41-10-14.25,10.36-22.57,2.32-31.3-3.17q-91.19-57.42-182.24-115-74.18-47-148.24-94.07C8207.25,7131.88,8203.39,7131.07,8199.88,7129.71Zm-12,81-2.12,2.62c4.19,4,7.9,8.78,12.66,11.95q114.95,76.36,230.12,152.39c21.86,14.48,43.49,29.33,65.38,43.75,2.59,1.71,6.23,1.82,9.38,2.67l1.65-4.58Zm19.16-92.14c-.5.7-1,1.4-1.51,2.09l346.83,219.53.73-1.15Z" transform="translate(-7651.65 -2694.13)"/><path class="cls-4" d="M8312.66,7824.93c-46.25,71.76-133.6,77.13-186.36,19.15-54.68-60.1-43.8-151.64,23.4-196.72,56.79-38.11,141.62-12.56,167.38,50.84C8335.89,7744.5,8333,7789.63,8312.66,7824.93Zm-5.51-4.33c14.28-23.66,19.44-59.54,10.12-97.32-10.42-42.22-36.13-70.85-78.49-82.45-41.2-11.29-76.78.83-106.23,30.5-49.59,50-43.58,136.47,11.91,181C8194.39,7892.38,8267.66,7882.07,8307.15,7820.6Z" transform="translate(-7651.65 -2694.13)"/><path class="cls-4" d="M7726.38,7417.75c22.72-31.1,59-51.67,106.31-46.2,51.36,5.94,84.3,36.19,100.25,84.64,18.63,56.58,4.87,108.11-36.26,141.8-72.46,59.36-171.48,17.08-192.45-64.33C7694.16,7494.54,7700.19,7458,7726.38,7417.75Zm25.81,177.31c59.16,38.21,126.78,24.91,161.84-24.83,25.74-36.52,23.92-75.84,10.87-115.78-18.18-55.61-77.33-88.91-131.44-73.6-50.46,14.27-78.34,49.65-85.69,100.35C7700.53,7531.19,7719.14,7571.19,7752.19,7595.06Z" transform="translate(-7651.65 -2694.13)"/><path class="cls-4" d="M8203.89,7182.31l9.78-8.32,319.39,203.74L8521,7396c-3.23-24.14-22.3-28.5-36.23-37.49q-129.19-83.46-259.23-165.64C8219.29,7188.87,8212.13,7186.27,8203.89,7182.31Z" transform="translate(-7651.65 -2694.13)"/><path class="cls-4" d="M8199.88,7129.71c3.51,1.36,7.37,2.17,10.5,4.15q74.19,46.91,148.24,94.07,91,57.63,182.24,115c8.73,5.49,17,13.53,31.3,3.17-11.41,16.6-13.9,17.33-25.41,10q-167.15-106.11-334.25-212.25c-4.93-3.13-9.77-6.42-14.65-9.63Q8198.86,7132,8199.88,7129.71Z" transform="translate(-7651.65 -2694.13)"/><path class="cls-4" d="M8187.87,7210.73l317.07,208.8-1.65,4.58c-3.15-.85-6.79-1-9.38-2.67-21.89-14.42-43.52-29.27-65.38-43.75q-115.05-76.21-230.12-152.39c-4.76-3.17-8.47-7.93-12.66-11.95Z" transform="translate(-7651.65 -2694.13)"/><path class="cls-4" d="M8207,7118.59l346,220.47-.73,1.15-346.83-219.53C8206,7120,8206.53,7119.29,8207,7118.59Z" transform="translate(-7651.65 -2694.13)"/><path class="cls-2" d="M8307.15,7820.6c-39.49,61.47-112.76,71.78-162.69,31.72-55.49-44.52-61.5-131-11.91-181,29.45-29.67,65-41.79,106.23-30.5,42.36,11.6,68.07,40.23,78.49,82.45C8326.59,7761.06,8321.43,7796.94,8307.15,7820.6Z" transform="translate(-7651.65 -2694.13)"/><path class="cls-2" d="M7752.19,7595.06c-33-23.87-51.66-63.87-44.42-113.86,7.35-50.7,35.23-86.08,85.69-100.35,54.11-15.31,113.26,18,131.44,73.6,13.05,39.94,14.87,79.26-10.87,115.78C7879,7620,7811.35,7633.27,7752.19,7595.06Z" transform="translate(-7651.65 -2694.13)"/></g><g class="cls-1"><path class="cls-2" d="M8499.63,10309.77c13.38-10.16,21.05-22.74,21.07-38,0-30.14-1.45-60.29-2.42-90.42-.28-8.82-1.05-17.63-1.36-26.45-.1-3-1-4.11-4.1-4a250.82,250.82,0,0,1-81.28-11.15,201.93,201.93,0,0,1-61-30.19c-39.56-29-65.13-67.31-74.11-115.66-10.91-58.69-1-114.19,28-166.38,20.4-36.63,47.36-68,77.55-96.64,18.35-17.42,37.53-34,56.59-50.62,3.89-3.4,5.14-6.84,4.36-11.72-4.57-28.59-9.28-57.16-13.44-85.81-6.4-44.11-10-88.45-6.51-133,2.73-35.17,13-68.18,31.57-98.41a21.9,21.9,0,0,1,1.7-2c6.2,5.71,12.25,11.29,18.32,16.86,30.26,27.8,56.06,59.19,76.23,95.06,20.75,36.92,34,76.21,36.56,118.75,2.58,42.32-9.92,80.11-34.22,114.39-17.62,24.84-40.3,44.73-63.21,64.37a7,7,0,0,0-2.73,7.26c3.35,22.72,6.51,45.47,9.75,68.2.26,1.79.72,3.55,1.17,5.72l18-1.09c66.74-4.13,139.68,49.23,148.6,129.31,4.82,43.24-5.39,82.44-33.9,115.94-25.87,30.42-58.42,50.65-96.92,61.13-5,1.34-6.24,3.27-6,8.48,1.63,39.12,3.52,78.24,3.91,117.38.28,28.41-9.92,53.25-32.07,72-19.55,16.56-42.6,22.85-67.9,20.74-27.46-2.29-50.19-13.65-66.51-36.4-21.57-30-18.11-79.93,11.77-104.57,20.32-16.74,53.3-18.91,75.63-3.72,27.75,18.89,36.61,48.53,30.71,78.72C8502.67,10301.5,8501.15,10305,8499.63,10309.77Zm-2.57-364.05c-25.86,8-49.25,35.81-41.92,74.3,4.39,23,31.16,54.73,44.66,52.17.18,3.56.37,7.09.54,10.53-2.38-1.36-4.19-2.84-6.25-3.5-5.71-1.83-11.53-3.29-17.29-4.95-43-12.37-71.58-48.62-72.84-93.24-1.69-59.85,26.34-102.12,78.14-129.85,3.42-1.83,4-4,3.48-7.2-2.45-16.28-4.85-32.58-7.32-48.86-.46-3-1.17-6-1.91-9.66-4.92,3.94-9.17,7.12-13.17,10.59-25.3,21.94-47.55,46.6-66,74.62-20.15,30.66-35.78,63.2-38.84,100.37-4.8,58.53,16.92,104.57,67.07,135.78,24.24,15.09,51.09,21.5,79.85,17.23,7.49-1.11,8.26-2,7.6-9.37q-6.14-69.42-12.54-138.81C8499.44,9966,8498.2,9956.07,8497.06,9945.72Zm33.59-1.16c5.17,57.61,10.3,114.82,15.55,173.32,4.83-2.51,9-4.32,12.87-6.74,29.74-18.82,48-44.31,43.66-81.07-3.77-31.77-18.09-58.18-44.65-77C8550.21,9947.47,8541.17,9944.92,8530.65,9944.56Zm-39.73-298.1c55.11-63.71,34.63-130.43-16.78-164.29C8472.13,9537.68,8484,9591.45,8490.92,9646.46Z" transform="translate(-7651.65 -2694.13)"/><path class="cls-2" d="M8506.69,10165.92c.51,7.06,1,13.31,1.42,19.56-127.43,5.15-231.4-87.42-227-222,3.7,58.72,27,108.26,70.53,147.66C8395.39,10150.72,8448.14,10166.14,8506.69,10165.92Z" transform="translate(-7651.65 -2694.13)"/><path class="cls-2" d="M8360.41,10296.14c16.14,64.53,67.21,87.18,107.74,83.48,53.5-4.87,85.55-41.94,94.26-96.57,1.62,10.41-1.83,34.43-6.64,48.62-7.5,22.16-20.07,40.43-40.23,52.89a103,103,0,0,1-55.46,15.59c-37-.1-65.37-15.69-85-46.94C8365.88,10338.63,8358.93,10311.37,8360.41,10296.14Z" transform="translate(-7651.65 -2694.13)"/><path class="cls-2" d="M8559.83,10179.87c-.51-5.68-1.3-11.29-1.29-16.89,0-1.23,2.62-3,4.36-3.62,16.74-5.73,33-12.54,47.76-22.37,44.79-29.93,75.37-69.74,84.65-124,.55-3.24.85-6.53,1.45-9.77C8701.11,10077.75,8647.59,10154.66,8559.83,10179.87Z" transform="translate(-7651.65 -2694.13)"/><path class="cls-2" d="M8618.37,9609c1.16,33-7.17,63.74-22.09,92.76-12.46,24.25-29.76,44.86-49.2,63.75-8.34,8.1-16.87,16-26.38,25-.8-7.51-1.75-13.8-1.93-20.11-.05-1.62,2.13-3.58,3.68-4.94,18.21-16.14,36-32.73,50.86-52.09,19.87-25.87,35.15-54.06,42.12-86.24C8616.73,9621.16,8617.4,9615.05,8618.37,9609Z" transform="translate(-7651.65 -2694.13)"/><path class="cls-2" d="M8431,9493.08c.48,9.94.36,19.94,1.53,29.79,4.62,38.68,9.59,77.31,14.55,115.95,1.1,8.58,2.43,17.15,4.14,25.63.71,3.56-.27,5.65-3.77,7.7C8439.6,9612.46,8430.58,9553.23,8431,9493.08Z" transform="translate(-7651.65 -2694.13)"/><path class="cls-2" d="M8369.19,9998.15c-.91-30.75,4.75-61.38,19.46-90.18,19.34-37.88,45.6-70.24,77.56-98.12a25.69,25.69,0,0,1,2.83-2c.22-.15.62,0,1.43,0,1.17,7,2.36,14.15,3.35,20-5.12,3.15-10,5.35-13.86,8.66-21.09,18-37.84,39.71-52.82,62.88-15.08,23.33-27.85,47.77-34.48,74.93C8370.66,9982.49,8370.18,9991.05,8369.19,9998.15Z" transform="translate(-7651.65 -2694.13)"/><path class="cls-2" d="M8394.24,9990.55c10.53,62.32,54.55,101.49,106.44,104,.39,5.08.79,10.25,1.19,15.45C8430.94,10112.43,8388.89,10051.9,8394.24,9990.55Z" transform="translate(-7651.65 -2694.13)"/><path class="cls-2" d="M8495.87,10053l-6.44-67.25c-9.66,3.86-21.36,16.22-24.56,25.51-3.62-14.09,4-38.82,23.38-45.74,4.13,29.14,7.27,58.16,9.52,87.27Z" transform="translate(-7651.65 -2694.13)"/><path class="cls-2" d="M8592.11,10046.48c-5.83-23.89-18.36-42.27-35.45-57.76a31.77,31.77,0,0,0-8.65-5.84c-3.72-1.58-4.69-4.17-4.9-7.71-.29-4.79-.8-9.57-1.23-14.44C8568.09,9966.57,8597.18,10008.94,8592.11,10046.48Z" transform="translate(-7651.65 -2694.13)"/><path class="cls-2" d="M8484.51,9504.84c19.34,19.75,31.24,41.18,27,68.88-.54-1.6-1.19-3.17-1.62-4.81a93.63,93.63,0,0,0-16-32.92,4.75,4.75,0,0,0-.91-1.18C8481.59,9527.41,8486.37,9515.77,8484.51,9504.84Z" transform="translate(-7651.65 -2694.13)"/></g><g class="cls-1"><path class="cls-4" d="M10806.51,4735.11l79-120q18.33-27.84,36.65-55.69c10.73-16.26,10.88-17.29-5.66-28.58q-46.56-31.76-93.69-62.69-92.17-60.59-184.63-120.77c-4.29-2.81-8.57-5.64-14.17-9.33-12.77,19.4-24.64,37.57-36.65,55.64-42.72,64.27-85.61,128.43-128,192.89-3.56,5.41-5,12.65-6,19.25-9.34,66.64-55,118.36-120.4,135.81-68.92,18.39-137.45-3.19-178.49-56.21-39.48-51-43.28-129.31-9.17-188.91,36.79-64.29,102.07-97.94,171.49-85.93,53.9,9.33,93.2,40.1,119.21,90.32l9.26-14.06q105.34-159.23,210.59-318.51c6.5-9.86,11.54-20.83,26.31-17.89,3.09.62,6.41,1.37,9,3q114.6,73.86,229.07,147.88c48.94,31.46,98.2,62.42,147.31,93.62,3.07,1.95,6.15,3.9,9.06,6.07,15.93,11.9,18.32,24,7.44,40.58q-46.58,70.93-93.47,141.65c-48.33,72.68-96.95,145.16-145.07,218A29.06,29.06,0,0,0,10841,4819c9.33,82.47-34.29,153.81-111.82,181.93-77,27.95-163.64-10.88-198-88.76-34.76-78.79-2.81-176.13,72-219.27,65.75-37.92,144.91-24.34,194.47,33.32C10800,4728.94,10802.67,4731.29,10806.51,4735.11Zm-.14,15.15c-4.16-5.27-7-8.56-9.5-12.08-36.49-51.58-106.33-72.73-165.14-50-87.32,33.8-129.49,128.3-95.44,215.67,42.95,110.2,177.5,131.08,256.57,45.91,34.92-37.62,46.71-83.84,38.78-134.87-.61-3.89.15-9,2.28-12.19Q10914,4682,10994.49,4561.6q41.64-62.55,82.77-125.44c7.74-11.85,6.64-17.4-3.68-26.06a102,102,0,0,0-10.71-7.91q-144.77-92-289.54-183.95c-28.27-18-56-36.93-84.18-55-12-7.71-16.07-6.57-23.82,5-14.16,21.14-28.12,42.42-42.19,63.62q-91.5,137.85-183,275.68c-1.68,2.53-3.74,4.79-6.93,8.84-16.24-44.29-46.54-73.43-87.64-90.44-42.42-17.54-84.65-12.42-125.61,6.79-70.73,33.19-107.58,123.35-82.71,202.35,22.85,72.57,97.39,116.73,174.73,103.51,80.89-13.83,137.16-79.32,135-154.37,5.25-5,10-8.22,12.93-12.61q67.93-101.82,135.44-203.92c9.05-13.65,18-27.35,26.81-40.69,10.15,6.68,17.81,11.78,25.53,16.81q115.78,75.42,231.5,150.95c17.83,11.71,34.68,24.93,52,37.43,9.43,6.8,9.55,13.83,3.07,23.56-34.27,51.45-67.93,103.31-101.81,155C10824.07,4723.43,10815.7,4736.09,10806.37,4750.26Z" transform="translate(-7651.65 -2694.13)"/><path class="cls-2" d="M10806.37,4750.26c9.33-14.17,17.7-26.83,26-39.53,33.88-51.7,67.54-103.56,101.81-155,6.48-9.73,6.36-16.76-3.07-23.56-17.31-12.5-34.16-25.72-52-37.43q-115.51-75.82-231.5-150.95c-7.72-5-15.38-10.13-25.53-16.81-8.79,13.34-17.76,27-26.81,40.69q-67.64,102-135.44,203.92c-2.93,4.39-7.68,7.58-12.93,12.61,2.16,75.05-54.11,140.54-135,154.37-77.34,13.22-151.88-30.94-174.73-103.51-24.87-79,12-169.16,82.71-202.35,41-19.21,83.19-24.33,125.61-6.79,41.1,17,71.4,46.15,87.64,90.44,3.19-4.05,5.25-6.31,6.93-8.84q91.56-137.82,183-275.68c14.07-21.2,28-42.48,42.19-63.62,7.75-11.57,11.8-12.71,23.82-5,28.22,18.1,55.91,37,84.18,55q144.66,92.16,289.54,183.95a102,102,0,0,1,10.71,7.91c10.32,8.66,11.42,14.21,3.68,26.06q-41.13,62.9-82.77,125.44-80.25,120.6-160.57,241.13c-2.13,3.21-2.89,8.3-2.28,12.19,7.93,51-3.86,97.25-38.78,134.87-79.07,85.17-213.62,64.29-256.57-45.91-34.05-87.37,8.12-181.87,95.44-215.67,58.81-22.76,128.65-1.61,165.14,50C10799.37,4741.7,10802.21,4745,10806.37,4750.26Zm-30.78,155.18c20.36-35.3,23.23-80.43,4.42-126.73-25.76-63.4-110.59-88.95-167.39-50.85-67.19,45.09-78.08,136.63-23.39,196.73C10642,4982.56,10729.34,4977.2,10775.59,4905.44Zm-586.29-407.18c-26.18,40.23-32.21,76.79-22.14,115.9,21,81.42,120,123.7,192.45,64.34,41.12-33.69,54.88-85.23,36.26-141.8-16-48.45-48.89-78.7-100.25-84.64C10248.33,4446.58,10212,4467.16,10189.3,4498.26Zm477.52-235.44c8.24,4,15.4,6.56,21.67,10.55,86.54,55,173.1,110,259.24,165.63,13.92,9,33,13.36,36.23,37.5l12-18.27L10676.6,4254.5Zm-4-52.6-2,4.56c4.88,3.22,9.72,6.5,14.65,9.64q167.11,106.14,334.24,212.25c11.51,7.31,14,6.58,25.42-10-14.25,10.35-22.58,2.32-31.3-3.17q-91.19-57.42-182.24-115-74.17-47-148.25-94.07C10670.18,4212.39,10666.32,4211.57,10662.8,4210.22Zm-12,81-2.12,2.62c4.2,4,7.9,8.78,12.67,12q114.94,76.35,230.11,152.38c21.87,14.49,43.49,29.33,65.39,43.76,2.59,1.71,6.23,1.82,9.38,2.67l1.65-4.58Zm19.17-92.14-1.51,2.09,346.82,219.53.74-1.15Z" transform="translate(-7651.65 -2694.13)"/><path class="cls-4" d="M10775.59,4905.44c-46.25,71.76-133.61,77.12-186.36,19.15-54.69-60.1-43.8-151.64,23.39-196.73,56.8-38.1,141.63-12.55,167.39,50.85C10798.82,4825,10796,4870.14,10775.59,4905.44Zm-5.51-4.33c14.28-23.67,19.43-59.55,10.11-97.32-10.41-42.22-36.12-70.85-78.48-82.45-41.21-11.29-76.78.83-106.23,30.5-49.59,50-43.59,136.47,11.9,181C10657.31,4972.88,10730.58,4962.58,10770.08,4901.11Z" transform="translate(-7651.65 -2694.13)"/><path class="cls-4" d="M10189.3,4498.26c22.73-31.1,59-51.68,106.32-46.2,51.36,5.94,84.3,36.19,100.25,84.64,18.62,56.57,4.86,108.11-36.26,141.8-72.46,59.36-171.49,17.08-192.45-64.34C10157.09,4575.05,10163.12,4538.49,10189.3,4498.26Zm25.82,177.31c59.15,38.21,126.78,24.9,161.84-24.84,25.74-36.51,23.92-75.83,10.86-115.78-18.17-55.61-77.33-88.9-131.43-73.6-50.46,14.28-78.34,49.66-85.69,100.36C10163.45,4611.69,10182.07,4651.7,10215.12,4675.57Z" transform="translate(-7651.65 -2694.13)"/><path class="cls-4" d="M10666.82,4262.82l9.78-8.32L10996,4458.23l-12,18.27c-3.23-24.14-22.31-28.5-36.23-37.5-86.14-55.64-172.7-110.61-259.24-165.63C10682.22,4269.38,10675.06,4266.78,10666.82,4262.82Z" transform="translate(-7651.65 -2694.13)"/><path class="cls-4" d="M10662.8,4210.22c3.52,1.35,7.38,2.17,10.5,4.14q74.21,46.92,148.25,94.07,91,57.64,182.24,115c8.72,5.49,17,13.52,31.3,3.17-11.41,16.6-13.91,17.33-25.42,10q-167.13-106.11-334.24-212.25c-4.93-3.14-9.77-6.42-14.65-9.64Z" transform="translate(-7651.65 -2694.13)"/><path class="cls-4" d="M10650.79,4291.24l317.08,208.8-1.65,4.58c-3.15-.85-6.79-1-9.38-2.67-21.9-14.43-43.52-29.27-65.39-43.76q-115-76.21-230.11-152.38c-4.77-3.17-8.47-7.93-12.67-12Z" transform="translate(-7651.65 -2694.13)"/><path class="cls-4" d="M10670,4199.1,11016,4419.57l-.74,1.15-346.82-219.53Z" transform="translate(-7651.65 -2694.13)"/><path class="cls-2" d="M10770.08,4901.11c-39.5,61.47-112.77,71.77-162.7,31.72-55.49-44.52-61.49-131-11.9-181,29.45-29.67,65-41.79,106.23-30.5,42.36,11.6,68.07,40.23,78.48,82.45C10789.51,4841.56,10784.36,4877.44,10770.08,4901.11Z" transform="translate(-7651.65 -2694.13)"/><path class="cls-2" d="M10215.12,4675.57c-33.05-23.87-51.67-63.88-44.42-113.86,7.35-50.7,35.23-86.08,85.69-100.36,54.1-15.3,113.26,18,131.43,73.6,13.06,39.95,14.88,79.27-10.86,115.78C10341.9,4700.47,10274.27,4713.78,10215.12,4675.57Z" transform="translate(-7651.65 -2694.13)"/></g><g class="cls-1"><path class="cls-2" d="M10380.91,6283.41c-3.19-17-6.68-33.95-9.48-51-3.89-23.81-8.17-47.62-10.65-71.59-4.19-40.54-4.45-81.08,3.06-121.46,6.19-33.23,19.37-63.18,40.46-89.42,15.08-18.76,34-31.66,59-33.3,23.35-1.52,40.5,9.83,54.39,27.06,20.82,25.82,32.35,56,41.65,87.52,9.46,32.07,11.8,64.7,10.54,97.73a298.64,298.64,0,0,1-15.78,85.48,352.46,352.46,0,0,1-43.89,86.93c-21,30.41-46.16,57.27-73.56,81.95-26.59,23.95-53.83,47.19-80.52,71-27.62,24.68-54.1,50.64-74.9,81.43-27.58,40.81-43.34,85.72-39.85,135.71,3.42,49.06,22.83,90.7,60,123.57,23.9,21.11,51.26,35.75,82.17,43.08,19.17,4.55,39,6.07,58.56,3.42,29.27-4,52.85-19.06,73.92-39.29,15.48-14.87,27.53-31.47,33.76-52.07,5.24-17.34,5.53-35.12,4.16-53a118,118,0,0,0-16.69-52.78c-18.1-29.81-44.1-49-79-53.08-30.52-3.6-55,9.8-74.66,32.37-23.71,27.19-31.77,59.12-28.27,94.61,2.74,27.74,14.71,50.74,34.28,70.13a6.27,6.27,0,0,1,2.06,3.67c-5.09-3.69-10.12-7.46-15.28-11-32.72-22.74-52.63-54.26-61.36-92.57-5.9-25.85-2.67-51.62,6.14-76.6,10-28.31,26.93-51.74,50.22-70.58,12.37-10,26.34-17.26,40.9-23.6,29.65-12.91,59.8-12,89.77-2.56,70.27,22,110.57,71.18,124,142.42,7.62,40.33,1.6,79.84-16.23,116.82-25.53,52.93-67,88-122.94,106.07-.28.09-.51.39-1.26,1,3.3,21.87,7.11,44,9.89,66.23,3.88,31,7.93,62.06,10.16,93.22,1.81,25.34-4.26,49.55-19.94,70.15-18.38,24.15-42.77,38.24-73.34,41.46-26.67,2.8-52.67.27-77.51-9.67-25.37-10.15-45.45-27.32-61-49.83-13.18-19.1-20.85-40.16-21.54-63.37-1.63-54.37,43.41-88.13,91.21-77.92,30.67,6.55,52.93,32.33,57.9,63.79,5.43,34.39-14.77,59.86-39,70.93-11.94,5.45-24.91,7.14-38,6.75-3.85-.11-7.4-1.16-9.74-5-1-1.68-3.33-2.64-5.16-3.74-5-3-10.14-6-15.22-9-.31.34-.62.67-.92,1,6.79,6.41,13.31,13.14,20.44,19.16a116.1,116.1,0,0,0,52.16,25c20.22,4.2,40.66,4.17,60.12-2.87,27.49-9.94,43.12-34.12,43.82-64.22.5-21.42-1.87-42.58-4.93-63.69q-5.35-36.81-11.06-73.58c-.78-5.08-2.26-10.05-3.49-15.06a9.12,9.12,0,0,0-8-7.19c-6.72-1-13.48-2.25-20.25-2.47-59.25-2-113.2-19.63-160.77-55.18-23-17.16-41.72-38.54-57.32-62.72a252.06,252.06,0,0,1-35.48-87.25c-8-39.3-6.57-78.43,2.85-117.38,10.15-42,30-79.07,56.19-113.07,19.72-25.59,43.5-47.19,67.34-68.7,33.38-30.09,67.46-59.41,100.48-89.88,27.83-25.68,52.71-54.22,73.41-86,15.06-23.12,28.55-47.3,35.09-74.49,5.36-22.32,6.77-44.74-.85-67-3.55-10.33-9.26-19.28-18.07-25.73-14-10.27-21.31-10.6-36.53-1.16-14.75,9.13-24.23,22.87-31.48,38.45-13.1,28.19-17.29,58-15.11,88.56,1.76,24.89,5.09,49.66,7.71,74.48.72,6.84-.18,13-5.69,18.14-7.41,6.86-14.4,14.16-21.57,21.27Zm139.44-235.79c.66,1.3,1.32,2.59,2,3.89,9.65,19.29,15.32,39.66,15.54,61.27.39,36.84-9.2,71.42-25.78,104-15.35,30.11-36,56.66-58.36,81.88-28.63,32.36-60.9,61-93.25,89.48-30.49,26.87-60.77,53.94-86.85,85.27-22.9,27.51-42.09,57.17-54,91.34-17.4,50-17.76,100.25-2.83,150.56,10.75,36.19,31.09,66.73,59.43,91.76,5.37,4.73,11.23,8.9,16.86,13.34.39-1.25.14-1.66-.2-2-.74-.67-1.52-1.31-2.29-1.93a206.71,206.71,0,0,1-66.11-92.57c-15.2-42.07-18.31-85-7.14-128.45a247.87,247.87,0,0,1,37.47-81.47,453.83,453.83,0,0,1,66.53-75.52c30.8-28,62.33-55.13,93.1-83.14,31.1-28.31,59.06-59.53,82.85-94.3a263.51,263.51,0,0,0,37.79-81.34c8.91-33.41,11.13-66.78,2-100.42C10533.93,6067.54,10529.38,6056.37,10520.35,6047.62Zm13.85,767.12.37.29c.85-.76,1.72-1.51,2.55-2.3,17.91-17,31.29-37,39.24-60.43,12.33-36.38,12.59-72.77-.5-109-13.53-37.42-38.58-64.37-74.78-80.81-22-10-45.1-14.14-68.58-8.08-44.5,11.48-76.52,36.74-86.83,84-.6,2.75-1.09,5.52-1.59,8.3-.46,2.6-.94,5.21-1.26,7.84s-.45,5.22-.66,7.84a10.33,10.33,0,0,0,2-4.73c3.21-13.72,6.52-27.35,13.56-39.85,26.53-47.08,86.44-69.39,140.23-46.06,48.71,21.12,75.9,59.47,82.84,111.39,5.19,38.81-4.55,74.93-26.9,107.23C10548,6798.93,10540.81,6806.64,10534.2,6814.74Zm-110.45-825.12c23.17-15.44,47.66-17.7,73.48-8.44-3.44-5.33-10.27-9.66-17.52-11-13-2.37-25.4-.53-37.41,4.82C10434.9,5978.3,10428.44,5982.75,10423.75,5989.62Zm-74.53,998.73-1.35,1,10,14.12,1.43-1Z" transform="translate(-7651.65 -2694.13)"/><path class="cls-2" d="M10418.89,6648.55a16,16,0,0,1,1.11-3.39c4.46-8.23,21.61-16.69,30.86-14.88,1.66.32,4,2.62,4.17,4.23,2.25,18.51,4.06,37.06,6.17,55.58,2.08,18.34,4.21,36.68,6.6,55,3.3,25.23,7,50.41,10.21,75.65.78,6.19-5.07,8.39-9.23,10.24-6.6,2.95-13.81,4.53-20.77,6.69-2.53.78-3.56-.14-3.93-2.78-4.92-35.09-10-70.16-14.88-105.26-2.87-20.59-5.51-41.22-8.18-61.84C10420.22,6661.67,10419.66,6655.54,10418.89,6648.55Z" transform="translate(-7651.65 -2694.13)"/><path class="cls-2" d="M10234.35,7156.91c7.24-6.76,16.73-5.67,25.09-8.29,8-2.49,15.92-.22,23.78-1.65a140.27,140.27,0,0,1,16.09-1.86c1.6-.11,3.44.87,4.91,1.78a153.67,153.67,0,0,0,49.4,19.35c24.91,5.22,49.88,5.61,75,2.27a3.35,3.35,0,0,1,2.81.94c-4.49.93-8.94,2.17-13.47,2.73-29.2,3.61-58.49,2.14-87.77,1.32-15.19-.43-30.4-.55-45.58-1.32-5.09-.25-10.07-2.26-15.17-3.1-3.13-.51-6.47.1-9.55-.56a168.11,168.11,0,0,1-20.71-5.44C10237.09,7162.34,10235.9,7159,10234.35,7156.91Z" transform="translate(-7651.65 -2694.13)"/><path class="cls-2" d="M10441.37,6491.67c1.13,3.06-1.26,4.37-4.55,5.15-8.86,2.12-17.73,4.21-26.55,6.49-2.83.73-4-.15-4.43-2.89-2.42-14.88-5.24-29.71-7.11-44.65-.35-2.78,2.27-7,4.79-8.83,5.36-3.81,11.42-6.72,17.44-9.49,7.06-3.26,12.39-.78,14.24,6.85,1.39,5.77,1.78,11.8,2.53,17.72C10438.94,6471.58,10440.08,6481.14,10441.37,6491.67Z" transform="translate(-7651.65 -2694.13)"/></g><path class="cls-3" d="M12750.27,4151.4c4.56,1.44,9,3.4,13.7,4.24q53.58,9.68,107.23,19,115.93,19.83,231.93,39.39,69,11.67,138,23.11c8.7,1.45,17.4,2.91,26.12,4.25,11.15,1.72,14.87,5.13,17,16.37q5.15,26.76,10.08,53.56,32.93,178,65.83,355.94,13.19,71.28,26.54,142.53a17.56,17.56,0,0,0,4.78,8.74c12.14,11.82,22.14,25,26.58,41.57,7.52,28.18.33,53.43-16.32,76.4-19.66,27.11-46.61,44.39-77.77,55.31-33.12,11.61-67.1,15.52-101.85,8.91-28.4-5.39-54.15-16.21-74.65-37.5-23.32-24.19-29.43-61.05-14.94-91.33,14.78-30.89,39.64-51.34,69.55-66.26a192.39,192.39,0,0,1,78.82-20.21c14.23-.57,28.54.77,43.26,1.26a23.62,23.62,0,0,0-.22-3.24q-40-216.06-80.1-432.11c-.43-2.29-1.43-4.55-1.44-6.83,0-8.87-5.21-11.06-13.08-12.36-62.43-10.37-124.78-21.14-187.14-31.86-44-7.55-87.92-15.29-131.9-22.83-34.13-5.86-68.28-11.54-102.43-17.26a42.2,42.2,0,0,0-4.84-.24c.81,4.36,1.54,8.27,2.26,12.17q28.64,154.36,57.25,308.72c3.7,20,7.54,40,11,60,.71,4.1,3.2,4,6,4.27,20.79,2,40.66,7.27,59.12,17.1,19.22,10.24,35.58,23.84,45,43.92,13.17,28,9.48,55.36-6.46,81-22.42,36.07-56.59,56.06-96.41,67.3-36.13,10.2-72.46,10.21-108.38-1.08-23-7.22-43.06-19.34-58.32-38.54-21.26-26.75-23.26-62.2-5-93.65,13.91-23.9,34.27-41,58.28-54,13.67-7.39,28-13.34,43.25-16.58,5-1.07,6.23-2.83,5.27-7.93q-15.42-81.28-30.41-162.66-27.9-150.69-55.57-301.4c-1.05-5.74-.18-11.82-.34-17.74a39.1,39.1,0,0,0-.88-5.43Z" transform="translate(-7651.65 -2694.13)"/><g class="cls-1"><path class="cls-4" d="M10265.05,3286.73l79-120q18.33-27.84,36.65-55.69c10.73-16.26,10.88-17.29-5.66-28.58q-46.56-31.77-93.69-62.69-92.18-60.58-184.63-120.77c-4.29-2.81-8.57-5.64-14.17-9.33-12.77,19.4-24.64,37.57-36.65,55.64-42.72,64.26-85.61,128.43-128,192.89-3.56,5.41-5,12.65-6,19.25-9.34,66.64-55,118.36-120.4,135.8-68.92,18.4-137.45-3.19-178.49-56.21-39.48-51-43.28-129.3-9.17-188.91,36.79-64.28,102.07-97.93,171.49-85.92,53.9,9.33,93.2,40.09,119.21,90.31,3.37-5.11,6.31-9.59,9.26-14q105.35-159.23,210.59-318.52c6.5-9.85,11.54-20.82,26.31-17.88,3.09.62,6.41,1.36,9,3,76.4,49.23,152.62,98.74,229.07,147.88,48.94,31.46,98.2,62.42,147.31,93.62,3.07,2,6.15,3.9,9.06,6.07,15.93,11.9,18.32,24,7.44,40.57q-46.57,70.93-93.47,141.66c-48.33,72.68-97,145.16-145.07,218a29.09,29.09,0,0,0-4.45,17.76c9.33,82.47-34.29,153.8-111.82,181.93-77,28-163.64-10.88-198-88.77-34.76-78.78-2.81-176.13,72-219.26,65.75-37.92,144.91-24.34,194.47,33.31C10258.51,3280.57,10261.21,3282.91,10265.05,3286.73Zm-.14,15.16c-4.16-5.27-7-8.56-9.5-12.09-36.49-51.57-106.33-72.72-165.14-50-87.32,33.8-129.49,128.3-95.44,215.66,43,110.2,177.5,131.09,256.57,45.92,34.92-37.62,46.71-83.84,38.78-134.87-.61-3.9.15-9,2.28-12.19q80.06-120.72,160.57-241.13,41.64-62.57,82.77-125.44c7.74-11.86,6.64-17.4-3.68-26.07a103.32,103.32,0,0,0-10.71-7.9q-144.76-92-289.54-184c-28.27-18-56-36.94-84.18-55-12-7.7-16.07-6.56-23.82,5-14.16,21.14-28.12,42.41-42.19,63.62q-91.5,137.85-183.05,275.68c-1.68,2.52-3.74,4.79-6.93,8.83-16.24-44.28-46.54-73.42-87.64-90.43-42.42-17.55-84.65-12.42-125.61,6.79-70.73,33.19-107.58,123.35-82.71,202.35,22.85,72.57,97.39,116.73,174.73,103.51,80.89-13.83,137.16-79.32,135-154.37,5.25-5,10-8.22,12.93-12.61q67.94-101.82,135.44-203.92c9-13.65,18-27.35,26.81-40.7,10.15,6.69,17.81,11.79,25.53,16.81q115.78,75.43,231.5,151c17.83,11.71,34.68,24.93,52,37.42,9.43,6.8,9.55,13.84,3.07,23.57-34.27,51.45-67.93,103.31-101.81,155C10282.61,3275.05,10274.24,3287.71,10264.91,3301.89Z" transform="translate(-7651.65 -2694.13)"/><path class="cls-2" d="M10264.91,3301.89c9.33-14.18,17.7-26.84,26-39.53,33.88-51.7,67.54-103.56,101.81-155,6.48-9.73,6.36-16.77-3.07-23.57-17.31-12.49-34.16-25.71-52-37.42q-115.51-75.84-231.5-151c-7.72-5-15.38-10.12-25.53-16.81-8.79,13.35-17.76,27-26.81,40.7q-67.64,102-135.44,203.92c-2.93,4.39-7.68,7.57-12.93,12.61,2.16,75-54.11,140.54-135,154.37-77.34,13.22-151.88-30.94-174.73-103.51-24.87-79,12-169.16,82.71-202.35,41-19.21,83.19-24.34,125.61-6.79,41.1,17,71.4,46.15,87.64,90.43,3.19-4,5.25-6.31,6.93-8.83q91.56-137.82,183.05-275.68c14.07-21.21,28-42.48,42.19-63.62,7.75-11.57,11.8-12.71,23.82-5,28.22,18.1,55.91,37,84.18,55q144.66,92.16,289.54,184a103.32,103.32,0,0,1,10.71,7.9c10.32,8.67,11.42,14.21,3.68,26.07q-41.13,62.88-82.77,125.44-80.25,120.58-160.57,241.13c-2.13,3.21-2.89,8.29-2.28,12.19,7.93,51-3.86,97.25-38.78,134.87-79.07,85.17-213.62,64.28-256.57-45.92-34-87.36,8.12-181.86,95.44-215.66,58.81-22.76,128.65-1.61,165.14,50C10257.91,3293.33,10260.75,3296.62,10264.91,3301.89Zm-30.78,155.17c20.36-35.3,23.23-80.42,4.42-126.72-25.76-63.41-110.59-89-167.39-50.85-67.19,45.08-78.08,136.63-23.39,196.73C10100.52,3534.19,10187.88,3528.83,10234.13,3457.06Zm-586.29-407.17c-26.18,40.23-32.21,76.79-22.14,115.9,21,81.42,120,123.7,192.45,64.33,41.12-33.69,54.88-85.22,36.26-141.8-16-48.44-48.89-78.69-100.25-84.64C9706.87,2998.21,9670.57,3018.78,9647.84,3049.89Zm477.52-235.44c8.24,4,15.4,6.56,21.67,10.55,86.54,55,173.1,110,259.24,165.63,13.92,9,33,13.36,36.23,37.5l12-18.27-319.38-203.73Zm-4-52.6-2,4.56c4.88,3.21,9.72,6.5,14.65,9.63q167.11,106.15,334.24,212.26c11.51,7.3,14,6.58,25.42-10-14.25,10.36-22.58,2.33-31.3-3.16q-91.18-57.43-182.24-115.05-74.18-46.95-148.25-94.07C10128.72,2764,10124.86,2763.2,10121.34,2761.85Zm-12,81-2.12,2.62c4.2,4,7.9,8.78,12.67,11.94q114.95,76.37,230.11,152.39c21.87,14.49,43.49,29.33,65.39,43.76,2.59,1.7,6.23,1.82,9.38,2.67l1.65-4.58Zm19.17-92.15-1.51,2.1,346.82,219.52.74-1.15Z" transform="translate(-7651.65 -2694.13)"/><path class="cls-4" d="M10234.13,3457.06c-46.25,71.77-133.61,77.13-186.36,19.16-54.69-60.1-43.8-151.65,23.39-196.73,56.8-38.11,141.63-12.56,167.39,50.85C10257.36,3376.64,10254.49,3421.76,10234.13,3457.06Zm-5.51-4.33c14.28-23.66,19.43-59.54,10.11-97.31-10.41-42.22-36.12-70.85-78.48-82.45-41.21-11.29-76.78.83-106.23,30.49-49.59,50-43.59,136.48,11.9,181C10115.85,3524.51,10189.12,3514.2,10228.62,3452.73Z" transform="translate(-7651.65 -2694.13)"/><path class="cls-4" d="M9647.84,3049.89c22.73-31.11,59-51.68,106.32-46.21,51.36,6,84.3,36.2,100.25,84.64,18.62,56.58,4.86,108.11-36.26,141.8-72.46,59.37-171.49,17.09-192.45-64.33C9615.63,3126.68,9621.66,3090.12,9647.84,3049.89Zm25.82,177.31c59.15,38.2,126.78,24.9,161.84-24.84,25.74-36.51,23.92-75.83,10.86-115.78-18.17-55.61-77.33-88.91-131.43-73.6-50.46,14.28-78.34,49.66-85.69,100.36C9622,3163.32,9640.61,3203.32,9673.66,3227.2Z" transform="translate(-7651.65 -2694.13)"/><path class="cls-4" d="M10125.36,2814.45l9.78-8.32,319.38,203.73-12,18.27c-3.23-24.14-22.31-28.5-36.23-37.5C10320.13,2935,10233.57,2880,10147,2825,10140.76,2821,10133.6,2818.41,10125.36,2814.45Z" transform="translate(-7651.65 -2694.13)"/><path class="cls-4" d="M10121.34,2761.85c3.52,1.35,7.38,2.17,10.5,4.14q74.2,46.92,148.25,94.07,91,57.64,182.24,115.05c8.72,5.49,17,13.52,31.3,3.16-11.41,16.61-13.91,17.33-25.42,10Q10301.08,2882.19,10134,2776c-4.93-3.13-9.77-6.42-14.65-9.63Z" transform="translate(-7651.65 -2694.13)"/><path class="cls-4" d="M10109.33,2842.87l317.08,208.8-1.65,4.58c-3.15-.85-6.79-1-9.38-2.67-21.9-14.43-43.52-29.27-65.39-43.76q-115-76.21-230.11-152.39c-4.77-3.16-8.47-7.92-12.67-11.94Z" transform="translate(-7651.65 -2694.13)"/><path class="cls-4" d="M10128.5,2750.72l346,220.47-.74,1.15L10127,2752.82Z" transform="translate(-7651.65 -2694.13)"/><path class="cls-2" d="M10228.62,3452.73c-39.5,61.47-112.77,71.78-162.7,31.73-55.49-44.52-61.49-131-11.9-181,29.45-29.66,65-41.78,106.23-30.49,42.36,11.6,68.07,40.23,78.48,82.45C10248.05,3393.19,10242.9,3429.07,10228.62,3452.73Z" transform="translate(-7651.65 -2694.13)"/><path class="cls-2" d="M9673.66,3227.2c-33-23.88-51.67-63.88-44.42-113.86,7.35-50.7,35.23-86.08,85.69-100.36,54.1-15.31,113.26,18,131.43,73.6,13.06,40,14.88,79.27-10.86,115.78C9800.44,3252.1,9732.81,3265.4,9673.66,3227.2Z" transform="translate(-7651.65 -2694.13)"/></g><g class="cls-1"><path class="cls-2" d="M9001.87,5084.1c-3.18-17-6.68-34-9.47-51-3.9-23.81-8.17-47.62-10.65-71.6-4.19-40.53-4.46-81.07,3.06-121.45,6.18-33.24,19.37-63.19,40.45-89.42,15.08-18.77,34-31.67,59-33.3,23.35-1.53,40.5,9.82,54.39,27.06,20.81,25.82,32.35,56,41.64,87.52,9.47,32.07,11.8,64.69,10.54,97.73a298.57,298.57,0,0,1-15.78,85.47,352.25,352.25,0,0,1-43.88,86.93c-21,30.42-46.16,57.27-73.56,82-26.6,24-53.83,47.19-80.53,71-27.62,24.67-54.09,50.64-74.89,81.42-27.58,40.82-43.35,85.72-39.86,135.72,3.42,49.06,22.84,90.69,60.05,123.57,23.89,21.11,51.25,35.74,82.17,43.08,19.16,4.55,39,6.06,58.55,3.41,29.28-4,52.86-19.06,73.93-39.29,15.48-14.87,27.53-31.46,33.75-52.07,5.24-17.34,5.53-35.12,4.17-53a117.8,117.8,0,0,0-16.7-52.78c-18.09-29.81-44.09-49-79-53.09-30.53-3.59-55,9.81-74.66,32.38-23.71,27.18-31.78,59.12-28.27,94.61,2.74,27.73,14.7,50.73,34.28,70.13a6.21,6.21,0,0,1,2,3.67c-5.09-3.69-10.12-7.46-15.28-11-32.71-22.74-52.62-54.25-61.36-92.57-5.89-25.84-2.66-51.62,6.14-76.59,10-28.31,26.93-51.75,50.22-70.58,12.38-10,26.35-17.26,40.91-23.6,29.64-12.92,59.8-12,89.76-2.57,70.28,22,110.58,71.18,124,142.42,7.62,40.33,1.6,79.84-16.24,116.83-25.52,52.93-67,88-122.93,106.06-.29.1-.51.39-1.27,1,3.31,21.86,7.11,44,9.9,66.22,3.88,31,7.92,62.06,10.15,93.22,1.82,25.35-4.26,49.56-19.93,70.15-18.38,24.15-42.77,38.25-73.35,41.46-26.66,2.8-52.66.28-77.5-9.66-25.37-10.15-45.45-27.32-61-49.83-13.17-19.11-20.84-40.16-21.54-63.38-1.62-54.37,43.42-88.13,91.22-77.92,30.67,6.56,52.92,32.34,57.9,63.8,5.43,34.39-14.77,59.85-39,70.92-11.94,5.45-24.91,7.14-38,6.75-3.85-.11-7.39-1.16-9.73-5-1-1.67-3.33-2.64-5.16-3.74-5-3-10.15-6-15.22-9l-.93,1c6.8,6.41,13.32,13.15,20.44,19.17a116.39,116.39,0,0,0,52.17,25c20.21,4.19,40.65,4.17,60.12-2.88,27.49-9.94,43.12-34.12,43.82-64.21.5-21.42-1.87-42.58-4.94-63.69q-5.34-36.82-11.05-73.58c-.79-5.08-2.27-10.06-3.5-15.06a9.12,9.12,0,0,0-8-7.2c-6.72-1-13.48-2.24-20.25-2.47-59.25-2-113.2-19.62-160.78-55.17-23-17.17-41.72-38.54-57.31-62.72a252.19,252.19,0,0,1-35.48-87.26c-8-39.29-6.58-78.42,2.84-117.38,10.16-42,30-79.07,56.19-113.06,19.73-25.59,43.5-47.2,67.35-68.7,33.37-30.1,67.45-59.42,100.48-89.89,27.83-25.68,52.71-54.22,73.41-86,15.06-23.12,28.55-47.29,35.08-74.49,5.36-22.31,6.78-44.73-.85-67-3.54-10.34-9.25-19.28-18.06-25.74-14-10.27-21.32-10.59-36.54-1.16-14.75,9.14-24.23,22.88-31.47,38.46-13.1,28.19-17.29,58-15.12,88.56,1.77,24.88,5.1,49.65,7.71,74.48.72,6.84-.17,13-5.68,18.13-7.41,6.86-14.4,14.17-21.57,21.28Zm139.44-235.79c.66,1.29,1.33,2.58,2,3.88,9.65,19.29,15.31,39.67,15.54,61.28.39,36.83-9.2,71.42-25.79,104-15.34,30.12-36.05,56.67-58.36,81.89-28.62,32.36-60.9,61-93.24,89.47-30.5,26.87-60.78,53.94-86.85,85.27-22.91,27.52-42.1,57.18-54,91.35-17.4,50-17.77,100.25-2.83,150.55,10.74,36.2,31.08,66.73,59.43,91.76,5.36,4.74,11.22,8.91,16.85,13.34.39-1.24.14-1.65-.2-2-.74-.67-1.51-1.3-2.29-1.93a206.74,206.74,0,0,1-66.1-92.56c-15.2-42.07-18.31-85-7.14-128.46a247.76,247.76,0,0,1,37.47-81.47,454.22,454.22,0,0,1,66.52-75.52c30.8-28,62.34-55.12,93.1-83.13,31.1-28.32,59.07-59.54,82.86-94.31a263.46,263.46,0,0,0,37.79-81.33c8.91-33.42,11.13-66.78,2-100.42C9154.9,4868.23,9150.35,4857.05,9141.31,4848.31Zm13.85,767.11.38.29c.85-.76,1.72-1.5,2.55-2.29,17.9-17,31.29-37,39.24-60.44,12.33-36.37,12.59-72.77-.51-109-13.52-37.42-38.58-64.38-74.78-80.81-21.94-10-45.09-14.15-68.58-8.09-44.49,11.48-76.51,36.75-86.82,84-.6,2.75-1.1,5.53-1.59,8.3-.47,2.61-.95,5.22-1.27,7.84s-.44,5.23-.65,7.84a10.45,10.45,0,0,0,2-4.72c3.2-13.73,6.51-27.36,13.55-39.85,26.53-47.08,86.45-69.39,140.23-46.07,48.71,21.12,75.9,59.48,82.85,111.4,5.18,38.81-4.55,74.92-26.9,107.23C9169,5599.62,9161.78,5607.32,9155.16,5615.42ZM9044.71,4790.3c23.18-15.43,47.67-17.69,73.49-8.44-3.44-5.32-10.27-9.66-17.53-11-13-2.38-25.4-.53-37.4,4.81C9055.87,4779,9049.4,4783.43,9044.71,4790.3ZM8970.19,5789l-1.36,1,10,14.13,1.43-1Z" transform="translate(-7651.65 -2694.13)"/><path class="cls-2" d="M9039.86,5449.23a16.09,16.09,0,0,1,1.11-3.38c4.45-8.23,21.61-16.69,30.86-14.89,1.65.33,4,2.63,4.17,4.24,2.25,18.5,4.06,37.06,6.17,55.58,2.08,18.34,4.21,36.68,6.6,55,3.3,25.23,7,50.4,10.2,75.64.79,6.19-5.06,8.39-9.22,10.25-6.6,2.94-13.82,4.52-20.77,6.68-2.53.79-3.56-.13-3.94-2.78-4.91-35.09-10-70.16-14.88-105.25-2.86-20.59-5.5-41.22-8.18-61.84C9041.19,5462.35,9040.62,5456.22,9039.86,5449.23Z" transform="translate(-7651.65 -2694.13)"/><path class="cls-2" d="M8855.32,5957.6c7.23-6.77,16.73-5.68,25.09-8.29,8-2.5,15.92-.23,23.78-1.65a142.56,142.56,0,0,1,16.09-1.87c1.6-.1,3.44.88,4.91,1.78a153.21,153.21,0,0,0,49.4,19.35c24.91,5.22,49.88,5.61,75,2.27a3.35,3.35,0,0,1,2.81,1c-4.48.92-8.93,2.16-13.47,2.72-29.2,3.61-58.49,2.15-87.76,1.32-15.2-.43-30.41-.55-45.58-1.31-5.1-.26-10.08-2.26-15.17-3.1-3.13-.52-6.47.1-9.55-.56a165.92,165.92,0,0,1-20.71-5.45C8858.05,5963,8856.87,5959.67,8855.32,5957.6Z" transform="translate(-7651.65 -2694.13)"/><path class="cls-2" d="M9062.34,5292.36c1.13,3.06-1.26,4.36-4.55,5.15-8.87,2.11-17.74,4.21-26.56,6.48-2.82.73-4-.14-4.42-2.89-2.42-14.87-5.24-29.7-7.11-44.65-.35-2.77,2.27-7,4.78-8.82,5.36-3.81,11.43-6.72,17.44-9.49,7.06-3.26,12.4-.78,14.24,6.84,1.4,5.78,1.79,11.8,2.54,17.73C9059.91,5272.26,9061.05,5281.83,9062.34,5292.36Z" transform="translate(-7651.65 -2694.13)"/></g></svg>